<svg width="64" height="64" viewBox="0 0 64 64" fill="none" xmlns="http://www.w3.org/2000/svg">
<rect width="64" height="64" rx="32" fill="#42794A"/>
<path d="M19.7973 26.3096V40.8132M27.9556 26.3096V40.8132M37.0203 26.3096V40.8132M45.1786 26.3096V40.8132M16.1714 43.7139V45.1642C16.1714 46.1797 16.1714 46.6873 16.369 47.0751C16.5428 47.4163 16.8202 47.6937 17.1613 47.8674C17.5491 48.065 18.0568 48.065 19.0721 48.065H45.9038C46.9192 48.065 47.4268 48.065 47.8146 47.8674C48.1558 47.6937 48.433 47.4163 48.6069 47.0751C48.8045 46.6873 48.8045 46.1797 48.8045 45.1642V43.7139C48.8045 42.6986 48.8045 42.1908 48.6069 41.803C48.433 41.462 48.1558 41.1846 47.8146 41.0108C47.4268 40.8132 46.9192 40.8132 45.9038 40.8132H19.0721C18.0568 40.8132 17.5491 40.8132 17.1613 41.0108C16.8202 41.1846 16.5428 41.462 16.369 41.803C16.1714 42.1908 16.1714 42.6986 16.1714 43.7139ZM31.8587 15.5717L18.4428 18.553C17.6324 18.7331 17.2271 18.8232 16.9246 19.0411C16.6578 19.2334 16.4483 19.4945 16.3185 19.7967C16.1714 20.1393 16.1714 20.5544 16.1714 21.3847V23.4089C16.1714 24.4242 16.1714 24.9319 16.369 25.3197C16.5428 25.6608 16.8202 25.9382 17.1613 26.112C17.5491 26.3096 18.0568 26.3096 19.0721 26.3096H45.9038C46.9192 26.3096 47.4268 26.3096 47.8146 26.112C48.1558 25.9382 48.433 25.6608 48.6069 25.3197C48.8045 24.9319 48.8045 24.4242 48.8045 23.4089V21.3847C48.8045 20.5544 48.8045 20.1393 48.6573 19.7967C48.5276 19.4945 48.3181 19.2334 48.0512 19.0411C47.7488 18.8232 47.3436 18.7331 46.533 18.553L33.1172 15.5717C32.8824 15.5196 32.765 15.4935 32.6464 15.4831C32.5409 15.4738 32.435 15.4738 32.3295 15.4831C32.2109 15.4935 32.0934 15.5196 31.8587 15.5717Z" stroke="white" stroke-width="1.81295" stroke-linecap="round" stroke-linejoin="round"/>
</svg>
