<svg width="86" height="34" viewBox="0 0 86 34" fill="none" xmlns="http://www.w3.org/2000/svg">
<path d="M15.113 10.1826C15.113 10.5002 15.1025 10.8115 15.0836 11.1103C15.0646 11.4091 14.9994 11.8018 14.8922 12.2907C14.7828 12.7776 14.6398 13.2268 14.4631 13.6363C14.2864 14.0437 14.0235 14.4741 13.6785 14.9212C13.3335 15.3704 12.9234 15.7444 12.448 16.0431C11.9747 16.3419 11.3711 16.5905 10.6412 16.7911C9.90918 16.9896 9.09095 17.0899 8.18228 17.0899H0.96757C0.435407 17.0899 0.00210386 16.6532 0.00210386 16.1163V13.373H0.00631078C1.12112 13.373 2.5241 13.373 3.99438 13.3709H8.37789C8.93951 13.3709 9.36229 13.0909 9.57263 12.5853C9.78087 12.0881 9.68201 11.5971 9.29288 11.2022C7.91514 9.80656 6.52268 8.40672 5.22488 7.09881C4.92619 6.79795 4.55389 6.67468 4.14793 6.74154C3.65363 6.82511 3.31077 7.11553 3.15302 7.58353C2.99105 8.07034 3.09833 8.52163 3.46222 8.89144C3.99438 9.43048 4.53075 9.96952 5.09026 10.5295L5.39525 10.8387H0.00210386L0 3.97739C0.00210341 3.44044 0.433303 3.00586 0.963363 3.00586H8.17807C10.1342 3.00586 11.7791 3.64937 13.1106 4.93429C14.4462 6.2213 15.113 7.97006 15.113 10.1826Z" fill="#3C67B1"/>
<path d="M15.113 24.7596C15.113 25.0772 15.1025 25.3885 15.0836 25.6873C15.0646 25.9861 14.9994 26.3789 14.8922 26.8678C14.7828 27.3546 14.6398 27.8038 14.4631 28.2133C14.2864 28.6207 14.0235 29.0511 13.6785 29.4982C13.3335 29.9474 12.9234 30.3214 12.448 30.6202C11.9747 30.9189 11.3711 31.1676 10.6412 31.3681C9.90918 31.5666 9.09095 31.6669 8.18228 31.6669H0.96757C0.435407 31.6669 0.00210386 31.2302 0.00210386 30.6933V29.3018L0 18.5565C0.00210341 18.0195 0.433303 17.585 0.963363 17.585H8.17807C10.1342 17.585 11.7791 18.2285 13.1106 19.5134C13.6827 20.0671 14.1349 20.7043 14.461 21.4272C13.445 21.4272 12.1872 21.4272 10.8578 21.4293H6.06204C5.50043 21.4293 5.07764 21.7072 4.86519 22.2149C4.65906 22.7121 4.75792 23.2052 5.14495 23.598C6.51217 24.9832 7.90673 26.3893 9.21085 27.7014C9.45694 27.95 9.75142 28.0775 10.0732 28.0775C10.1448 28.0775 10.2142 28.0712 10.2878 28.0587C10.7821 27.9751 11.125 27.6847 11.2827 27.2146C11.4447 26.7299 11.3374 26.2786 10.9735 25.9088C10.4413 25.3676 9.90497 24.8307 9.34336 24.2687L9.04047 23.9615H15.0815C15.1025 24.2185 15.113 24.4859 15.113 24.7596Z" fill="#3C67B1"/>
<path d="M18 3H23.1786C26.1108 3 27.5642 4.4855 27.5642 6.49332C27.5642 8.13134 26.5209 9.05273 25.2 9.35985V9.49148C26.6408 9.56461 28.0922 10.7618 28.0922 12.7989C28.0922 14.8965 26.5735 16.4698 23.4752 16.4698H18V3ZM22.8736 8.72679C24.1483 8.72679 25.1137 7.98927 25.1137 6.80672C25.1137 5.76833 24.367 5.012 22.9283 5.012H20.4505V8.72888H22.8736V8.72679ZM23.0861 14.4306C24.8634 14.4306 25.6017 13.6805 25.6017 12.6087C25.6017 11.4053 24.6636 10.4839 23.1513 10.4839H20.4505V14.4306H23.0861Z" fill="#F26727"/>
<path d="M31.7646 16.4677H29.373V3H31.712V8.08329H31.8298C32.2989 6.93834 33.2896 6.23425 34.8482 6.23425C36.9559 6.23425 38.342 7.59648 38.342 10.0347V16.4677H35.9504V10.4045C35.9504 9.04228 35.21 8.24625 33.9564 8.24625C32.6754 8.24625 31.7625 9.08824 31.7625 10.5487V16.4677H31.7646Z" fill="#F26727"/>
<path d="M39.5537 13.6346C39.5537 11.3593 41.4363 10.7743 43.4051 10.5633C45.1951 10.3732 45.9144 10.3397 45.9144 9.65653V9.61683C45.9144 8.62441 45.3065 8.0582 44.198 8.0582C43.0285 8.0582 42.3555 8.64948 42.1178 9.34104L39.8861 9.02555C40.414 7.18487 42.0526 6.23633 44.1854 6.23633C46.1206 6.23633 48.3081 7.03862 48.3081 9.70876V16.4698H46.0091V15.0825H45.9292C45.4937 15.9307 44.543 16.6745 42.9507 16.6745C41.0135 16.6724 39.5537 15.6194 39.5537 13.6346ZM45.9207 12.8448V11.6539C45.6094 11.9046 44.3558 12.0613 43.729 12.147C42.6583 12.2974 41.8591 12.6798 41.8591 13.5949C41.8591 14.4703 42.5721 14.9237 43.5691 14.9237C45.01 14.9237 45.9207 13.9689 45.9207 12.8448Z" fill="#F26727"/>
<path d="M49.972 6.36584H52.2899V8.04983H52.3951C52.7653 6.87981 53.7371 6.22168 54.8982 6.22168C55.1632 6.22168 55.5397 6.24884 55.7564 6.28645V8.47813C55.5523 8.41336 55.0496 8.34024 54.6458 8.34024C53.3311 8.34024 52.3594 9.247 52.3594 10.5298V16.4697H49.9678V6.36584H49.972Z" fill="#F26727"/>
<path d="M55.9375 13.6346C55.9375 11.3593 57.8201 10.7743 59.7888 10.5633C61.5789 10.3732 62.2982 10.3397 62.2982 9.65653V9.61683C62.2982 8.62441 61.6903 8.0582 60.5818 8.0582C59.4123 8.0582 58.7392 8.64948 58.5016 9.34104L56.2698 9.02555C56.7978 7.18487 58.4364 6.23633 60.5692 6.23633C62.5044 6.23633 64.6919 7.03862 64.6919 9.70876V16.4698H62.3908V15.0825H62.3108C61.8754 15.9307 60.9247 16.6745 59.3324 16.6745C57.3973 16.6724 55.9375 15.6194 55.9375 13.6346ZM62.3045 12.8448V11.6539C61.9932 11.9046 60.7396 12.0613 60.1128 12.147C59.0421 12.2974 58.2428 12.6798 58.2428 13.5949C58.2428 14.4703 58.9559 14.9237 59.9529 14.9237C61.3938 14.9237 62.3045 13.9689 62.3045 12.8448Z" fill="#F26727"/>
<path d="M71.4225 8.20848H69.4221V13.4297C69.4221 14.3907 69.9038 14.5997 70.5054 14.5997C70.802 14.5997 71.0733 14.5412 71.2058 14.5077L71.6097 16.3693C71.353 16.455 70.884 16.5866 70.2025 16.6054C68.4062 16.6576 67.0179 15.7237 67.0326 13.8224V8.20848H65.5918V6.3678H67.0326V3.94629H69.4242V6.36571H71.4246V8.20848H71.4225Z" fill="#F26727"/>
<path d="M27.0005 22.7875C26.7292 21.2518 25.5029 20.3701 23.9379 20.3701C21.8303 20.3701 20.3453 21.981 20.3453 24.8747C20.3453 27.8185 21.8429 29.3792 23.9316 29.3792C25.4734 29.3792 26.706 28.5331 27.0005 27.0309L29.3542 27.0434C28.9945 29.4921 26.9647 31.4665 23.9001 31.4665C20.5031 31.4665 18 29.0178 18 24.8768C18 20.7295 20.5346 18.2871 23.9001 18.2871C26.7565 18.2871 28.9588 19.9418 29.3542 22.7917H27.0005V22.7875Z" fill="#F26727"/>
<path d="M30.2734 26.5147C30.2734 23.5332 32.0719 21.54 34.903 21.54C37.7342 21.54 39.5327 23.5332 39.5327 26.5147C39.5327 29.4899 37.7342 31.4768 34.903 31.4768C32.0719 31.4768 30.2734 29.4899 30.2734 26.5147ZM37.2231 26.5084C37.2231 24.7471 36.4554 23.3389 34.9136 23.3389C33.3465 23.3389 32.5788 24.7492 32.5788 26.5084C32.5788 28.2676 33.3465 29.6591 34.9136 29.6591C36.4554 29.6591 37.2231 28.2676 37.2231 26.5084Z" fill="#F26727"/>
<path d="M43.026 31.2867H40.748V21.6654H42.9251V23.3013H43.0387C43.4783 22.2295 44.4732 21.54 45.9203 21.54C47.9144 21.54 49.2353 22.8563 49.229 25.1608V31.2867H46.951V25.5118C46.951 24.2269 46.2464 23.458 45.0706 23.458C43.8695 23.458 43.026 24.2603 43.026 25.6497V31.2867Z" fill="#F26727"/>
<path d="M53.1169 31.2867H50.8389V21.6654H53.0159V23.3013H53.1295C53.5691 22.2295 54.564 21.54 56.0112 21.54C58.0052 21.54 59.3261 22.8563 59.3198 25.1608V31.2867H57.0418V25.5118C57.0418 24.2269 56.3372 23.458 55.1614 23.458C53.9603 23.458 53.1169 24.2603 53.1169 25.6497V31.2867Z" fill="#F26727"/>
<path d="M60.5166 26.5335C60.5166 23.5646 62.3213 21.54 65.0894 21.54C67.4684 21.54 69.5066 23.0255 69.5066 26.4019V27.0976H62.7757C62.7946 28.7461 63.7706 29.7092 65.2409 29.7092C66.2232 29.7092 66.9762 29.283 67.2854 28.4682L69.4119 28.7064C69.0102 30.3799 67.4621 31.4747 65.2093 31.4747C62.2982 31.4747 60.5166 29.5525 60.5166 26.5335ZM67.3232 25.5682C67.3106 24.2582 66.4293 23.3076 65.121 23.3076C63.7622 23.3076 62.8493 24.3418 62.782 25.5682H67.3232Z" fill="#F26727"/>
<path d="M70.3076 26.5147C70.3076 23.5771 72.0934 21.54 74.9246 21.54C77.2825 21.54 78.919 22.9127 79.0767 24.9978H76.8997C76.723 24.0702 76.0499 23.3682 74.9562 23.3682C73.5532 23.3682 72.6151 24.534 72.6151 26.475C72.6151 28.4431 73.5343 29.6257 74.9562 29.6257C75.9553 29.6257 76.7041 29.0302 76.8997 27.996H79.0767C78.9127 30.0373 77.3667 31.4726 74.9372 31.4726C72.0492 31.4747 70.3076 29.4272 70.3076 26.5147Z" fill="#F26727"/>
<path d="M85.0678 23.4188H83.1621V28.3934C83.1621 29.3085 83.6207 29.5091 84.1949 29.5091C84.4789 29.5091 84.7355 29.4527 84.8617 29.4213L85.2445 31.1952C84.9984 31.2767 84.5525 31.402 83.9046 31.4208C82.1945 31.471 80.8715 30.5809 80.8841 28.7716V23.4209H79.5127V21.6658H80.8841V19.3613H83.1621V21.6658H85.0678V23.4188Z" fill="#F26727"/>
</svg>
