<svg width="271" height="220" viewBox="0 0 271 220" fill="none" xmlns="http://www.w3.org/2000/svg">
<g clip-path="url(#clip0_2535_138)">
<path d="M149.751 137.98C151.246 137.676 151.017 136.076 151.792 135.182C155.403 131.013 159.788 128.45 165.271 127.83C165.683 127.785 166.14 127.79 166.428 127.38C170.938 127.255 175.174 125.691 179.539 124.816C180.875 124.551 181.129 124.591 180.885 126.106C180.379 129.284 179.917 132.753 182.842 135.012C185.827 137.321 189.154 136.241 192.258 134.892C193.594 134.312 194.875 133.542 196.082 132.718C199.142 130.624 201.739 128.015 204.108 125.166C204.58 124.601 205.027 124.011 205.508 123.457C206.104 122.772 207.113 122.837 207.49 123.252C207.967 123.772 207.038 124.071 206.656 124.386C205.633 125.236 204.942 126.31 204.47 127.53C204.113 128.455 203.611 129.119 202.697 129.659C199.335 131.648 196.961 134.642 195.094 138.005C193.157 141.489 196.221 145.452 199.087 145.362C200.11 145.327 201.56 144.363 202.002 145.247C202.419 146.077 201.679 147.471 201.515 148.631C200.587 155.093 199.807 161.47 204.376 167.143C210.167 174.335 215.178 182.111 220.631 189.563C226.417 197.475 232.128 205.436 237.874 213.373C237.224 215.137 237.815 216.981 237.537 218.771C237.353 218.791 237.169 218.831 236.99 218.831C211.423 218.836 185.852 218.831 160.285 218.866C159.147 218.866 158.82 218.526 158.849 217.396C159.068 208.025 159.247 198.654 159.421 189.283C159.723 172.945 160.021 156.607 160.3 140.269C160.309 139.8 160.652 138.97 159.793 138.965C158.934 138.955 159.262 139.785 159.252 140.264C159.073 148.961 158.904 157.652 158.755 166.348C158.71 168.827 158.77 168.712 156.326 167.833C150.66 165.788 144.963 163.819 139.242 161.92C137.732 161.42 137.136 161.075 138.174 159.386C142.123 152.939 145.927 146.397 149.751 139.87C150.079 139.315 151.137 138.61 149.761 137.985L149.751 137.98Z" fill="#61CE70"/>
<path d="M237.874 213.373C232.128 205.436 226.417 197.475 220.631 189.563C215.183 182.111 210.167 174.335 204.376 167.143C199.807 161.47 200.592 155.088 201.515 148.631C201.679 147.476 202.419 146.077 202.002 145.247C201.555 144.363 200.105 145.327 199.087 145.362C196.216 145.452 193.157 141.494 195.094 138.005C196.961 134.637 199.34 131.643 202.697 129.659C203.616 129.114 204.118 128.45 204.47 127.53C204.942 126.31 205.633 125.236 206.656 124.386C207.033 124.071 207.967 123.772 207.49 123.252C207.113 122.842 206.104 122.772 205.508 123.457C205.027 124.011 204.58 124.601 204.108 125.166C201.739 128.015 199.137 130.619 196.082 132.718C194.875 133.547 193.599 134.312 192.258 134.892C189.154 136.241 185.827 137.321 182.842 135.012C179.917 132.753 180.379 129.284 180.885 126.106C181.124 124.596 180.87 124.551 179.539 124.816C175.174 125.691 170.938 127.25 166.428 127.38C165.708 125.416 165.256 123.392 164.988 121.318H165.157L164.988 121.353C164.754 118.984 164.749 116.615 164.998 114.251L165.157 114.286H164.993C165.4 111.547 166.284 109.003 168.186 106.944C168.678 106.409 168.578 106.004 168.246 105.514C167.282 104.09 166.915 102.436 166.463 100.821C166.443 100.617 166.418 100.407 166.398 100.197C166.289 99.6869 166.18 99.1722 166.075 98.6674C166.095 98.6324 166.14 98.5874 166.13 98.5574C166.11 98.4775 166.07 98.4025 166.036 98.3225C165.191 93.4296 165.112 88.5368 165.996 83.6389L166.07 83.6039L166.006 83.5589C166.453 81.14 166.443 78.9859 165.524 76.422C163.438 70.6245 165.375 66.5563 170.908 63.3576C174.633 61.1986 178.665 59.9941 182.862 59.2394L182.892 59.2994L182.926 59.2344C186.934 58.5497 190.942 58.4797 194.95 59.1894C195.069 59.2044 195.193 59.2194 195.317 59.2344C202.146 60.6788 208.066 63.5875 211.781 69.8698C213.186 72.2438 213.867 74.9326 214.686 77.5515C214.721 77.7114 214.761 77.8764 214.796 78.0363C214.91 78.4211 215.029 78.806 215.143 79.1858C215.099 79.7755 214.805 80.4153 215.466 80.8751C216.082 82.4794 217.681 83.339 218.381 84.9433C219.519 87.5422 218.982 90.221 219.131 92.8699C219.052 92.9799 219.062 93.0798 219.171 93.1648C219.782 95.6387 222.742 97.7928 225.19 97.5379C227.117 97.338 228.865 97.8477 230.281 99.1472C236.25 104.63 242.195 110.142 248.115 115.68C251 118.379 251.393 123.462 248.686 127.225C247.087 129.449 245.592 131.753 244.052 134.022C240.055 139.61 236.047 145.192 232.064 150.795C231.269 151.914 230.464 153.059 229.178 153.544C227.976 153.993 228.175 154.343 228.89 155.108C232.908 159.411 236.881 163.754 240.869 168.087C241.246 168.497 241.599 168.882 242.24 168.882C247.569 168.867 252.898 168.862 258.227 168.882C259.081 168.882 259.125 168.587 258.827 167.897C257.968 165.928 257.154 163.939 256.314 161.955C253.28 154.763 250.236 147.571 247.211 140.374C246.963 139.78 246.451 139.19 247.002 138.495C248.631 139.26 248.612 141.054 249.188 142.379C252.937 151.055 256.518 159.801 260.143 168.532C260.372 169.082 261.186 169.757 259.801 170.107C259.21 170.256 259.801 170.826 259.95 171.146C262.001 175.524 264.092 179.877 266.148 184.255C267.961 188.119 269.595 192.057 270.687 196.195C270.712 196.43 270.737 196.67 270.762 196.905C271.089 198.854 271.065 200.803 270.722 202.742C270.692 202.772 270.637 202.802 270.642 202.832C270.647 202.912 270.677 202.992 270.697 203.072C269.192 210.314 264.896 215.217 258.222 218.106C257.899 218.246 257.501 218.201 257.139 218.241C256.607 218.116 255.867 218.421 255.947 218.711C256.086 219.21 256.742 218.91 257.189 218.835C260.437 218.835 263.685 218.816 266.933 218.85C267.454 218.855 268.388 218.431 268.408 219.365C268.427 220.345 267.469 219.89 266.972 219.89C256.434 219.915 245.895 219.905 235.361 219.905C235.014 219.855 234.661 219.765 234.308 219.765C210.912 219.755 187.515 219.75 164.119 219.755C163.766 219.755 163.413 219.85 163.061 219.9C146.637 219.88 130.218 219.845 113.794 219.85C93.0201 219.85 72.2507 219.885 51.4814 219.905C51.4714 219.905 51.4615 219.905 51.4516 219.905C51.1039 219.905 50.7513 219.905 50.4037 219.905C50.3937 219.905 50.3838 219.905 50.3739 219.905C34.4318 219.905 18.4848 219.91 2.54275 219.915C2.2994 219.915 2.04611 219.955 1.80773 219.905C1.2217 219.79 0.183724 220.31 0.208556 219.285C0.228421 218.441 1.19686 218.85 1.7233 218.85C18.6487 218.831 35.5741 218.84 52.4995 218.84C71.2028 218.84 89.9062 218.826 108.61 218.82C114.986 218.82 121.363 218.826 127.74 218.82C128.028 218.82 128.505 218.835 128.559 218.706C128.738 218.271 128.276 218.296 128.028 218.186C122.128 215.612 118.771 210.789 116.402 205.026C112.98 196.7 109.474 188.414 106.012 180.107C105.391 178.623 104.845 177.104 104.234 175.614C104.085 175.254 103.827 174.939 103.623 174.605C103.574 175.004 103.484 175.399 103.484 175.799C103.474 183.576 103.484 191.352 103.454 199.124C103.454 199.714 103.901 200.613 102.943 200.848C102.183 201.033 101.751 200.314 101.369 199.794C100.35 198.404 99.1337 197.21 97.9219 196C96.7846 194.866 95.7715 195.121 94.7931 196.16C94.1276 196.87 93.5217 197.645 92.8612 198.364C91.123 200.259 89.3698 200.194 87.4826 198.459C86.2311 197.31 85.5805 195.346 83.4897 195.246C83.3605 195.286 83.2264 195.326 83.0923 195.371C81.8607 196.025 81.1654 197.24 80.2317 198.204C78.1607 200.338 76.0351 200.299 74.1628 198.029C74.0089 197.845 73.9343 197.6 73.7804 197.41C71.5257 194.601 70.8055 194.571 68.3621 197.19C67.6122 197.989 66.8871 198.819 65.8888 199.324C64.5429 200.004 63.2914 200.159 62.2435 198.759C61.8412 198.219 61.3198 197.775 60.8778 197.26C58.335 194.316 57.7887 194.616 55.1366 197.525C52.4151 200.513 51.1437 200.643 48.4072 197.63C47.9155 197.09 47.3494 196.615 46.8428 196.085C45.5168 194.721 44.4043 195.076 43.3912 196.485C43.1428 196.835 42.83 197.14 42.5469 197.46C39.8005 200.588 37.9232 200.568 35.2612 197.4C32.8078 194.471 32.5446 194.466 29.9571 197.27C29.4555 197.815 28.9787 198.379 28.4374 198.879C26.9823 200.219 24.8616 200.034 23.62 198.494C20.2181 194.276 20.0591 194.271 16.2996 198.089C14.0349 200.393 12.689 200.398 10.5833 198.109C6.99759 194.221 7.02738 194.251 3.42676 198.284C2.57255 199.244 1.80276 201.123 0.546269 200.678C-0.42714 200.333 0.178758 198.364 0.178758 197.125C0.153926 157.887 0.158892 118.654 0.163858 79.4157C0.163858 78.0613 0.352581 76.6869 0.198623 75.3475C-0.342711 70.6345 2.19014 66.3264 7.02242 65.1419C7.13168 65.1369 7.24094 65.1269 7.35517 65.1169C8.19945 65.0319 9.0487 64.872 9.89298 64.872C18.3954 64.842 26.8978 64.837 35.3953 64.822C35.6387 65.1918 35.882 65.5667 36.1254 65.9365C27.4193 65.9515 18.7083 66.1414 10.0072 65.9165C4.53923 65.7766 0.655529 70.3596 1.23163 74.8727C1.44022 76.512 1.27633 78.2012 1.27633 79.8655C1.27633 118.119 1.27633 156.372 1.29122 194.626C1.29122 195.88 1.05284 197.155 1.47498 198.394C2.70664 197.86 3.3175 196.67 4.17669 195.75C6.17813 193.611 7.76737 193.571 9.74896 195.646C13.2453 199.309 13.1708 200.154 17.0744 195.661C18.8771 193.586 20.6253 193.616 22.5374 195.586C23.0489 196.115 23.5654 196.645 24.062 197.19C25.8946 199.214 26.6098 199.214 28.4523 197.17C28.944 196.625 29.4357 196.08 29.8975 195.506C31.2087 193.881 33.3442 193.681 34.8788 195.091C35.4201 195.586 35.877 196.175 36.3737 196.72C38.832 199.394 39.423 199.369 41.7125 196.495C44.1858 193.386 46.073 193.516 48.8045 196.44C51.238 199.049 51.4516 199.729 54.2824 196.845C54.7542 196.365 55.1962 195.855 55.6631 195.366C57.2225 193.721 58.9905 193.741 60.55 195.391C61.3496 196.235 62.1938 197.04 63.0034 197.875C64.0662 198.974 65.1091 198.969 66.1471 197.855C66.9417 197 67.7016 196.11 68.5309 195.291C70.0954 193.741 71.8187 193.736 73.3682 195.281C74.1529 196.06 74.8631 196.91 75.618 197.725C76.7652 198.959 77.9223 198.999 79.0596 197.715C79.6258 197.075 80.1821 196.425 80.7134 195.755C82.2977 193.756 84.5475 193.631 86.3404 195.486C86.8072 195.97 87.2442 196.49 87.6614 197.02C89.3748 199.199 90.681 199.189 92.4291 197.05C94.7633 194.201 96.8889 192.407 99.9283 196.515C100.286 197 100.802 197.37 101.249 197.785C101.547 198.059 101.97 198.594 102.153 198.524C102.625 198.344 102.347 197.78 102.352 197.39C102.367 188.873 102.352 180.362 102.372 171.846C102.372 171.081 102.208 170.391 101.88 169.717C99.6254 165.079 97.768 160.276 95.9403 155.458L95.6821 155.163C95.6374 155.243 95.5927 155.318 95.543 155.398C95.2897 156.522 95.1855 157.692 93.8247 158.177C91.4557 159.021 90.6859 158.507 89.8565 155.373C89.8665 154.778 89.8814 154.183 89.8913 153.584C89.9857 152.479 90.5171 151.325 91.4905 151.22C93.6757 150.99 93.8495 149.95 93.179 148.251C93.1989 148.216 93.2436 148.171 93.2386 148.146C93.2138 148.071 93.1641 148.006 93.1294 147.936C92.598 145.882 92.7271 143.793 92.8513 141.709C92.886 141.169 93.1393 140.599 92.2652 140.474C90.3979 140.209 89.9261 138.85 89.8416 137.221C89.8764 136.641 89.9112 136.061 89.9459 135.481C90.9938 132.888 92.8711 131.963 94.4355 133.477C95.4586 134.467 95.7765 133.957 96.3625 133.212C97.3458 131.963 98.3987 130.774 99.6999 129.834C99.9085 129.714 99.9035 129.569 99.7496 129.404C99.2529 127.07 98.7463 124.736 98.2596 122.397C97.6339 119.413 98.359 117.874 101.11 116.83C102.064 116.465 102.407 116.095 102.402 115.04C102.362 101.346 102.402 87.6571 102.347 73.9631C102.337 71.869 101.547 70.0148 99.9929 68.4304C98.2298 66.6412 96.134 66.0165 93.775 66.0015C86.3602 65.9615 78.9454 65.9615 71.5257 65.9465C71.7591 65.5817 71.9875 65.2118 72.221 64.847C79.3874 64.847 86.5539 64.847 93.7204 64.862C99.6006 64.872 103.464 68.7403 103.464 74.6178C103.464 87.8721 103.509 101.126 103.42 114.376C103.41 116.125 103.951 116.4 105.456 116.25C109.657 115.83 113.874 115.515 118.08 115.155H118.095C119.377 115.055 120.653 114.93 121.939 114.86C125.729 114.66 128.177 116.505 129.041 120.223C129.419 121.837 129.741 123.467 130.089 125.081C130.064 125.116 130.02 125.156 130.025 125.186C130.039 125.266 130.079 125.341 130.109 125.421C131.947 134.167 133.779 142.918 135.617 151.664L135.622 151.704C136.168 155.458 134.41 157.612 130.581 157.872C126.94 158.122 126.926 158.127 128.366 161.415C130.144 165.479 131.942 169.527 133.729 173.58C133.819 173.785 133.873 174.01 133.943 174.23C134.102 174.06 134.32 173.915 134.415 173.71C135.875 170.546 137.275 167.358 138.79 164.224C139.282 163.21 138.84 162.985 138.045 162.705C135.388 161.765 135.383 161.635 136.799 159.261C140.97 152.269 145.112 145.257 149.274 138.255C149.359 138.115 149.577 138.06 149.741 137.965C151.117 138.595 150.059 139.295 149.731 139.85C145.907 146.377 142.108 152.919 138.154 159.366C137.117 161.055 137.712 161.4 139.222 161.9C144.939 163.799 150.635 165.768 156.307 167.813C158.755 168.697 158.695 168.807 158.735 166.328C158.889 157.632 159.053 148.941 159.232 140.244C159.242 139.765 158.909 138.935 159.773 138.945C160.632 138.955 160.29 139.78 160.28 140.249C160.002 156.587 159.704 172.925 159.401 189.263C159.227 198.634 159.053 208.005 158.829 217.376C158.805 218.506 159.127 218.845 160.265 218.845C185.832 218.811 211.404 218.816 236.97 218.811C237.154 218.811 237.338 218.771 237.517 218.751C240.397 218.776 243.273 218.806 246.153 218.816C246.411 218.816 246.67 218.711 246.928 218.651C246.739 218.521 246.565 218.296 246.367 218.271C242.841 217.831 240.462 215.402 237.859 213.353L237.874 213.373ZM92.3 134.227C91.4259 134.697 91.2968 135.556 91.1577 136.416L91.0783 136.476L91.1528 136.531C91.2819 137.186 91.3117 137.88 91.56 138.485C91.8481 139.185 92.7072 139.62 93.1691 139.08C93.8396 138.295 94.3859 137.216 94.2319 136.106C94.1078 135.217 93.8545 134.217 92.6129 134.162C92.5086 134.182 92.4043 134.207 92.3 134.227ZM94.1723 155.763C94.212 155.743 94.2865 155.723 94.2865 155.703C94.2865 155.613 94.2617 155.528 94.2468 155.438C94.2419 154.828 94.3163 154.208 94.212 153.619C94.0829 152.894 93.8346 152.284 92.8562 152.209C91.8481 152.134 91.6444 152.739 91.3862 153.434C91.1677 154.023 91.1478 154.613 91.2422 155.228C91.3763 156.093 91.5103 156.992 92.5582 157.167C93.5763 157.337 93.8346 156.467 94.1773 155.763H94.1723ZM226.377 128.769C226.447 130.479 227.336 132.048 227.167 133.807C226.72 138.415 225.727 142.913 224.306 147.306C223.685 149.231 224.689 151.989 226.879 152.769C228.393 153.309 229.67 152.084 230.504 150.92C236.379 142.688 242.195 134.417 248.001 126.141C250.29 122.882 249.923 119.034 246.997 116.275C241.415 111.002 235.798 105.764 230.142 100.572C226.427 97.158 222.762 98.5474 220.85 101.991C219.002 105.32 217.065 108.603 215.228 111.942C213.46 115.16 211.771 118.419 210.048 121.662C209.586 121.962 209.104 122.632 209.452 122.872C209.988 123.242 210.241 122.497 210.45 122.032C213.122 119.828 215.754 119.863 218.635 121.812C220.974 123.392 223.099 125.191 225.141 127.115C225.339 127.835 225.563 128.53 226.382 128.779L226.377 128.769ZM183.09 116.135C182.723 119.458 182.703 122.822 181.983 126.111V126.131C181.913 126.495 181.849 126.86 181.784 127.225C181.461 127.67 181.546 128.155 181.665 128.634C181.68 133.098 182.519 134.327 186.1 135.142L186.15 135.212L186.184 135.142C186.969 135.062 187.764 135.042 188.533 134.892C192.799 134.067 195.993 131.398 199.191 128.679C203.149 125.316 206.015 121.582 204.436 115.945C204.386 115.77 204.406 115.58 204.396 115.395C204.143 110.952 204.148 106.499 203.552 102.081L203.616 102.036L203.542 101.996C203.11 101.221 203.313 100.482 203.726 99.8019C204.421 98.6624 204.744 97.3979 205.061 96.1285L205.101 96.0235L204.992 95.9736C203.894 95.8786 202.802 95.7886 201.709 95.6787C201.342 95.6387 200.944 95.5537 201.054 95.024C201.158 94.5292 201.53 94.5942 201.913 94.6191C202.827 94.6841 203.755 94.829 204.654 94.7291C207.212 94.4492 209.477 93.6745 210.222 90.7658C211.086 87.4123 210.4 84.2386 209.01 81.2049C208.449 79.9755 207.321 79.7705 206.06 80.4353C203.308 81.8796 201.511 84.2886 199.842 86.7775C199.276 87.6222 199.082 88.9016 197.9 88.9116C196.494 88.9216 196.738 87.2323 195.983 86.4976C195.844 86.3627 195.938 86.0178 195.869 85.7879C194.905 82.6393 194.498 82.3045 191.2 81.9846C190.53 81.9196 189.854 81.9296 189.184 81.8996C185.559 81.7497 181.973 82.3095 178.367 82.5244C175.194 82.7143 171.951 82.9842 169.08 81.3449C167.615 80.5102 167.526 81.1699 167.317 82.2645C166.145 88.4018 166.219 94.5192 167.58 100.622C169.145 107.868 175.526 113.456 183.691 113.306C184.277 113.286 184.863 113.266 185.449 113.241C189.844 112.691 193.793 111.032 197.369 108.418C197.766 108.128 198.307 107.514 198.759 108.053C199.385 108.798 198.516 109.103 198.064 109.413C194.652 111.752 190.947 113.411 186.86 114.146C186.75 114.061 186.656 114.071 186.567 114.181C185.37 114.755 182.991 113.191 183.1 116.12V116.14L183.09 116.135ZM115.433 151.934C113.154 152.494 110.825 152.394 108.51 152.409C107.984 152.409 106.881 152.754 106.956 151.754C107.01 151.05 107.959 151.385 108.53 151.38C111.808 151.35 115.116 151.39 118.145 149.89C121.09 148.431 121.353 145.652 118.855 143.448C118.582 143.263 118.329 143.243 118.11 143.538C117.122 143.863 116.129 144.183 115.14 144.508H115.12C112.329 145.012 109.513 144.947 106.702 144.827C106.226 144.807 105.376 144.992 105.431 144.188C105.486 143.393 106.26 143.723 106.767 143.723C109.861 143.738 112.96 144.053 116.004 143.013C118.398 142.194 119.992 140.429 119.655 138.55C119.238 136.211 117.052 134.827 114.425 135.117C110.353 135.561 106.275 135.951 102.193 136.301C101.657 136.346 100.49 136.796 100.653 135.766C100.907 134.167 100.246 132.798 100.092 131.318C99.978 131.083 99.8389 131.113 99.69 131.283C95.0216 135.342 93.2833 140.504 93.9935 146.592L93.9488 146.727L94.0432 146.832C94.3064 148.126 94.5498 149.4 95.0961 150.64C96.8591 154.653 98.5129 158.716 100.192 162.77C102.878 169.272 105.53 175.794 108.232 182.291C111.326 189.743 114.619 197.115 117.509 204.647C119.65 210.234 122.967 214.697 128.331 217.221C135.776 220.725 144.571 218.686 150.357 212.708C152.84 210.139 153.992 206.901 155.323 203.762C157.057 199.669 158.785 195.611 158.397 190.883C158.065 186.844 158.462 182.741 158.536 178.668C158.904 177.583 158.69 176.489 158.596 175.399C158.636 174.355 158.556 173.285 158.74 172.266C159.093 170.331 157.99 169.602 156.456 169.082C151.539 167.428 146.602 165.823 141.735 164.034C140.548 163.599 140.106 163.834 139.664 164.839C138.626 167.203 137.752 169.667 136.446 171.871C134.842 174.59 134.688 177.124 136.352 179.772C136.64 180.232 137.241 180.767 136.511 181.117C135.815 181.447 135.696 180.577 135.488 180.117C132.706 173.995 129.94 167.868 127.174 161.74C126.187 159.554 124.514 158.503 122.153 158.587H122.133C119.585 158.362 117.46 159.776 115.14 160.421H115.13C114.614 160.551 114.097 160.676 113.586 160.806C113.248 160.841 112.905 160.876 112.568 160.906C109.762 161.37 106.961 161.265 104.155 160.906C104.045 160.891 103.941 160.881 103.832 160.866C103.549 160.791 103.152 160.766 103.231 160.351C103.34 159.771 103.862 159.886 104.264 159.891C106.583 159.906 108.908 160.076 111.217 159.936C114.187 159.761 117.077 159.171 119.357 156.977C120.996 155.398 120.216 153.694 119.461 152.134C118.746 150.665 117.489 151.45 116.407 151.749C116.114 151.829 115.811 151.874 115.513 151.934L115.478 151.874L115.448 151.939L115.433 151.934ZM205.171 128.644L205.111 128.789L205.245 128.864C206.099 129.089 206.954 129.319 207.808 129.544L207.843 129.619L207.887 129.554C208.672 129.689 209.382 130.049 210.117 130.284C212.238 130.968 214.016 131.923 214.736 134.227C214.835 134.552 215.233 134.852 214.741 135.147C214.334 135.392 213.877 135.082 213.792 134.837C212.6 131.508 209.516 131.273 206.805 130.429H206.795C204.987 129.819 203.348 129.979 201.953 131.438C201.232 132.193 200.353 132.803 199.698 133.602C197.83 135.871 195.278 137.805 195.705 141.289L195.65 141.379L195.754 141.399C196.509 144.238 199.593 144.902 201.744 143.563C203.194 142.658 204.545 141.589 206.005 140.699C206.631 140.319 207.252 138.865 207.997 139.91C208.573 140.714 207.113 141.094 206.566 141.644C205.399 142.813 203.437 143.263 203.338 145.367V145.382C202.558 148.671 202.047 151.994 201.898 155.373C201.873 155.418 201.818 155.463 201.823 155.503C201.833 155.598 201.873 155.693 201.898 155.783C201.898 156.253 201.898 156.722 201.898 157.197V157.292C202.062 159.361 202.047 161.6 203.199 163.304C206.606 168.347 210.261 173.225 213.817 178.163C220.72 187.759 227.683 197.31 234.507 206.961C237.249 210.839 239.955 214.792 244.475 216.601C255.103 220.855 266.724 215.057 269.515 203.387C270.841 197.85 268.83 192.927 266.709 188.094C264.231 182.451 261.46 176.939 258.773 171.391C258.43 170.686 258.082 169.977 256.955 170.002C252.664 170.092 248.368 170.037 244.077 170.052C243.749 170.052 243.238 169.832 243.134 170.276C243.079 170.506 243.456 170.871 243.69 171.126C245.766 173.38 247.862 175.619 249.923 177.883C250.211 178.203 250.772 178.608 250.221 179.118C249.724 179.577 249.332 179.183 248.989 178.803C245.423 174.859 241.877 170.901 238.291 166.983C233.499 161.75 228.716 156.502 223.834 151.355C222.608 150.065 222.33 148.896 223.01 147.301C224.043 144.872 224.753 142.314 225.145 139.72C225.583 136.816 226.601 134.002 225.488 130.888C223.675 125.821 219.439 123.677 215.233 121.403C214.11 120.798 213.092 121.577 212.183 122.177C211.701 122.492 210.922 122.792 211.006 123.442C211.096 124.146 211.935 123.996 212.476 124.196C214.979 125.136 217.398 126.24 218.754 128.764C218.893 129.019 219.35 129.524 218.734 129.859C218.391 130.049 218.158 129.874 217.989 129.579C216.703 127.305 214.373 126.6 212.292 125.351C208.851 123.282 205.945 125.446 205.191 128.649L205.171 128.644ZM157.797 210.024H158.05C158.05 207.685 158.07 205.351 158.035 203.012C158.03 202.513 158.343 201.663 157.752 201.573C157.121 201.478 157.086 202.353 156.903 202.892C154.633 209.54 151.355 215.367 144.477 218.231C144.268 218.316 143.935 218.361 144.055 218.671C144.099 218.786 144.452 218.826 144.665 218.826C148.698 218.83 152.736 218.801 156.768 218.845C157.787 218.855 157.816 218.321 157.811 217.576C157.797 215.057 157.806 212.538 157.806 210.019L157.797 210.024Z" fill="#060246"/>
<path d="M72.2309 64.867C71.9975 65.2318 71.769 65.6017 71.5356 65.9665C70.8701 66.9211 70.2344 67.9057 69.5292 68.8253C60.7933 80.2154 42.3333 78.6261 36.1353 65.9565C35.892 65.5867 35.6486 65.2118 35.4053 64.842C31.9735 56.0308 33.1952 48.0692 40.0438 41.4121C46.7683 34.8799 57.0785 34.1852 64.9949 39.438C72.5885 44.4758 75.8315 54.3965 72.7325 63.1078C72.5289 63.6825 72.3948 64.2822 72.2309 64.872V64.867ZM64.5281 51.2029C63.8278 50.6731 63.0977 50.2883 62.5912 49.7035C61.4042 48.3291 60.6245 48.759 59.5468 49.9384C57.2225 52.4723 54.7195 54.8413 52.3009 57.2853C50.9964 58.608 49.6885 58.6164 48.3774 57.3103C46.1078 55.0512 46.1426 55.0812 43.9772 57.4602C43.3167 58.1849 43.3664 58.6247 44.0269 59.2694C45.8297 61.0287 47.6275 62.7979 49.3459 64.6371C50.1802 65.5367 50.6769 65.2668 51.4069 64.5221C55.3651 60.4839 59.363 56.4906 63.3461 52.4823C63.6391 52.1875 63.9122 51.8676 64.5281 51.2029Z" fill="#61CE70"/>
<path d="M247.007 138.495C246.456 139.19 246.968 139.785 247.216 140.374C250.246 147.571 253.285 154.763 256.319 161.955C257.154 163.934 257.973 165.923 258.832 167.897C259.13 168.587 259.086 168.887 258.231 168.882C252.903 168.857 247.574 168.862 242.245 168.882C241.604 168.882 241.251 168.497 240.874 168.087C236.886 163.759 232.913 159.416 228.895 155.108C228.18 154.343 227.986 153.993 229.183 153.544C230.474 153.059 231.279 151.909 232.069 150.795C236.047 145.192 240.055 139.61 244.052 134.022C245.667 135.092 246.426 136.736 247.002 138.5L247.007 138.495Z" fill="#61CE70"/>
<path d="M243.898 87.1374C242.503 86.7975 241.202 86.6126 240.492 85.0333C239.821 83.5339 238.763 82.2095 237.889 80.8001C236.533 78.626 237.179 76.282 239.379 75.0126C240.536 74.3479 241.559 73.4483 242.712 72.7786C245.249 71.3042 247.872 71.9889 249.376 74.4628C250.171 75.7723 250.985 77.0767 251.686 78.4411C252.808 80.6302 252.237 82.6643 250.191 83.9987C248.209 85.2882 246.322 86.7775 243.903 87.1374H243.898Z" fill="#FDD249"/>
<path d="M130.198 71.5791C137.266 72.0789 141.343 76.0172 142.957 82.7893L142.962 82.8442C144.333 92.64 134.807 100.162 125.485 97.7328C121.294 96.6383 117.057 90.9058 116.769 86.0029C116.337 78.6461 121.572 72.5837 129.121 71.694C129.498 71.844 129.856 71.794 130.198 71.5791ZM131.182 95.9636C137.206 95.9236 142.033 91.0057 142.038 84.8884C142.043 78.1113 136.242 72.7536 130.144 72.6886C124.224 72.6237 119.208 77.8464 119.292 83.8988C119.387 90.4759 124.83 96.0036 131.182 95.9636Z" fill="#060246"/>
<path d="M124.1 31.6813C124.144 32.9358 124.189 34.1902 124.239 35.4397C124.139 35.5247 124.134 35.6146 124.229 35.7096C123.553 40.2526 120.931 43.3063 117.107 45.6303C110.626 49.5686 102.739 46.5799 99.4317 40.3626C96.7499 35.3297 97.9468 28.5727 101.557 25.3291C103.688 23.4149 105.938 21.6407 108.873 21.1009L108.927 21.0959C109.3 21.0259 109.672 20.9559 110.045 20.891C110.358 21.1309 110.656 21.0659 110.939 20.826C117.44 20.951 122.654 25.0342 124.1 31.6313L124.03 31.6563L124.1 31.6813ZM112.29 45.1905C118.354 45.2555 123.121 40.4325 123.201 34.1552C123.285 27.6031 117.892 22.0055 111.445 21.9505C105.406 21.9005 100.559 26.8234 100.529 33.0407C100.499 39.6329 105.809 45.1205 112.29 45.1905Z" fill="#060246"/>
<path d="M138.845 38.3684C139.793 31.4664 147.675 25.9888 154.906 28.8175C161.05 31.2215 163.91 36.0194 163.945 40.9323C163.98 45.2604 160.757 51.1229 156.297 52.3974C155.914 52.5073 155.577 52.7922 155.219 52.9971H155.224C146.394 55.581 136.968 47.8943 138.835 38.3984L138.84 38.3684H138.845ZM161.387 40.0577C161.596 34.1902 157.25 29.4073 151.479 29.1524C145.43 28.8875 139.962 34.0253 139.719 40.2126C139.476 46.365 143.95 51.3028 150.168 51.3928C155.606 51.4728 161.283 46.8048 161.392 40.0577H161.387Z" fill="#060246"/>
<path d="M215.411 52.1575C213.668 52.1175 210.912 48.4141 211.011 46.245C211.086 44.6607 214.94 41.4071 216.752 41.3971C218.679 41.3871 221.52 45.1255 221.411 47.5295C221.331 49.2787 217.537 52.2075 215.411 52.1625V52.1575Z" fill="#FDD249"/>
<path d="M151.792 5.10779C151.747 6.90201 148.753 9.30597 146.592 9.28099C145.063 9.26099 142.361 5.89745 142.406 4.06324C142.445 2.47393 145.947 -0.104961 147.923 -6.4862e-06C149.408 0.079959 151.832 3.28358 151.792 5.10279V5.10779Z" fill="#FDD249"/>
<path d="M10.0023 30.097C10.0321 31.1865 6.75429 33.8604 5.44317 33.8204C4.14198 33.7804 2.18026 31.0016 2.1455 29.1474C2.12563 27.9179 4.78761 25.8938 6.45631 25.8688C7.91642 25.8488 9.9576 28.2778 10.0023 30.092V30.097Z" fill="#FDD249"/>
<path d="M75.3498 25.8538C73.706 25.8538 71.8734 23.6398 71.8287 21.6007C71.8038 20.2962 74.4559 18.1522 76.1047 18.1422C77.2718 18.1372 79.6308 21.0159 79.5861 22.3853C79.5315 23.9447 77.2072 25.8488 75.3498 25.8488V25.8538Z" fill="#FDD249"/>
<path d="M214.806 78.0313C214.766 77.8664 214.731 77.7064 214.696 77.5465C214.736 77.7114 214.771 77.8714 214.806 78.0313Z" fill="#61CE70"/>
<path d="M110.938 20.831C110.655 21.0659 110.358 21.1359 110.045 20.896C110.348 20.876 110.645 20.856 110.938 20.831Z" fill="#61CE70"/>
<path d="M130.198 71.5791C129.855 71.794 129.498 71.839 129.121 71.694C129.453 71.3992 129.815 71.4142 130.198 71.5791Z" fill="#61CE70"/>
<path d="M166.404 100.187C166.429 100.397 166.449 100.607 166.469 100.811C166.249 100.622 166.259 100.412 166.404 100.187Z" fill="#61CE70"/>
<path d="M219.176 93.1648C219.066 93.0798 219.056 92.9799 219.136 92.8699C219.181 92.9449 219.226 93.0148 219.256 93.0898C219.261 93.0998 219.201 93.1398 219.176 93.1698V93.1648Z" fill="#61CE70"/>
<path d="M166.041 98.3126C166.076 98.3875 166.116 98.4675 166.136 98.5475C166.146 98.5774 166.101 98.6224 166.081 98.6574C166.041 98.5774 165.991 98.5025 165.966 98.4175C165.956 98.3925 166.011 98.3475 166.041 98.3126Z" fill="#61CE70"/>
<path d="M124.229 35.7096C124.139 35.6146 124.144 35.5197 124.239 35.4397C124.269 35.5097 124.304 35.5796 124.324 35.6496C124.324 35.6596 124.259 35.6896 124.229 35.7146V35.7096Z" fill="#61CE70"/>
<path d="M195.322 59.2294C195.198 59.2144 195.074 59.1994 194.955 59.1844C195.079 59.1994 195.203 59.2144 195.322 59.2294Z" fill="#61CE70"/>
<path d="M83.0973 195.381C83.2313 195.341 83.3652 195.301 83.4943 195.256C83.3603 195.296 83.2263 195.336 83.0973 195.381Z" fill="#61CE70"/>
<path d="M7.35988 65.1319C7.25071 65.1419 7.13658 65.1469 7.0274 65.1568C7.14154 65.1469 7.25071 65.1419 7.35988 65.1319Z" fill="#61CE70"/>
<path d="M130.114 125.436C130.085 125.356 130.045 125.281 130.03 125.201C130.025 125.171 130.07 125.131 130.095 125.096C130.129 125.176 130.174 125.251 130.194 125.331C130.199 125.356 130.144 125.401 130.114 125.436Z" fill="#61CE70"/>
<path d="M135.627 151.719L135.622 151.684L135.706 151.699L135.627 151.719Z" fill="#61CE70"/>
<path d="M142.967 82.8438L142.957 82.7943L143.046 82.819L142.967 82.8438Z" fill="#61CE70"/>
<path d="M164.993 121.352L165.156 121.313L164.988 121.318L164.993 121.352Z" fill="#61CE70"/>
<path d="M166.011 83.5489L166.075 83.5935L166.001 83.6282L165.917 83.5836L166.011 83.5489Z" fill="#61CE70"/>
<path d="M182.931 59.2288L182.892 59.2932L182.867 59.2288L182.897 59.1595L182.931 59.2288Z" fill="#61CE70"/>
<path d="M118.105 115.174H118.09L118.095 115.09L118.105 115.174Z" fill="#61CE70"/>
<path d="M155.229 52.9921L155.224 52.9971L155.239 53.0862L155.229 52.9921Z" fill="#61CE70"/>
<path d="M164.998 114.28L165.161 114.285L165.003 114.246L164.998 114.28Z" fill="#61CE70"/>
<path d="M138.845 38.3684L138.84 38.3981L138.755 38.3783L138.845 38.3684Z" fill="#61CE70"/>
<path d="M124.1 31.6809L124.03 31.6561L124.1 31.6363L124.169 31.6611L124.1 31.6809Z" fill="#61CE70"/>
<path d="M108.927 21.0952L108.873 21.1001L108.903 21.0159L108.927 21.0952Z" fill="#61CE70"/>
<path d="M36.1353 65.9565C42.3383 78.631 60.7933 80.2204 69.5292 68.8253C70.2394 67.9007 70.8701 66.9211 71.5356 65.9665C78.9504 65.9815 86.3701 65.9765 93.7849 66.0215C96.144 66.0365 98.2398 66.6612 100.003 68.4504C101.557 70.0298 102.347 71.8889 102.357 73.983C102.412 87.6771 102.372 101.366 102.412 115.06C102.412 116.12 102.074 116.49 101.12 116.85C98.3689 117.899 97.6438 119.433 98.2696 122.417C98.7563 124.756 99.2628 127.09 99.7595 129.419C99.7197 129.459 99.6452 129.499 99.6452 129.539C99.6452 129.644 99.685 129.749 99.7098 129.854C98.4086 130.794 97.3558 131.983 96.3724 133.232C95.7864 133.977 95.4685 134.482 94.4455 133.497C92.8811 131.983 91.0038 132.908 89.9559 135.501C89.8367 135.471 89.7125 135.447 89.5933 135.422C89.196 133.687 88.1878 132.623 86.3552 132.958C84.6071 133.277 83.9019 134.582 83.9416 136.316C83.9813 138.07 83.9962 139.9 86.1467 140.449C87.5571 140.809 88.6596 140.234 89.201 138.81C89.3947 138.305 89.494 137.766 89.638 137.241L89.7423 137.306L89.8466 137.241C89.936 138.87 90.4028 140.229 92.2702 140.494C93.1443 140.619 92.891 141.189 92.8562 141.729C92.7271 143.813 92.6029 145.902 93.1294 147.956C93.0996 147.986 93.035 148.031 93.04 148.046C93.0797 148.126 93.1343 148.196 93.179 148.271C93.8495 149.97 93.6757 151.01 91.4905 151.24C90.5121 151.34 89.9807 152.499 89.8913 153.599C89.7969 153.574 89.7026 153.569 89.6032 153.584C89.2109 151.66 88.307 150.445 86.102 151.05C85.9927 151.055 85.8884 151.06 85.7791 151.065C83.9614 152.159 83.2066 155.533 84.4084 157.202C85.0342 158.067 85.7345 158.791 86.9462 158.527C88.6497 158.162 89.4046 157.002 89.6082 155.363L89.7274 155.418L89.8565 155.383C90.6859 158.517 91.4607 159.031 93.8296 158.187C95.1904 157.702 95.2947 156.532 95.548 155.408C95.6821 155.428 95.8112 155.448 95.9453 155.468C97.7729 160.286 99.6353 165.089 101.885 169.727C102.213 170.401 102.382 171.091 102.377 171.856C102.362 180.372 102.377 188.883 102.357 197.4C102.357 197.79 102.63 198.359 102.158 198.534C101.974 198.604 101.552 198.069 101.254 197.795C100.802 197.38 100.291 197.01 99.9333 196.525C96.8939 192.417 94.7633 194.211 92.4341 197.06C90.6859 199.199 89.3798 199.209 87.6664 197.03C87.2492 196.5 86.8121 195.98 86.3453 195.496C84.5475 193.646 82.3027 193.766 80.7184 195.765C80.187 196.435 79.6308 197.085 79.0646 197.725C77.9273 199.009 76.7701 198.969 75.6229 197.735C74.868 196.925 74.1578 196.07 73.3732 195.291C71.8236 193.746 70.1003 193.751 68.5359 195.301C67.7065 196.12 66.9467 197.01 66.152 197.865C65.1141 198.979 64.0711 198.984 63.0083 197.885C62.1988 197.045 61.3545 196.245 60.5549 195.401C58.9955 193.751 57.2275 193.731 55.668 195.376C55.2062 195.865 54.7592 196.375 54.2874 196.855C51.4566 199.739 51.243 199.059 48.8095 196.45C46.078 193.526 44.1908 193.396 41.7175 196.505C39.433 199.379 38.837 199.404 36.3786 196.73C35.877 196.185 35.4201 195.596 34.8838 195.101C33.3492 193.691 31.2136 193.891 29.9025 195.516C29.4406 196.085 28.949 196.63 28.4573 197.18C26.6148 199.224 25.8996 199.224 24.067 197.2C23.5704 196.655 23.0539 196.125 22.5423 195.596C20.6353 193.631 18.8821 193.596 17.0793 195.671C13.1758 200.164 13.2503 199.324 9.75393 195.656C7.77732 193.581 6.18311 193.621 4.18166 195.76C3.32248 196.68 2.71162 197.87 1.47996 198.404C1.05285 197.17 1.2962 195.89 1.2962 194.636C1.2813 156.382 1.2813 118.129 1.2813 79.8755C1.2813 78.2112 1.44519 76.522 1.23661 74.8827C0.665473 70.3696 4.54421 65.7866 10.0122 65.9265C18.7133 66.1514 27.4243 65.9615 36.1303 65.9465L36.1353 65.9565ZM80.1423 121.023C79.6606 121.208 78.8858 121.168 78.9603 121.902C79.0249 122.587 79.7947 122.432 80.1473 122.312C80.8873 122.062 83.738 123.382 81.5577 120.613C81.3789 120.383 81.513 119.893 81.518 119.523C81.5329 118.294 81.5627 117.064 81.5627 115.835C81.5627 115.43 81.6223 114.8 80.9916 114.945C80.2168 115.12 79.4967 115.61 79.1341 116.325C78.7865 117.009 79.3676 117.129 79.9139 117.119C79.9884 117.274 80.0728 117.404 80.2516 117.219C80.2466 118.454 80.2416 119.683 80.2367 120.918L80.1224 120.888L80.1423 121.023ZM79.1788 175.394L79.0845 175.424L79.154 175.479C79.0149 175.784 78.9603 176.084 79.2235 176.354L79.1739 176.409L79.2285 176.364C80.2267 177.009 80.3261 176.099 80.5893 175.544C81.1008 174.45 81.667 173.37 82.0395 172.231C82.3921 171.146 84.2942 170.456 83.4648 169.417C82.9582 168.777 81.1753 169.097 79.9685 169.102C79.2434 169.102 77.9869 168.727 77.9323 169.607C77.8677 170.601 79.1441 170.276 79.8344 170.296C81.0214 170.331 81.7465 170.356 80.7581 171.791C80.0132 172.865 79.447 174.085 79.1788 175.404V175.394ZM80.4701 157.262C80.2565 157.147 80.043 157.027 79.8294 156.912C79.3576 156.657 78.9454 155.833 78.3345 156.667C77.7783 157.427 78.6822 157.542 78.9603 157.912C79.8791 159.131 81.0512 158.612 82.0196 158.127C83.1122 157.587 83.4251 156.537 83.0725 155.313C82.9533 154.888 82.4864 154.683 82.6603 154.028C83.2711 151.694 82.2928 150.69 79.9983 151.065C79.2682 151.185 78.4935 151.565 78.6127 152.214C78.7517 152.974 79.5165 152.634 80.0579 152.364C80.629 152.079 81.2598 152.179 81.4584 152.749C81.6471 153.284 81.1107 153.569 80.5992 153.694C80.1274 153.804 79.5314 153.859 79.6357 154.533C79.7053 154.973 80.0728 155.243 80.5943 155.158C81.3392 155.033 81.6124 155.683 81.7117 156.128C81.8706 156.837 81.2846 157.152 80.6439 157.277L80.5645 157.182L80.4651 157.252L80.4701 157.262ZM81.3144 134.267C82.4666 135.377 81.374 135.856 80.6638 136.301C80.0976 136.651 79.5563 136.991 79.0547 137.451C78.2898 138.15 78.3544 139.045 78.568 139.83C78.8014 140.684 79.6556 140.364 80.3062 140.339C80.7929 140.319 81.2846 140.329 81.7713 140.314C82.3325 140.299 83.2215 140.679 83.2463 139.805C83.2662 138.935 82.3275 139.075 81.6819 138.955C81.1356 138.855 80.2863 139.405 80.0976 138.675C79.9387 138.06 80.7879 137.79 81.2895 137.466C81.4932 137.336 81.6869 137.181 81.8954 137.051C82.8639 136.436 83.296 135.551 83.1867 134.412C83.0973 133.492 82.2977 133.317 81.6422 133.088C80.5347 132.698 79.6308 133.242 78.8064 133.917C78.563 134.117 78.3792 134.387 78.558 134.717C78.7666 135.102 79.0994 135.182 79.4768 134.957C79.8443 134.737 80.2019 134.507 80.5645 134.277C80.8177 134.277 81.0661 134.272 81.3193 134.267H81.3144ZM95.5083 119.828H95.5877L95.5083 119.818C95.5232 119.084 95.6324 118.339 95.543 117.619C95.3692 116.255 94.7881 115.145 93.2436 114.95C91.7239 114.76 90.4823 115.46 90.08 116.805C89.6132 118.374 89.6479 120.113 90.6412 121.577C91.6693 123.092 94.3461 122.827 95.0613 121.183C95.25 120.748 95.3642 120.278 95.5132 119.828H95.5083ZM89.9161 171.346C89.8069 171.356 89.7026 171.366 89.5933 171.376C89.3301 169.982 88.61 169.027 87.135 168.822C85.7891 168.637 84.7561 169.367 84.2843 170.426C83.6883 171.766 83.8174 173.27 84.2843 174.725C84.5674 175.604 84.9696 176.244 85.953 176.349C87.0108 176.464 88.0935 176.549 88.7838 175.534C89.1463 174.999 89.3152 174.33 89.5734 173.73C89.7026 173.755 89.8317 173.775 89.9608 173.8C89.9857 175.244 90.8895 176.024 92.1212 176.344C93.184 176.619 94.222 176.314 94.8577 175.319C95.4288 174.42 95.5579 173.39 95.5381 172.321C95.5083 170.751 95.2699 169.287 93.4721 168.892C91.5004 168.457 90.4177 169.527 89.9161 171.346ZM89.5387 120.238C89.4841 118.864 89.4791 117.464 87.7558 117.019C87.1449 116.865 85.948 117.279 86.0126 116.78C86.1218 115.91 87.2194 116.525 87.865 116.34C88.2127 116.24 88.5851 116.215 88.898 116.055C89.0569 115.975 89.2109 115.65 89.1712 115.475C89.1314 115.3 88.8583 115.055 88.6845 115.055C87.3485 115.055 85.9728 114.945 84.7014 115.255C84.4134 115.325 84.4382 116.88 84.4035 117.759C84.3836 118.274 84.0608 118.934 84.6418 119.283C85.2527 119.658 85.6301 119.069 86.0424 118.724C86.6731 118.204 87.4478 118.104 87.9296 118.714C88.3964 119.303 88.2971 120.143 87.7707 120.768C87.1151 121.548 86.3453 121.682 85.5308 120.993C85.1037 120.633 84.5276 120.473 84.2147 120.878C83.7231 121.503 84.473 121.857 84.8206 122.167C86.3403 123.522 88.5653 122.607 89.5188 120.278L89.5883 120.293L89.5437 120.238H89.5387ZM64.3542 109.053C64.7267 109.308 65.1041 109.308 65.4766 109.053C66.45 109.053 67.4234 109.053 68.3919 109.053C68.521 109.273 68.6501 109.288 68.7793 109.053C69.1319 109.033 69.4398 108.848 69.3156 108.498C69.0276 107.664 68.2727 108.063 67.7463 108.063C54.8089 108.038 41.8665 108.033 28.9291 108.073C28.1841 108.073 26.7737 107.549 26.7936 108.578C26.8085 109.498 28.2239 108.883 29.0036 109.028H29.0681C40.8285 109.033 52.5938 109.043 64.3542 109.053ZM26.9574 156.442C29.5002 156.957 32.0678 156.637 34.6206 156.647C45.7154 156.692 56.8103 156.672 67.9002 156.657C68.4564 156.657 69.3057 156.952 69.405 156.073C69.4944 155.298 68.7246 155.548 68.3025 155.548C54.8784 155.533 41.4543 155.538 28.0302 155.548C27.4789 155.548 26.6644 155.318 26.9376 156.417L26.8531 156.467L26.9525 156.442H26.9574ZM52.0972 97.258C58.6578 97.258 65.2184 97.268 71.7789 97.258C74.5055 97.253 75.9358 95.8086 75.9755 93.0598C76.0004 91.1456 75.9855 89.2365 75.9755 87.3223C75.9656 83.8188 74.6346 82.4844 71.1283 82.4794C62.7302 82.4744 54.3271 82.4794 45.929 82.4794C41.4543 82.4794 36.9796 82.4544 32.4999 82.4894C29.8826 82.5094 28.4573 84.0087 28.4523 86.5976C28.4523 88.6317 28.4474 90.6708 28.4523 92.705C28.4623 95.9536 29.7336 97.253 32.9618 97.258C39.3386 97.273 45.7154 97.258 52.0922 97.258H52.0972ZM22.9347 134.062C22.9595 130.174 20.2727 127.42 16.4287 127.395C12.1825 127.37 9.59501 129.794 9.57018 133.822C9.54535 137.89 12.3017 140.554 16.2599 140.814C19.5427 141.029 23.4711 137.226 22.9347 134.062ZM16.0165 162.74C20.084 162.605 22.7807 160.011 22.8701 156.352C22.9545 152.804 20.6303 149.301 16.3046 149.276C12.6046 149.256 9.48575 152.124 9.38642 155.743C9.28709 159.411 12.3861 162.68 16.0116 162.74H16.0165ZM16.0811 184.85C20.1535 184.875 22.9049 182.166 22.9396 178.103C22.9694 174.58 19.8555 171.426 16.3195 171.391C12.6692 171.356 9.34172 174.57 9.39139 178.078C9.44105 181.627 12.6096 184.825 16.0861 184.85H16.0811ZM16.0612 105.379C12.396 105.409 9.59997 108.338 9.54534 112.087C9.49568 115.4 12.5351 119.159 16.2152 118.869C19.7711 118.589 23.0042 116.125 22.9446 112.042C22.895 108.338 19.8208 105.35 16.0612 105.379ZM48.0745 174.045C41.4592 174.045 34.844 174.035 28.2288 174.065C27.7123 174.065 26.7538 173.63 26.729 174.495C26.7042 175.459 27.7123 175.104 28.3282 175.184C28.3878 175.194 28.4523 175.184 28.5119 175.184C41.6231 175.184 54.7294 175.189 67.8406 175.154C68.382 175.154 69.4596 175.659 69.405 174.565C69.3554 173.58 68.3174 174.06 67.7463 174.055C61.1906 174.02 54.635 174.03 48.0844 174.03L48.0745 174.045ZM48.3774 129.979C41.7026 129.979 35.0228 129.974 28.348 129.994C27.7968 129.994 26.8581 129.674 26.8581 130.549C26.8581 131.418 27.8017 131.113 28.348 131.113C41.5784 131.133 54.8089 131.133 68.0393 131.113C68.5607 131.113 69.4795 131.448 69.405 130.454C69.3454 129.664 68.521 129.999 68.0442 129.999C61.4886 129.974 54.938 129.984 48.3824 129.984L48.3774 129.979ZM48.2135 112.506C48.2135 112.506 48.2135 112.536 48.2135 112.551C54.8287 112.551 61.4439 112.556 68.0591 112.536C68.5409 112.536 69.3554 112.851 69.41 112.047C69.4696 111.167 68.6352 111.467 68.1585 111.467C54.8685 111.457 41.5735 111.457 28.2835 111.487C27.8117 111.487 26.9376 111.217 26.9823 112.027C27.022 112.736 27.8564 112.501 28.3679 112.501C34.9831 112.516 41.5983 112.511 48.2135 112.511V112.506ZM47.9702 153.079C54.645 153.079 61.3198 153.089 67.9946 153.059C68.4564 153.059 69.2908 153.439 69.3057 152.579C69.3206 151.734 68.4862 152.034 68.0095 152.034C54.7195 152.014 41.4295 152.014 28.1394 152.034C27.608 152.034 26.6744 151.739 26.734 152.664C26.7787 153.349 27.6329 153.064 28.1245 153.069C34.7397 153.089 41.3549 153.084 47.9751 153.079H47.9702ZM47.9503 178.633V178.643C54.6301 178.643 61.3098 178.653 67.9846 178.623C68.4415 178.623 69.261 179.013 69.2958 178.148C69.3355 177.263 68.5061 177.573 68.0343 177.573C54.7393 177.558 41.4443 177.558 28.1444 177.573C27.5931 177.573 26.6843 177.323 26.7191 178.198C26.7439 178.898 27.6031 178.618 28.0947 178.618C34.7099 178.638 41.3301 178.633 47.9453 178.633H47.9503ZM47.9751 134.602C54.5903 134.602 61.2055 134.612 67.8207 134.582C68.3323 134.582 69.2858 135.022 69.2858 134.082C69.2858 133.143 68.3323 133.602 67.8356 133.602C54.6648 133.572 41.499 133.577 28.3282 133.602C27.757 133.602 26.724 133.192 26.7389 134.172C26.7538 134.837 27.7471 134.597 28.3133 134.597C34.8689 134.617 41.4195 134.607 47.9751 134.602ZM40.2574 160.071V160.086C44.5384 160.086 48.8244 160.096 53.1054 160.071C53.5176 160.071 54.2477 160.366 54.2278 159.581C54.2129 158.921 53.5524 159.006 53.0706 159.006C50.8705 159.006 48.6704 159.031 46.4653 159.031C40.3468 159.026 34.2282 159.001 28.1096 159.016C27.5683 159.016 26.6396 158.821 26.734 159.711C26.8035 160.391 27.6478 160.051 28.1394 160.056C32.1771 160.081 36.2197 160.071 40.2574 160.071ZM40.5603 181.087C36.4581 181.087 32.3559 181.077 28.2487 181.097C27.7521 181.097 26.9425 180.807 26.878 181.572C26.8134 182.336 27.5981 182.216 28.1245 182.216C36.3936 182.221 44.6626 182.221 52.9266 182.216C53.4481 182.216 54.2327 182.386 54.198 181.592C54.1583 180.767 53.3438 181.107 52.867 181.107C48.7648 181.077 44.6626 181.092 40.5554 181.092L40.5603 181.087ZM40.6398 136.996C36.478 136.996 32.3112 136.986 28.1494 137.006C27.6627 137.006 26.8631 136.731 26.868 137.576C26.868 138.215 27.5633 138.11 28.0451 138.11C36.3737 138.11 44.6973 138.105 53.0259 138.09C53.4828 138.09 54.1881 138.26 54.203 137.586C54.2278 136.706 53.4183 137.006 52.9415 137.006C48.8393 136.981 44.737 136.991 40.6348 136.996H40.6398ZM40.2574 115.995C40.2574 115.995 40.2574 116.035 40.2574 116.055C44.4738 116.055 48.6952 116.065 52.9117 116.04C53.3785 116.04 54.1881 116.38 54.2179 115.53C54.2377 114.85 53.5126 114.995 53.0607 114.995C44.6228 114.99 36.1899 114.995 27.7521 115.005C27.3299 115.005 26.724 114.965 26.6893 115.475C26.6346 116.285 27.3746 115.98 27.7819 115.985C31.9387 116.01 36.0956 116 40.2524 116L40.2574 115.995Z" fill="white"/>
<path d="M201.888 157.192C201.888 156.722 201.888 156.253 201.888 155.783C201.928 155.748 202.002 155.698 201.997 155.668C201.977 155.563 201.928 155.468 201.888 155.368C202.032 151.989 202.549 148.666 203.323 145.377H203.403L203.328 145.362C203.428 143.258 205.389 142.808 206.556 141.639C207.103 141.089 208.563 140.714 207.987 139.905C207.242 138.86 206.621 140.314 205.995 140.694C204.535 141.584 203.184 142.653 201.734 143.558C199.584 144.897 196.5 144.233 195.745 141.399L195.809 141.299L195.695 141.284C195.273 137.8 197.821 135.866 199.688 133.597C200.343 132.798 201.223 132.188 201.943 131.433C203.338 129.974 204.977 129.809 206.785 130.419V130.499L206.8 130.419C209.516 131.263 212.596 131.498 213.787 134.827C213.877 135.072 214.329 135.382 214.736 135.137C215.228 134.847 214.83 134.547 214.731 134.217C214.016 131.913 212.233 130.958 210.112 130.274C209.372 130.034 208.662 129.679 207.882 129.544L207.848 129.454L207.803 129.534C206.949 129.309 206.095 129.079 205.24 128.854C205.295 128.754 205.27 128.684 205.166 128.634C205.921 125.436 208.826 123.267 212.268 125.336C214.344 126.585 216.678 127.29 217.964 129.564C218.133 129.859 218.361 130.034 218.709 129.844C219.325 129.504 218.868 129.004 218.729 128.749C217.373 126.225 214.955 125.126 212.452 124.181C211.915 123.981 211.071 124.126 210.981 123.427C210.897 122.772 211.682 122.477 212.158 122.162C213.072 121.562 214.085 120.783 215.208 121.388C219.414 123.662 223.651 125.801 225.463 130.873C226.576 133.987 225.558 136.801 225.121 139.705C224.728 142.299 224.018 144.857 222.985 147.286C222.305 148.881 222.588 150.05 223.81 151.34C228.697 156.487 233.479 161.73 238.267 166.968C241.857 170.886 245.398 174.849 248.964 178.788C249.307 179.168 249.699 179.562 250.196 179.103C250.747 178.588 250.186 178.183 249.898 177.868C247.837 175.599 245.741 173.365 243.665 171.111C243.432 170.856 243.054 170.491 243.109 170.261C243.213 169.817 243.72 170.037 244.053 170.037C248.343 170.022 252.639 170.077 256.93 169.987C258.058 169.962 258.405 170.671 258.748 171.376C261.435 176.924 264.206 182.436 266.684 188.079C268.805 192.912 270.816 197.835 269.49 203.372C266.699 215.042 255.078 220.84 244.45 216.586C239.935 214.777 237.224 210.824 234.482 206.946C227.659 197.295 220.701 187.739 213.792 178.148C210.237 173.205 206.586 168.332 203.174 163.289C202.022 161.585 202.032 159.346 201.878 157.277L201.977 157.237L201.873 157.182L201.888 157.192Z" fill="white"/>
<path d="M115.498 151.929C115.796 151.869 116.099 151.824 116.392 151.744C117.475 151.445 118.731 150.66 119.446 152.129C120.206 153.689 120.981 155.393 119.342 156.972C117.062 159.166 114.172 159.756 111.202 159.931C108.893 160.066 106.568 159.901 104.249 159.886C103.847 159.886 103.325 159.766 103.216 160.346C103.137 160.761 103.529 160.786 103.812 160.861C103.896 161.055 104.006 161.07 104.14 160.901C106.946 161.265 109.747 161.37 112.548 160.906C112.91 161.105 113.243 160.97 113.571 160.801C114.087 160.676 114.604 160.546 115.115 160.421L115.125 160.501V160.416C117.45 159.771 119.57 158.352 122.118 158.582L122.128 158.661L122.138 158.582C124.499 158.498 126.172 159.549 127.159 161.735C129.925 167.863 132.691 173.99 135.473 180.112C135.681 180.572 135.8 181.442 136.496 181.112C137.226 180.767 136.625 180.227 136.337 179.767C134.673 177.119 134.827 174.58 136.431 171.866C137.737 169.662 138.611 167.198 139.649 164.834C140.091 163.829 140.533 163.594 141.72 164.029C146.587 165.818 151.524 167.423 156.441 169.077C157.975 169.592 159.078 170.326 158.725 172.261C158.541 173.28 158.621 174.345 158.581 175.389C158.263 176.474 158.422 177.568 158.522 178.663C158.447 182.736 158.05 186.839 158.383 190.878C158.77 195.606 157.042 199.669 155.308 203.757C153.982 206.896 152.83 210.139 150.342 212.703C144.556 218.681 135.761 220.72 128.316 217.216C122.952 214.692 119.64 210.229 117.494 204.642C114.604 197.11 111.311 189.738 108.217 182.286C105.52 175.789 102.863 169.267 100.177 162.765C98.503 158.711 96.8442 154.648 95.0812 150.635C94.5349 149.395 94.2915 148.121 94.0283 146.827C94.0581 146.802 94.1127 146.757 94.1078 146.747C94.073 146.687 94.0233 146.637 93.9786 146.582C93.2684 140.494 95.0067 135.332 99.6751 131.278C99.7942 131.463 99.9283 131.518 100.082 131.308C100.236 132.788 100.902 134.157 100.643 135.756C100.48 136.786 101.647 136.341 102.183 136.291C106.265 135.941 110.343 135.551 114.415 135.107C117.042 134.822 119.228 136.206 119.645 138.54C119.978 140.419 118.388 142.184 115.995 143.003C112.95 144.043 109.856 143.723 106.757 143.713C106.251 143.713 105.476 143.383 105.421 144.178C105.367 144.982 106.216 144.797 106.693 144.817C109.504 144.937 112.319 145.002 115.111 144.503L115.12 144.583L115.13 144.498C116.119 144.173 117.112 143.853 118.095 143.533C118.344 143.503 118.592 143.473 118.84 143.443C121.338 145.647 121.08 148.426 118.13 149.885C115.106 151.385 111.793 151.345 108.515 151.375C107.939 151.38 106.995 151.045 106.941 151.749C106.861 152.749 107.969 152.404 108.495 152.404C110.81 152.389 113.139 152.489 115.418 151.929L115.453 151.999L115.483 151.924L115.498 151.929Z" fill="white"/>
<path d="M203.552 102.081C204.148 106.499 204.148 110.957 204.401 115.395C204.411 115.58 204.391 115.77 204.441 115.945C206.02 121.583 203.154 125.316 199.196 128.679C195.998 131.398 192.805 134.067 188.538 134.892C187.769 135.042 186.974 135.062 186.189 135.142L186.145 135.067L186.1 135.142C182.519 134.322 181.685 133.098 181.665 128.639C181.705 128.17 181.744 127.695 181.784 127.225C181.849 126.86 181.918 126.495 181.983 126.131L182.062 126.126L181.983 126.111C182.698 122.827 182.723 119.458 183.09 116.135L183.17 116.13L183.09 116.115C182.986 113.186 185.36 114.745 186.557 114.176C186.651 114.166 186.751 114.156 186.85 114.141C190.937 113.406 194.637 111.747 198.054 109.408C198.511 109.098 199.38 108.793 198.749 108.048C198.297 107.509 197.756 108.123 197.359 108.413C193.783 111.027 189.835 112.686 185.444 113.236C184.848 112.961 184.267 113.081 183.686 113.301C175.526 113.451 169.14 107.863 167.575 100.612L167.67 100.592L167.57 100.617C166.215 94.5142 166.135 88.3968 167.307 82.2595C167.516 81.165 167.605 80.5052 169.07 81.3399C171.941 82.9742 175.184 82.7093 178.357 82.5194C181.963 82.3045 185.549 81.7447 189.174 81.8946C189.845 81.9246 190.52 81.9146 191.19 81.9796C194.493 82.3045 194.895 82.6393 195.859 85.783C195.928 86.0129 195.839 86.3627 195.973 86.4927C196.728 87.2273 196.49 88.9216 197.89 88.9066C199.072 88.8966 199.266 87.6172 199.832 86.7725C201.501 84.2836 203.293 81.8797 206.05 80.4303C207.311 79.7656 208.439 79.9705 209 81.1999C210.39 84.2336 211.071 87.4073 210.212 90.7608C209.462 93.6746 207.202 94.4442 204.644 94.7241C203.745 94.8241 202.817 94.6791 201.903 94.6142C201.52 94.5892 201.148 94.5192 201.044 95.019C200.934 95.5487 201.332 95.6337 201.699 95.6737C202.792 95.7886 203.889 95.8736 204.982 95.9686L204.922 96.0685L205.052 96.1235C204.734 97.393 204.411 98.6574 203.716 99.7969C203.303 100.477 203.1 101.216 203.532 101.991L203.442 102.036L203.542 102.081H203.552ZM176.321 98.5275C176.291 100.727 177.255 101.976 178.76 101.941C179.202 101.931 179.514 101.706 179.624 101.391C179.758 101.021 179.326 100.916 179.063 100.856C177.349 100.492 177.185 99.2671 177.503 97.8827C177.89 96.1835 178.387 94.5142 178.844 92.8349C178.973 92.3551 178.928 91.9153 178.377 91.8503C178.02 91.8054 177.573 92.1002 177.597 92.4701C177.732 94.6741 176.162 96.5083 176.316 98.5275H176.321ZM183.021 106.654C185.534 106.629 188.012 104.81 188.653 102.541C188.792 102.051 189.214 101.376 188.424 101.136C187.664 100.906 187.828 101.701 187.674 102.101C186.825 104.245 185.335 105.469 182.971 105.539C182.499 105.554 181.645 105.17 181.645 105.969C181.645 106.749 182.519 106.604 183.021 106.654ZM206.78 87.5872C206.914 88.017 206.209 88.7517 207.132 89.0566C207.272 89.1015 207.579 88.8966 207.684 88.7267C208.295 87.7771 207.714 84.8034 206.8 84.5085C205.21 83.9887 204.451 85.0733 203.835 86.2828C203.646 86.6576 203.383 87.1324 203.889 87.4023C204.287 87.6122 204.595 87.1574 204.749 86.8875C205.111 86.2428 205.459 85.3981 206.268 85.678C206.974 85.9179 206.72 86.8475 206.775 87.5972L206.78 87.5872ZM174.315 90.1111C174.335 89.1865 174.116 88.2169 173.088 88.1969C171.931 88.1719 171.697 89.2465 171.707 90.2011C171.717 91.0507 171.792 92.0902 172.934 92.0902C174.126 92.0902 174.315 91.1107 174.315 90.1161V90.1111ZM184.098 91.2306C184.084 92.4351 184.322 93.4447 185.549 93.5546C186.467 93.6396 186.795 92.7999 186.75 92.0303C186.691 90.9957 186.413 89.8362 185.226 89.6913C184.213 89.5663 183.994 90.4659 184.103 91.2256L184.098 91.2306ZM172.894 85.4181C172.532 85.4581 172.149 85.4281 171.817 85.5531C171.315 85.738 170.441 85.763 170.59 86.4927C170.799 87.5072 171.524 86.8425 172.02 86.6726C172.616 86.4727 173.177 86.3777 173.778 86.6476C174.384 86.9175 175.283 87.7221 175.591 86.8025C175.909 85.8529 174.652 85.798 173.972 85.5431C173.644 85.4181 173.257 85.4531 172.889 85.4131L172.894 85.4181ZM185.35 86.9425C184.948 86.9924 184.446 86.9725 183.994 87.1274C183.522 87.2873 182.777 87.4123 183.026 88.1569C183.284 88.9266 183.825 88.3469 184.208 88.2069C184.987 87.922 185.722 87.917 186.497 88.2269C186.919 88.3968 187.5 89.0716 187.803 88.2069C188.081 87.4023 187.163 87.5622 186.805 87.2573C186.383 86.8975 185.901 86.9824 185.35 86.9375V86.9425Z" fill="white"/>
<path d="M225.136 127.1C223.094 125.176 220.969 123.377 218.63 121.797C215.749 119.853 213.117 119.813 210.445 122.017C210.311 121.892 210.177 121.772 210.038 121.647C211.761 118.404 213.45 115.145 215.223 111.932C217.06 108.593 218.997 105.315 220.845 101.981C222.757 98.5374 226.422 97.148 230.137 100.562C235.793 105.754 241.405 110.997 246.993 116.265C249.918 119.024 250.285 122.872 247.996 126.131C242.19 134.407 236.375 142.683 230.499 150.91C229.665 152.079 228.389 153.299 226.874 152.759C224.684 151.979 223.68 149.226 224.301 147.296C225.722 142.903 226.715 138.41 227.162 133.797C227.331 132.038 226.442 130.469 226.372 128.759C226.437 128.524 226.506 128.295 226.556 128.06C226.755 127.14 228.473 126.255 227.261 125.436C226.015 124.591 226.02 126.715 225.131 127.095L225.136 127.1ZM244.807 123.472C244.912 122.152 243.933 121.508 243.129 120.773C238.932 116.939 238.783 116.959 235.749 121.702C232.411 126.92 232.436 126.985 237.383 130.774C238.689 131.773 239.767 131.583 240.675 130.329C241.937 128.589 243.129 126.8 244.351 125.031C244.673 124.561 244.832 124.041 244.807 123.472ZM225.25 115.635C226.745 115.555 227.773 114.875 228.071 113.546C228.294 112.536 228.736 111.867 229.501 111.182C230.683 110.122 230.738 108.683 230.077 107.274C229.422 105.869 228.339 105.065 226.725 105.185C225.116 105.31 224.286 106.354 224.098 107.808C223.983 108.673 223.482 109.053 222.955 109.548C221.689 110.727 221.724 112.177 222.325 113.636C222.871 114.955 224.033 115.445 225.25 115.64V115.635ZM231.403 117.959C231.254 118.034 231.031 118.074 230.946 118.204C230.127 119.483 229.317 120.773 228.528 122.072C228.349 122.372 228.463 122.687 228.746 122.872C229.168 123.147 229.59 123.057 229.859 122.642C230.589 121.518 231.319 120.393 231.979 119.228C232.292 118.669 232.133 118.164 231.403 117.964V117.959ZM234.741 112.656C233.747 113.091 233.395 114.111 232.992 115.04C232.794 115.495 233.191 116 233.648 115.895C234.815 115.63 235.039 114.451 235.495 113.566C235.699 113.176 235.327 112.771 234.736 112.661L234.741 112.656Z" fill="#61CE70"/>
<path d="M94.1723 155.763C93.8296 156.467 93.5714 157.337 92.5532 157.167C91.5053 156.992 91.3713 156.093 91.2372 155.228C91.1428 154.613 91.1627 154.023 91.3812 153.434C91.6394 152.739 91.8431 152.134 92.8512 152.209C93.8346 152.284 94.0779 152.894 94.207 153.619C94.3113 154.208 94.2368 154.828 94.2418 155.438C94.1971 155.453 94.1127 155.473 94.1127 155.488C94.1226 155.583 94.1474 155.673 94.1723 155.768V155.763Z" fill="white"/>
<path d="M92.6079 134.157C93.8446 134.212 94.1028 135.212 94.227 136.101C94.3809 137.216 93.8346 138.29 93.1642 139.075C92.7023 139.615 91.8481 139.18 91.5551 138.48C91.3068 137.875 91.277 137.181 91.1478 136.531L91.2472 136.476L91.1528 136.416C91.2918 135.556 91.421 134.697 92.2951 134.227C92.3994 134.207 92.5036 134.182 92.6079 134.157Z" fill="white"/>
<path d="M225.136 127.1C226.025 126.72 226.02 124.601 227.266 125.441C228.478 126.255 226.755 127.14 226.561 128.065C226.511 128.3 226.442 128.529 226.377 128.764C225.563 128.515 225.334 127.815 225.136 127.1Z" fill="white"/>
<path d="M158.531 178.663C158.432 177.568 158.273 176.474 158.591 175.389C158.685 176.484 158.894 177.578 158.531 178.663Z" fill="#61CE70"/>
<path d="M183.686 113.301C184.267 113.081 184.853 112.966 185.444 113.236C184.853 113.256 184.272 113.276 183.686 113.301Z" fill="#61CE70"/>
<path d="M210.444 122.022C210.236 122.487 209.983 123.232 209.447 122.862C209.099 122.622 209.581 121.952 210.042 121.652C210.176 121.777 210.31 121.897 210.444 122.022Z" fill="#61CE70"/>
<path d="M89.8464 137.231L89.7422 137.296C89.7422 137.296 89.638 137.231 89.633 137.236C89.6182 136.631 89.6033 136.021 89.5884 135.412C89.7075 135.437 89.8315 135.462 89.9506 135.492C89.9159 136.076 89.8812 136.656 89.8464 137.236V137.231Z" fill="#61CE70"/>
<path d="M89.6133 153.579C89.7125 153.564 89.8068 153.569 89.9011 153.594C89.8912 154.193 89.8763 154.788 89.8664 155.383L89.7373 155.418C89.7373 155.418 89.6182 155.363 89.6182 155.368C89.6182 154.773 89.6182 154.178 89.6182 153.584L89.6133 153.579Z" fill="#61CE70"/>
<path d="M181.785 127.225C181.746 127.7 181.706 128.17 181.666 128.639C181.541 128.15 181.456 127.67 181.785 127.225Z" fill="#61CE70"/>
<path d="M113.575 160.801C113.248 160.97 112.915 161.1 112.553 160.906C112.895 160.871 113.238 160.836 113.575 160.801Z" fill="#61CE70"/>
<path d="M118.855 143.448C118.606 143.478 118.353 143.513 118.11 143.538C118.329 143.243 118.582 143.263 118.855 143.448Z" fill="#61CE70"/>
<path d="M99.7052 129.849C99.6802 129.744 99.6453 129.639 99.6403 129.534C99.6403 129.494 99.7152 129.454 99.7552 129.414C99.91 129.579 99.915 129.724 99.7052 129.844V129.849Z" fill="#61CE70"/>
<path d="M100.087 131.318C99.9381 131.528 99.8041 131.473 99.6801 131.288C99.8289 131.113 99.9679 131.083 100.087 131.318Z" fill="#61CE70"/>
<path d="M93.1899 148.266C93.1399 148.191 93.0849 148.121 93.05 148.041C93.045 148.026 93.1049 147.981 93.1399 147.951C93.1799 148.021 93.2248 148.086 93.2548 148.161C93.2648 148.186 93.2198 148.231 93.1949 148.266H93.1899Z" fill="#61CE70"/>
<path d="M93.9888 146.597C94.0338 146.652 94.0837 146.702 94.1187 146.762C94.1187 146.767 94.0687 146.817 94.0388 146.842L93.9438 146.737L93.9888 146.602V146.597Z" fill="#61CE70"/>
<path d="M94.1727 155.763C94.1528 155.668 94.1228 155.578 94.1128 155.483C94.1128 155.473 94.1977 155.448 94.2427 155.433C94.2577 155.523 94.2826 155.613 94.2826 155.703C94.2826 155.723 94.2077 155.743 94.1677 155.763H94.1727Z" fill="#61CE70"/>
<path d="M95.955 155.463C95.821 155.443 95.692 155.423 95.558 155.403C95.6026 155.323 95.6473 155.243 95.6969 155.168L95.955 155.463Z" fill="#61CE70"/>
<path d="M201.893 155.368C201.933 155.468 201.983 155.563 202.003 155.668C202.008 155.698 201.933 155.743 201.893 155.783C201.868 155.688 201.828 155.593 201.818 155.498C201.818 155.458 201.868 155.413 201.893 155.368Z" fill="#61CE70"/>
<path d="M186.855 114.141C186.755 114.151 186.656 114.161 186.562 114.176C186.651 114.071 186.745 114.056 186.855 114.141Z" fill="#61CE70"/>
<path d="M104.14 160.901C104.006 161.065 103.896 161.055 103.812 160.861C103.921 160.876 104.03 160.891 104.14 160.901Z" fill="#61CE70"/>
<path d="M207.808 129.543L207.852 129.464L207.887 129.553L207.843 129.618L207.808 129.543Z" fill="#61CE70"/>
<path d="M205.171 128.644C205.27 128.694 205.295 128.763 205.245 128.862L205.111 128.788L205.171 128.644Z" fill="#61CE70"/>
<path d="M181.988 126.111L182.062 126.125L181.983 126.13L181.988 126.111Z" fill="#61CE70"/>
<path d="M186.1 135.146L186.144 135.072L186.189 135.146L186.149 135.215L186.1 135.146Z" fill="#61CE70"/>
<path d="M91.1527 136.416L91.2469 136.476L91.1477 136.53L91.0734 136.471L91.1527 136.416Z" fill="#61CE70"/>
<path d="M115.13 160.421V160.5L115.12 160.421H115.13Z" fill="#61CE70"/>
<path d="M122.143 158.582L122.133 158.666L122.123 158.586L122.143 158.582Z" fill="#61CE70"/>
<path d="M183.095 116.115L183.175 116.13L183.09 116.135L183.095 116.115Z" fill="#61CE70"/>
<path d="M201.888 157.192L201.992 157.247L201.898 157.286L201.888 157.192Z" fill="#61CE70"/>
<path d="M203.552 102.08L203.457 102.041L203.542 101.996L203.621 102.041L203.552 102.08Z" fill="#61CE70"/>
<path d="M167.575 100.611L167.674 100.587L167.575 100.606V100.611Z" fill="#61CE70"/>
<path d="M195.7 141.289L195.814 141.299L195.749 141.398L195.645 141.378L195.7 141.289Z" fill="#61CE70"/>
<path d="M115.145 144.508L115.13 144.592L115.12 144.508H115.145Z" fill="#61CE70"/>
<path d="M205.061 96.127L204.932 96.0726L204.992 95.9686L205.101 96.023L205.061 96.127Z" fill="#61CE70"/>
<path d="M115.498 151.929L115.468 152.003L115.433 151.934L115.468 151.869L115.498 151.929Z" fill="#61CE70"/>
<path d="M203.333 145.362L203.408 145.377L203.328 145.382L203.333 145.362Z" fill="#61CE70"/>
<path d="M206.8 130.429L206.79 130.503V130.424L206.8 130.429Z" fill="#61CE70"/>
<path d="M64.5281 51.2029C63.9123 51.8676 63.6391 52.1875 63.3461 52.4823C59.3631 56.4956 55.3602 60.4839 51.4069 64.5221C50.6769 65.2668 50.1802 65.5367 49.3459 64.6371C47.6275 62.7929 45.8347 61.0236 44.0269 59.2694C43.3664 58.6247 43.3167 58.1849 43.9772 57.4602C46.1376 55.0862 46.1078 55.0562 48.3775 57.3103C49.6952 58.6197 51.003 58.6114 52.3009 57.2853C54.7195 54.8363 57.2226 52.4723 59.5468 49.9384C60.6245 48.7589 61.4042 48.3291 62.5912 49.7035C63.0928 50.2883 63.8278 50.6731 64.5281 51.2029Z" fill="white"/>
<path d="M131.182 95.9636C124.83 96.0035 119.387 90.4809 119.292 83.8988C119.208 77.8464 124.224 72.6236 130.144 72.6886C136.247 72.7536 142.043 78.1163 142.038 84.8884C142.038 91.0057 137.206 95.9236 131.182 95.9636ZM128.083 87.4672C127.606 87.4422 126.747 87.2473 126.533 88.2469C126.295 89.3464 127.253 89.5164 127.974 89.8062C128.669 90.0861 129.851 89.6063 129.766 91.0507C129.737 91.5505 129.791 92.1152 130.467 92.1302C131.296 92.1452 131.182 91.4705 131.222 90.9307C131.271 90.281 131.087 89.5213 132.036 89.3214C133.625 88.9866 134.668 88.1569 134.802 86.3877C134.951 84.4835 134.033 83.369 132.329 82.8142C131.649 82.5943 131.286 82.2445 131.361 81.4898C131.44 80.6952 131.976 80.7052 132.557 80.7251C133.064 80.7401 133.59 80.6852 133.72 80.0804C133.844 79.4857 133.382 79.1408 132.935 78.9859C131.971 78.651 131.202 78.3312 131.053 77.0617C130.973 76.362 129.965 76.432 129.915 77.0717C129.816 78.3512 128.843 78.741 128.132 79.4457C126.086 81.4798 126.28 82.7743 128.863 84.3936C129.905 85.0483 129.806 86.0329 129.707 87.0124C129.598 88.092 128.858 87.5522 128.068 87.4722L128.083 87.4672Z" fill="#FDD249"/>
<path d="M112.29 45.1905C105.809 45.1255 100.5 39.6329 100.529 33.0407C100.559 26.8234 105.406 21.8956 111.445 21.9505C117.892 22.0055 123.285 27.6031 123.201 34.1553C123.121 40.4325 118.354 45.2555 112.29 45.1905ZM109.111 36.7291C108.858 36.7291 107.909 36.4143 107.77 37.4588C107.611 38.6333 108.634 38.8332 109.489 38.9132C110.422 39.0032 111.232 39.0781 111.157 40.3276C111.137 40.7024 111.212 41.1222 111.689 41.1422C112.24 41.1672 112.463 40.7274 112.424 40.2826C112.324 39.2281 112.915 38.8033 113.74 38.3484C114.937 37.6887 115.935 36.8291 115.87 35.1898C115.806 33.5855 115.205 32.476 113.645 31.9662C113.104 31.7863 112.622 31.5164 112.677 30.8067C112.737 30.012 113.313 30.037 113.879 30.017C114.534 29.9971 115.145 29.8521 115.21 29.0525C115.274 28.2278 114.614 28.0979 114.028 27.888C112.086 27.1883 110.735 27.2982 109.543 28.2728C107.204 30.182 107.393 32.486 110.09 33.6705C111.361 34.2252 110.884 35.1798 110.904 36.0145C110.929 36.974 110.169 36.7891 109.111 36.7341V36.7291Z" fill="#FDD249"/>
<path d="M161.387 40.0577C161.278 46.8048 155.601 51.4728 150.163 51.3928C143.95 51.3028 139.471 46.365 139.714 40.2126C139.957 34.0253 145.425 28.8875 151.474 29.1524C157.25 29.4073 161.596 34.1852 161.382 40.0577H161.387ZM149.691 42.4117C149.428 42.9515 150.024 44.2959 148.465 43.941C147.759 43.7811 146.935 43.3213 146.682 44.4258C146.433 45.5253 147.372 45.7203 148.132 45.9452C148.842 46.1551 149.597 46.245 149.602 47.2646C149.602 47.7494 149.637 48.3441 150.347 48.2892C151.047 48.2342 151.211 47.6444 151.211 47.0747C151.211 46.235 151.504 45.7602 152.329 45.4104C153.674 44.8406 154.439 43.6811 154.399 42.2168C154.365 40.7724 153.416 39.8428 152.105 39.398C151.34 39.1381 151.002 38.7982 151.102 37.9486C151.211 37.009 151.817 37.124 152.438 37.149C152.964 37.169 153.481 37.044 153.58 36.4643C153.699 35.7845 153.173 35.4097 152.617 35.3347C151.663 35.1998 150.988 34.9199 150.983 33.7954C150.983 33.4755 150.719 33.2506 150.372 33.2157C150.024 33.1807 149.696 33.3306 149.701 33.6705C149.711 35.2748 148.336 35.8895 147.511 36.8991C146.245 38.4534 146.582 39.9278 148.43 40.6025C149.279 40.9123 149.865 41.2772 149.681 42.4017L149.691 42.4117Z" fill="#FDD249"/>
<path d="M52.0923 97.258C45.7155 97.258 39.3387 97.268 32.9619 97.258C29.7337 97.253 28.4623 95.9486 28.4524 92.705C28.4474 90.6709 28.4524 88.6317 28.4524 86.5976C28.4524 84.0087 29.8827 82.5144 32.5 82.4894C36.9747 82.4494 41.4494 82.4794 45.9291 82.4794C54.3272 82.4794 62.7303 82.4794 71.1284 82.4794C74.6297 82.4794 75.9607 83.8188 75.9756 87.3223C75.9806 89.2365 76.0004 91.1456 75.9756 93.0598C75.9408 95.8086 74.5056 97.253 71.779 97.258C65.2185 97.273 58.6579 97.258 52.0973 97.258H52.0923ZM48.0447 92.0153C47.9305 92.1202 47.8163 92.2252 47.7021 92.3301C47.5431 92.64 47.4984 92.9449 47.717 93.2447C49.3509 93.2248 51.0246 93.6246 52.584 92.7899C52.7529 92.76 52.9217 92.73 53.0856 92.695C54.4067 94.8191 56.0803 93.1498 57.5901 93.0798C57.8931 93.0648 58.5436 92.8249 58.3053 92.2452C58.1215 91.7954 57.7143 91.4755 57.1183 91.7104C56.7806 91.8403 56.4081 91.8753 56.0605 91.9853C54.948 92.3451 54.3918 92.1502 54.5656 90.7808C54.7295 89.5064 54.7046 88.2069 54.7245 86.9175C54.7344 86.3727 54.7245 85.678 53.9448 85.728C53.2346 85.773 53.2247 86.4027 53.2197 86.9824C53.1949 88.7017 53.1402 90.421 53.0955 92.1402C52.9068 92.1252 52.7181 92.1052 52.5244 92.0902C52.0774 91.4055 50.3094 92.4051 50.7117 90.7608C50.9948 89.5963 49.4602 87.5322 52.1817 87.4223C52.4946 87.4073 52.6933 87.0974 52.6237 86.7376C52.5443 86.3277 52.2463 86.1028 51.8539 86.0828C50.6968 86.0279 49.5396 85.9879 48.3825 85.9679C48.0398 85.9629 47.6127 85.9129 47.6474 86.4927C47.6723 86.8825 47.7915 87.1374 48.1838 87.3423C49.4403 87.982 49.6141 90.9407 48.4917 91.9403C48.3427 91.9603 48.1937 91.9853 48.0447 92.0053V92.0153ZM61.1063 92.0253L61.0169 91.9503L60.9623 92.0553C60.0435 92.4801 59.9541 91.9953 59.9889 91.2256C60.0534 89.8112 60.0634 88.3968 60.0733 86.9824C60.0733 86.5276 60.2173 85.9979 59.4277 85.9529C58.643 85.9079 58.7026 86.4077 58.6877 86.8875C58.6181 88.7267 58.5685 90.5709 58.489 92.4101C58.4592 93.1598 58.7969 93.6796 59.5121 93.6346C60.6593 93.5596 61.8165 93.3997 62.929 93.1098C63.6491 92.9199 63.8428 92.3351 63.2418 91.7054C62.8793 91.3706 62.5714 91.4855 62.2833 91.8154C61.891 91.8853 61.4986 91.9603 61.1013 92.0303L61.1063 92.0253ZM41.9659 89.3364C41.9659 90.0111 41.9311 90.6908 41.9758 91.3606C42.0255 92.1052 41.6481 93.2397 42.7009 93.3747C44.1461 93.5646 45.6261 93.3647 46.7386 92.1602C47.4786 91.3606 47.3792 90.6559 46.5797 89.9662C46.0781 89.5313 46.4654 89.1415 46.6542 88.6967C47.0664 87.7221 46.6939 86.9125 45.939 86.2528C44.8961 85.3332 43.6346 85.3831 42.4874 85.758C41.504 86.0778 41.9609 87.1024 41.9659 87.8621C41.9659 88.3519 41.9659 88.8416 41.9659 89.3364Z" fill="#060246"/>
<path d="M22.9297 134.062C23.4661 137.221 19.5327 141.029 16.2549 140.814C12.2967 140.554 9.5404 137.89 9.56523 133.822C9.59006 129.794 12.1775 127.37 16.4238 127.395C20.2678 127.42 22.9546 130.174 22.9297 134.062Z" fill="#61CE70"/>
<path d="M16.0116 162.74C12.3811 162.685 9.28709 159.416 9.38642 155.743C9.48078 152.124 12.6046 149.256 16.3046 149.276C20.6303 149.301 22.9545 152.804 22.8701 156.353C22.7807 160.006 20.084 162.605 16.0165 162.74H16.0116Z" fill="#61CE70"/>
<path d="M16.0761 184.85C12.5997 184.83 9.43113 181.627 9.38147 178.078C9.33181 174.57 12.6593 171.351 16.3096 171.391C19.8506 171.426 22.9595 174.58 22.9297 178.103C22.8999 182.166 20.1436 184.875 16.0712 184.85H16.0761Z" fill="#61CE70"/>
<path d="M16.0563 105.379C19.8158 105.35 22.89 108.338 22.9397 112.042C22.9943 116.125 19.7662 118.589 16.2102 118.869C12.5302 119.159 9.49571 115.4 9.5404 112.087C9.59503 108.338 12.3911 105.414 16.0563 105.379Z" fill="#61CE70"/>
<path d="M48.0695 174.045C54.6251 174.045 61.1807 174.03 67.7313 174.07C68.3074 174.07 69.3404 173.595 69.3901 174.58C69.4447 175.669 68.372 175.164 67.8257 175.169C54.7145 175.204 41.6082 175.199 28.497 175.199C28.4374 175.199 28.3728 175.204 28.3132 175.199C27.6974 175.114 26.6892 175.469 26.7141 174.51C26.7339 173.64 27.6974 174.08 28.2139 174.08C34.8291 174.045 41.4443 174.06 48.0595 174.06L48.0695 174.045Z" fill="#060246"/>
<path d="M48.3724 129.979C54.928 129.979 61.4787 129.969 68.0343 129.994C68.516 129.994 69.3355 129.659 69.3951 130.449C69.4696 131.443 68.5508 131.108 68.0293 131.108C54.7989 131.128 41.5685 131.128 28.3381 131.108C27.7918 131.108 26.8432 131.413 26.8482 130.544C26.8482 129.674 27.7918 129.994 28.3381 129.989C35.0129 129.969 41.6926 129.974 48.3675 129.979H48.3724Z" fill="#060246"/>
<path d="M48.2086 112.501C41.5934 112.501 34.9782 112.501 28.363 112.491C27.8564 112.491 27.0171 112.726 26.9774 112.017C26.9327 111.207 27.8067 111.482 28.2785 111.477C41.5686 111.452 54.8635 111.447 68.1535 111.457C68.6303 111.457 69.4647 111.162 69.4051 112.037C69.3504 112.841 68.5409 112.526 68.0542 112.526C61.439 112.546 54.8238 112.541 48.2086 112.541C48.2086 112.526 48.2086 112.511 48.2086 112.496V112.501Z" fill="#060246"/>
<path d="M26.9376 156.417C26.6595 155.318 27.474 155.548 28.0302 155.548C41.4543 155.538 54.8784 155.538 68.3025 155.548C68.7247 155.548 69.4945 155.298 69.4051 156.073C69.3057 156.952 68.4565 156.657 67.9003 156.657C56.8054 156.672 45.7105 156.692 34.6206 156.647C32.0679 156.637 29.5003 156.957 26.9575 156.442L26.9426 156.417H26.9376Z" fill="#060246"/>
<path d="M47.9652 153.079C41.35 153.079 34.7348 153.084 28.1146 153.064C27.623 153.064 26.7687 153.344 26.724 152.659C26.6645 151.729 27.5932 152.029 28.1295 152.029C41.4195 152.009 54.7096 152.014 67.9996 152.029C68.4763 152.029 69.3107 151.729 69.2958 152.574C69.2809 153.434 68.4465 153.054 67.9847 153.054C61.3099 153.079 54.6351 153.074 47.9603 153.079H47.9652Z" fill="#060246"/>
<path d="M47.9454 178.628C41.3302 178.628 34.71 178.633 28.0948 178.613C27.6031 178.613 26.7439 178.893 26.7191 178.193C26.6893 177.323 27.5932 177.568 28.1445 177.568C41.4394 177.553 54.7344 177.553 68.0343 177.568C68.5061 177.568 69.3355 177.253 69.2958 178.143C69.261 179.008 68.4366 178.618 67.9847 178.618C61.3049 178.648 54.6301 178.638 47.9503 178.638V178.628H47.9454Z" fill="#060246"/>
<path d="M47.9701 134.602C41.4145 134.602 34.8639 134.607 28.3083 134.592C27.7421 134.592 26.7488 134.832 26.7339 134.167C26.7141 133.192 27.752 133.602 28.3232 133.597C41.494 133.572 54.6598 133.572 67.8306 133.597C68.3322 133.597 69.2808 133.137 69.2808 134.077C69.2808 135.017 68.3273 134.572 67.8157 134.577C61.2005 134.607 54.5853 134.597 47.9701 134.602Z" fill="#060246"/>
<path d="M68.392 109.053C67.4185 109.053 66.4451 109.053 65.4767 109.053C65.1042 109.053 64.7268 109.053 64.3493 109.053C52.589 109.043 40.8236 109.033 29.0633 109.023H28.9937C28.214 108.878 26.7986 109.493 26.7837 108.573C26.7688 107.544 28.1792 108.068 28.9192 108.068C41.8566 108.028 54.799 108.033 67.7364 108.058C68.2678 108.058 69.0177 107.659 69.3058 108.493C69.4299 108.848 69.117 109.028 68.7694 109.048C68.6403 109.048 68.5111 109.048 68.382 109.048L68.392 109.053Z" fill="#060246"/>
<path d="M40.2525 160.066C36.2148 160.066 32.1722 160.076 28.1345 160.051C27.6478 160.051 26.7986 160.386 26.729 159.706C26.6396 158.816 27.5684 159.011 28.1047 159.011C34.2233 158.996 40.3419 159.021 46.4604 159.026C48.6605 159.026 50.8606 159.006 53.0657 159.001C53.5425 159.001 54.203 158.916 54.2229 159.576C54.2427 160.361 53.5127 160.061 53.1005 160.066C48.8195 160.091 44.5335 160.081 40.2525 160.081V160.066Z" fill="#060246"/>
<path d="M40.5554 181.082C44.6576 181.082 48.7598 181.072 52.867 181.097C53.3388 181.097 54.1583 180.757 54.198 181.582C54.2328 182.376 53.4481 182.206 52.9266 182.206C44.6576 182.211 36.3886 182.211 28.1246 182.206C27.6031 182.206 26.8134 182.326 26.878 181.562C26.9426 180.802 27.7471 181.092 28.2487 181.087C32.3509 181.067 36.4532 181.077 40.5603 181.077L40.5554 181.082Z" fill="#060246"/>
<path d="M40.6348 136.991C44.7371 136.991 48.8393 136.981 52.9415 137.006C53.4183 137.006 54.2228 136.711 54.203 137.586C54.1831 138.265 53.4829 138.09 53.0259 138.09C44.6973 138.1 36.3737 138.105 28.0451 138.11C27.5683 138.11 26.873 138.215 26.8681 137.576C26.8631 136.731 27.6577 137.006 28.1494 137.006C32.3112 136.986 36.478 136.996 40.6398 136.991H40.6348Z" fill="#060246"/>
<path d="M40.2524 115.995C36.0956 115.995 31.9387 116.005 27.7819 115.98C27.3746 115.98 26.6396 116.285 26.6893 115.47C26.724 114.965 27.3299 115 27.7521 115C36.19 114.99 44.6229 114.985 53.0607 114.99C53.5127 114.99 54.2378 114.845 54.2179 115.525C54.1881 116.375 53.3786 116.03 52.9117 116.035C48.6953 116.065 44.4739 116.05 40.2574 116.05C40.2574 116.03 40.2574 116.01 40.2574 115.99L40.2524 115.995Z" fill="#060246"/>
<path d="M89.5636 173.72C89.3053 174.33 89.1365 174.994 88.7739 175.529C88.0836 176.544 87.0009 176.459 85.9431 176.344C84.9647 176.239 84.5575 175.599 84.2744 174.72C83.8076 173.27 83.6784 171.766 84.2744 170.421C84.7462 169.362 85.7842 168.632 87.1251 168.817C88.6051 169.017 89.3252 169.972 89.5835 171.366C89.5735 172.146 89.5686 172.93 89.5586 173.715L89.5636 173.72ZM85.2577 173.555C85.5657 174.48 85.809 175.694 87.1549 175.059C88.61 174.37 88.2177 172.88 88.2227 171.621C88.2227 170.606 87.3784 170.067 86.7179 170.142C85.5011 170.276 85.2379 171.401 85.1932 172.506C85.213 172.855 85.2329 173.21 85.2528 173.56L85.2577 173.555Z" fill="#060246"/>
<path d="M89.6132 153.579C89.6132 154.173 89.6132 154.768 89.6132 155.363C89.4146 157.002 88.6547 158.162 86.9512 158.527C85.7345 158.786 85.0342 158.067 84.4134 157.202C83.2116 155.533 83.9664 152.164 85.7841 151.065C85.8884 151.06 86.0027 151.055 86.1119 151.05C88.317 150.44 89.2159 151.655 89.6132 153.584V153.579ZM85.2329 153.864C85.2229 154.243 85.218 154.623 85.208 155.003C85.4067 156.028 85.4812 157.302 86.9016 157.157C87.9644 157.047 88.2028 155.958 88.2326 155.033C88.2624 153.974 88.5852 152.629 87.1847 152.204C85.9133 151.819 85.5755 152.929 85.2378 153.864H85.2329Z" fill="#060246"/>
<path d="M89.5138 120.278C88.5603 122.607 86.3354 123.517 84.8156 122.167C84.468 121.857 83.7181 121.503 84.2097 120.878C84.5276 120.473 85.0987 120.633 85.5258 120.993C86.3403 121.687 87.1101 121.547 87.7657 120.768C88.2971 120.138 88.3914 119.303 87.9246 118.714C87.4429 118.104 86.6631 118.199 86.0374 118.724C85.6252 119.064 85.2477 119.658 84.6369 119.283C84.0608 118.929 84.3786 118.269 84.3985 117.759C84.4332 116.884 84.4084 115.325 84.6964 115.255C85.9678 114.95 87.3435 115.055 88.6795 115.055C88.8533 115.055 89.1265 115.3 89.1662 115.475C89.2059 115.645 89.052 115.97 88.893 116.055C88.5802 116.215 88.2027 116.245 87.86 116.34C87.2144 116.525 86.1168 115.91 86.0076 116.78C85.943 117.279 87.1399 116.865 87.7508 117.019C89.4791 117.464 89.4791 118.864 89.5387 120.238L89.4642 120.223L89.5138 120.278Z" fill="#060246"/>
<path d="M89.9111 171.346C90.4177 169.527 91.5004 168.457 93.4671 168.892C95.2599 169.287 95.5033 170.751 95.5331 172.321C95.5529 173.39 95.4238 174.42 94.8527 175.319C94.217 176.314 93.179 176.619 92.1162 176.344C90.8796 176.024 89.9807 175.244 89.9558 173.805C89.9409 172.99 89.926 172.171 89.9111 171.351V171.346ZM91.1478 172.451C91.2272 172.995 91.3017 173.54 91.3812 174.08C91.55 175.299 92.444 175.454 93.2386 175.004C94.5795 174.245 94.356 172.82 94.2368 171.551C94.1624 170.761 93.5912 170.082 92.8562 170.112C91.56 170.162 91.3613 171.321 91.1577 172.356L91.0832 172.406L91.1577 172.451H91.1478Z" fill="#060246"/>
<path d="M89.5884 135.412C89.6033 136.021 89.6182 136.631 89.6331 137.236C89.489 137.761 89.3897 138.3 89.196 138.805C88.6547 140.229 87.5522 140.804 86.1417 140.444C83.9913 139.895 83.9764 138.065 83.9366 136.311C83.8969 134.577 84.6021 133.272 86.3503 132.953C88.1829 132.618 89.1911 133.682 89.5884 135.417V135.412ZM85.2726 135.731C85.2527 135.846 85.2329 135.956 85.213 136.071C85.213 136.461 85.213 136.851 85.213 137.246V137.271C85.5855 138.065 85.3471 139.43 86.8221 139.22C88.1928 139.03 88.1829 137.83 88.2624 136.816C88.3418 135.791 88.019 134.872 87.2045 134.177C86.9413 134.182 86.6781 134.192 86.4198 134.197C85.7792 134.512 85.511 135.112 85.2776 135.731H85.2726Z" fill="#060246"/>
<path d="M95.5034 119.828C95.3544 120.283 95.2402 120.748 95.0514 121.183C94.3363 122.827 91.6594 123.097 90.6314 121.577C89.6381 120.113 89.6033 118.369 90.0702 116.805C90.4724 115.455 91.714 114.755 93.2337 114.95C94.7783 115.145 95.3594 116.25 95.5332 117.619C95.6226 118.339 95.5183 119.084 95.4984 119.818V119.828H95.5034ZM94.2767 117.999V117.964C93.7304 116.38 92.459 115.705 91.7885 116.675C90.9641 117.874 90.9542 119.249 91.5849 120.553C91.8481 121.103 92.3597 121.582 93.0748 121.238C94.2965 120.648 94.222 119.478 94.2667 118.374C94.2667 118.249 94.2717 118.129 94.2767 118.004V117.999Z" fill="#060246"/>
<path d="M80.5596 134.277C80.197 134.502 79.8395 134.737 79.4719 134.957C79.0945 135.182 78.7618 135.102 78.5532 134.717C78.3744 134.392 78.5532 134.117 78.8015 133.917C79.6309 133.242 80.5298 132.698 81.6373 133.088C82.2928 133.317 83.0924 133.487 83.1818 134.412C83.2911 135.551 82.864 136.436 81.8906 137.051C81.682 137.181 81.4883 137.331 81.2847 137.466C80.7831 137.786 79.9338 138.06 80.0927 138.675C80.2815 139.405 81.1307 138.855 81.677 138.955C82.3226 139.075 83.2613 138.935 83.2414 139.805C83.2216 140.679 82.3276 140.299 81.7664 140.314C81.2797 140.324 80.788 140.314 80.3013 140.339C79.6507 140.364 78.7965 140.684 78.5631 139.83C78.3495 139.045 78.28 138.155 79.0498 137.451C79.5514 136.996 80.0927 136.656 80.6589 136.301C81.3691 135.861 82.4617 135.382 81.3095 134.272C81.0562 134.012 80.8029 134.022 80.5546 134.282L80.5596 134.277Z" fill="#060246"/>
<path d="M80.6439 157.282C81.2846 157.157 81.8706 156.842 81.7117 156.133C81.6123 155.688 81.3392 155.038 80.5942 155.163C80.0777 155.253 79.7053 154.978 79.6357 154.538C79.5314 153.864 80.1324 153.809 80.5992 153.699C81.1107 153.579 81.6471 153.289 81.4584 152.754C81.2548 152.184 80.629 152.084 80.0579 152.369C79.5116 152.639 78.7517 152.979 78.6126 152.219C78.4935 151.57 79.2682 151.19 79.9983 151.07C82.2927 150.695 83.2711 151.699 82.6602 154.033C82.4864 154.693 82.9533 154.893 83.0725 155.318C83.4201 156.542 83.1122 157.592 82.0196 158.132C81.0511 158.611 79.8791 159.136 78.9603 157.917C78.6822 157.547 77.7733 157.432 78.3345 156.672C78.9454 155.838 79.3576 156.662 79.8294 156.917C80.043 157.032 80.2565 157.147 80.4701 157.267L80.5396 157.387L80.6489 157.287L80.6439 157.282Z" fill="#060246"/>
<path d="M79.2236 176.349C78.9554 176.079 79.015 175.779 79.1541 175.474L79.2335 175.449L79.1789 175.389C79.4471 174.07 80.0132 172.85 80.7582 171.776C81.7515 170.341 81.0214 170.316 79.8344 170.281C79.1441 170.261 77.8727 170.586 77.9323 169.592C77.987 168.712 79.2434 169.092 79.9685 169.087C81.1754 169.087 82.9583 168.762 83.4649 169.402C84.2893 170.446 82.3872 171.131 82.0395 172.216C81.672 173.36 81.1009 174.44 80.5893 175.529C80.3311 176.089 80.2318 176.999 79.2285 176.349L79.2236 176.344V176.349Z" fill="#060246"/>
<path d="M80.2367 120.918C80.2417 119.683 80.2466 118.454 80.2516 117.224C80.1374 117.189 80.0281 117.154 79.9139 117.119C79.3676 117.129 78.7865 117.009 79.1342 116.325C79.4967 115.615 80.2168 115.12 80.9916 114.945C81.6223 114.805 81.5627 115.43 81.5627 115.835C81.5627 117.064 81.5279 118.294 81.518 119.523C81.518 119.893 81.374 120.383 81.5577 120.613C83.738 123.377 80.8873 122.057 80.1473 122.312C79.7947 122.432 79.0249 122.587 78.9603 121.902C78.8908 121.168 79.6606 121.208 80.1423 121.023L80.2566 121.028L80.2367 120.918Z" fill="#060246"/>
<path d="M89.911 171.346C89.9258 172.166 89.9407 172.985 89.9556 173.8C89.8266 173.775 89.6976 173.75 89.5636 173.725C89.5735 172.94 89.5785 172.156 89.5884 171.376C89.6976 171.366 89.8018 171.356 89.911 171.346Z" fill="#61CE70"/>
<path d="M64.3492 109.053C64.7264 109.053 65.1035 109.053 65.4757 109.053C65.0985 109.308 64.7214 109.308 64.3492 109.053Z" fill="#61CE70"/>
<path d="M80.5596 134.277C80.8077 134.017 81.0608 134.012 81.3138 134.267C81.0608 134.267 80.8077 134.267 80.5596 134.277Z" fill="#61CE70"/>
<path d="M68.392 109.053C68.521 109.053 68.65 109.053 68.779 109.053C68.65 109.288 68.521 109.278 68.392 109.053Z" fill="#61CE70"/>
<path d="M79.9139 117.119C80.0281 117.154 80.1422 117.189 80.2514 117.224C80.0727 117.409 79.9884 117.279 79.9139 117.119Z" fill="#61CE70"/>
<path d="M79.1787 175.394L79.2332 175.454L79.1539 175.473L79.0845 175.424L79.1787 175.394Z" fill="#61CE70"/>
<path d="M80.2365 120.917L80.2514 121.026L80.1373 121.017L80.1224 120.883L80.2365 120.917Z" fill="#61CE70"/>
<path d="M79.2239 176.349L79.2289 176.359L79.174 176.404L79.2239 176.349Z" fill="#61CE70"/>
<path d="M89.5138 120.278L89.4642 120.218L89.5386 120.233L89.5833 120.287L89.5138 120.278Z" fill="#61CE70"/>
<path d="M95.5033 119.828V119.813L95.5826 119.828H95.5033Z" fill="#61CE70"/>
<path d="M80.6436 157.281L80.5345 157.375L80.4651 157.261L80.5643 157.187L80.6436 157.281Z" fill="#61CE70"/>
<path d="M26.9375 156.417L26.9523 156.442L26.8531 156.467L26.9375 156.417Z" fill="#61CE70"/>
<path d="M176.321 98.5324C176.167 96.5133 177.736 94.6791 177.602 92.4751C177.583 92.1052 178.025 91.8153 178.382 91.8553C178.933 91.9203 178.978 92.3601 178.849 92.8399C178.392 94.5192 177.895 96.1934 177.508 97.8877C177.19 99.2721 177.354 100.497 179.067 100.861C179.336 100.916 179.763 101.026 179.629 101.396C179.514 101.711 179.202 101.936 178.765 101.946C177.255 101.976 176.296 100.731 176.326 98.5324H176.321Z" fill="#060246"/>
<path d="M183.021 106.654C182.519 106.604 181.645 106.749 181.645 105.969C181.645 105.17 182.499 105.554 182.971 105.539C185.335 105.469 186.825 104.245 187.674 102.101C187.833 101.701 187.669 100.906 188.424 101.136C189.214 101.376 188.792 102.051 188.653 102.541C188.012 104.805 185.534 106.629 183.021 106.654Z" fill="#060246"/>
<path d="M206.78 87.5922C206.725 86.8425 206.979 85.9179 206.273 85.673C205.464 85.3931 205.111 86.2377 204.754 86.8825C204.6 87.1524 204.292 87.6072 203.894 87.3972C203.383 87.1274 203.646 86.6526 203.84 86.2777C204.456 85.0633 205.215 83.9837 206.805 84.5035C207.719 84.8034 208.3 87.7721 207.689 88.7217C207.579 88.8916 207.272 89.0965 207.137 89.0515C206.214 88.7467 206.919 88.012 206.785 87.5822L206.78 87.5922Z" fill="#060246"/>
<path d="M174.315 90.1211C174.315 91.1107 174.126 92.0902 172.934 92.0902C171.792 92.0902 171.712 91.0507 171.707 90.2011C171.697 89.2465 171.931 88.1769 173.088 88.1969C174.116 88.2169 174.335 89.1865 174.315 90.1211Z" fill="#060246"/>
<path d="M184.093 91.2356C183.984 90.4759 184.203 89.5763 185.216 89.7013C186.403 89.8462 186.681 91.0057 186.741 92.0402C186.785 92.8099 186.457 93.6496 185.539 93.5646C184.317 93.4496 184.074 92.4451 184.089 91.2406L184.093 91.2356Z" fill="#060246"/>
<path d="M172.894 85.4231C173.257 85.4581 173.644 85.4231 173.972 85.548C174.657 85.8029 175.914 85.8529 175.591 86.8075C175.283 87.7221 174.384 86.9225 173.778 86.6526C173.177 86.3827 172.616 86.4776 172.02 86.6776C171.524 86.8475 170.793 87.5122 170.59 86.4976C170.441 85.768 171.315 85.743 171.817 85.558C172.144 85.4331 172.532 85.4631 172.899 85.4231H172.894Z" fill="#060246"/>
<path d="M185.345 86.9474C185.896 86.9924 186.378 86.9075 186.8 87.2673C187.158 87.5722 188.081 87.4122 187.798 88.2169C187.5 89.0815 186.914 88.4068 186.492 88.2369C185.717 87.927 184.982 87.932 184.203 88.2169C183.82 88.3568 183.274 88.9316 183.021 88.1669C182.772 87.4172 183.517 87.2923 183.989 87.1374C184.436 86.9874 184.943 87.0024 185.345 86.9524V86.9474Z" fill="#060246"/>
<path d="M244.812 123.467C244.832 124.041 244.678 124.561 244.35 125.031C243.129 126.8 241.937 128.589 240.675 130.329C239.766 131.583 238.684 131.773 237.383 130.774C232.436 126.985 232.411 126.92 235.749 121.702C238.783 116.959 238.932 116.94 243.129 120.773C243.933 121.508 244.907 122.157 244.807 123.467H244.812Z" fill="white"/>
<path d="M225.255 115.635C224.043 115.445 222.876 114.95 222.33 113.631C221.724 112.172 221.694 110.727 222.96 109.543C223.492 109.048 223.988 108.668 224.103 107.803C224.291 106.349 225.121 105.305 226.73 105.18C228.344 105.055 229.426 105.864 230.082 107.269C230.743 108.678 230.688 110.117 229.506 111.177C228.741 111.862 228.299 112.526 228.076 113.541C227.778 114.875 226.75 115.55 225.255 115.63V115.635Z" fill="white"/>
<path d="M231.408 117.959C232.138 118.164 232.302 118.669 231.984 119.223C231.324 120.388 230.594 121.518 229.864 122.637C229.595 123.047 229.173 123.142 228.751 122.867C228.473 122.687 228.354 122.367 228.533 122.067C229.322 120.768 230.132 119.478 230.951 118.199C231.036 118.069 231.259 118.029 231.408 117.954V117.959Z" fill="white"/>
<path d="M234.746 112.656C235.337 112.761 235.704 113.166 235.505 113.561C235.048 114.451 234.82 115.625 233.658 115.89C233.201 115.995 232.804 115.49 233.002 115.035C233.405 114.111 233.752 113.091 234.75 112.651L234.746 112.656Z" fill="white"/>
<path d="M128.083 87.4672C128.872 87.5472 129.612 88.082 129.722 87.0074C129.821 86.0278 129.915 85.0433 128.877 84.3886C126.29 82.7643 126.101 81.4748 128.147 79.4407C128.858 78.736 129.831 78.3512 129.93 77.0667C129.98 76.427 130.988 76.357 131.068 77.0567C131.217 78.3262 131.986 78.646 132.95 78.9809C133.402 79.1358 133.864 79.4807 133.734 80.0754C133.605 80.6802 133.079 80.7351 132.572 80.7201C131.991 80.7001 131.455 80.6902 131.375 81.4848C131.301 82.2395 131.664 82.5843 132.344 82.8092C134.042 83.364 134.961 84.4785 134.817 86.3827C134.678 88.1519 133.64 88.9816 132.051 89.3164C131.102 89.5163 131.281 90.276 131.236 90.9257C131.197 91.4655 131.306 92.1402 130.482 92.1252C129.806 92.1152 129.751 91.5455 129.781 91.0457C129.866 89.6013 128.684 90.0811 127.988 89.8012C127.268 89.5113 126.31 89.3414 126.548 88.2419C126.762 87.2423 127.621 87.4372 128.098 87.4622L128.083 87.4672ZM132.617 85.9729C132.602 85.4981 132.349 85.1032 131.917 85.0533C131.276 84.9833 131.395 85.583 131.385 85.9529C131.375 86.3227 131.231 86.9225 131.872 86.8725C132.289 86.8425 132.553 86.4327 132.617 85.9679V85.9729Z" fill="white"/>
<path d="M109.106 36.7291C110.164 36.7841 110.919 36.969 110.899 36.0095C110.879 35.1748 111.356 34.2202 110.085 33.6655C107.388 32.481 107.199 30.182 109.538 28.2678C110.73 27.2932 112.081 27.1883 114.023 27.883C114.609 28.0929 115.27 28.2228 115.205 29.0475C115.14 29.8471 114.53 29.992 113.874 30.012C113.308 30.027 112.732 30.007 112.672 30.8017C112.618 31.5114 113.099 31.7813 113.641 31.9612C115.2 32.476 115.801 33.5805 115.866 35.1848C115.93 36.8241 114.932 37.6837 113.735 38.3434C112.906 38.7982 112.32 39.2281 112.419 40.2776C112.459 40.7224 112.235 41.1622 111.684 41.1372C111.207 41.1172 111.133 40.6974 111.152 40.3226C111.222 39.0731 110.417 38.9982 109.484 38.9082C108.63 38.8282 107.606 38.6233 107.765 37.4538C107.904 36.4093 108.853 36.7241 109.106 36.7241V36.7291ZM112.414 35.2248C112.538 35.6546 112.225 36.4193 112.896 36.4093C113.497 36.3993 113.914 35.7646 113.968 35.1298C114.023 34.5151 113.616 33.9953 113.04 33.9853C112.19 33.9653 112.528 34.755 112.414 35.2248Z" fill="white"/>
<path d="M149.691 42.4117C149.87 41.2872 149.284 40.9223 148.44 40.6125C146.592 39.9327 146.25 38.4584 147.521 36.9091C148.345 35.8995 149.721 35.2848 149.711 33.6804C149.711 33.3406 150.034 33.1857 150.382 33.2256C150.729 33.2606 150.993 33.4905 150.993 33.8054C150.998 34.9299 151.678 35.2148 152.627 35.3447C153.178 35.4197 153.704 35.7945 153.59 36.4742C153.491 37.054 152.969 37.1789 152.448 37.1589C151.827 37.134 151.221 37.019 151.112 37.9586C151.012 38.8082 151.35 39.1481 152.115 39.408C153.426 39.8528 154.37 40.7824 154.409 42.2268C154.444 43.6911 153.679 44.8506 152.338 45.4204C151.519 45.7702 151.221 46.245 151.221 47.0847C151.221 47.6544 151.057 48.2442 150.357 48.2991C149.647 48.3541 149.612 47.7594 149.612 47.2746C149.607 46.255 148.852 46.1651 148.142 45.9551C147.382 45.7302 146.443 45.5353 146.692 44.4358C146.945 43.3313 147.769 43.7911 148.475 43.951C150.034 44.3059 149.438 42.9564 149.701 42.4217L149.691 42.4117ZM151.062 42.3817C151.137 42.7665 150.898 43.4162 151.499 43.4162C152.11 43.4162 152.403 42.8465 152.448 42.2417C152.487 41.697 152.343 41.2022 151.678 41.2472C150.948 41.2922 151.137 41.9269 151.062 42.3867V42.3817Z" fill="white"/>
<path d="M41.9708 89.3364C41.9708 88.8466 41.9708 88.3568 41.9708 87.862C41.9658 87.1024 41.5089 86.0778 42.4922 85.7579C43.6395 85.3831 44.9059 85.3331 45.9439 86.2527C46.6987 86.9174 47.0712 87.7221 46.659 88.6967C46.4703 89.1415 46.0829 89.5313 46.5845 89.9661C47.3841 90.6558 47.4834 91.3605 46.7434 92.1602C45.631 93.3647 44.146 93.5646 42.7058 93.3747C41.6529 93.2347 42.0304 92.1052 41.9807 91.3605C41.936 90.6908 41.9708 90.0111 41.9708 89.3364ZM45.3678 88.017C45.2039 87.4372 44.7271 87.1673 44.2205 87.0324C43.7487 86.9075 43.3315 87.0724 43.4309 87.6821C43.5004 88.1019 43.1279 88.8716 43.853 88.8466C44.3447 88.8266 45.0549 88.6767 45.3678 88.017ZM45.8743 90.9857C45.328 90.7608 44.8413 90.4859 44.3248 90.361C43.8033 90.236 43.3812 90.4009 43.416 91.0906C43.4408 91.5255 43.3911 92.0052 44.0417 91.8953C44.6625 91.7853 45.3578 91.8053 45.8743 90.9857Z" fill="white"/>
<path d="M52.579 92.7849C51.0195 93.6246 49.3459 93.2247 47.7119 93.2497C47.7119 92.9449 47.702 92.64 47.697 92.3301C47.8113 92.2252 47.9255 92.1202 48.0397 92.0153C48.1887 91.9953 48.3377 91.9703 48.4917 91.9503C49.619 90.9507 49.4402 87.987 48.1837 87.3523C47.7864 87.1524 47.6722 86.8925 47.6474 86.5026C47.6126 85.9229 48.0397 85.9679 48.3824 85.9779C49.5396 85.9979 50.6967 86.0378 51.8539 86.0928C52.2512 86.1128 52.5442 86.3327 52.6237 86.7475C52.6932 87.1024 52.4946 87.4172 52.1817 87.4322C49.4601 87.5422 50.9947 89.6063 50.7116 90.7708C50.3094 92.4151 52.0774 91.4155 52.5244 92.0952C52.5393 92.3251 52.5591 92.555 52.579 92.7899V92.7849Z" fill="white"/>
<path d="M53.1004 92.1452C53.1451 90.426 53.1997 88.7067 53.2245 86.9875C53.2345 86.4077 53.2394 85.773 53.9496 85.733C54.7244 85.683 54.7343 86.3777 54.7294 86.9225C54.7095 88.2119 54.7294 89.5114 54.5704 90.7858C54.3966 92.1552 54.9528 92.3501 56.0653 91.9903C56.413 91.8803 56.7854 91.8453 57.1231 91.7154C57.7191 91.4855 58.1214 91.8004 58.3101 92.2502C58.5435 92.8249 57.8979 93.0698 57.595 93.0848C56.0852 93.1548 54.4065 94.8241 53.0905 92.705C53.0954 92.5201 53.1004 92.3351 53.1054 92.1502L53.1004 92.1452Z" fill="white"/>
<path d="M63.2467 91.7004C63.8427 92.3301 63.6539 92.9149 62.9338 93.1048C61.8213 93.3947 60.6642 93.5596 59.5169 93.6296C58.8018 93.6746 58.4641 93.1548 58.4939 92.4051C58.5733 90.5659 58.623 88.7217 58.6925 86.8825C58.7124 86.4027 58.6478 85.9029 59.4325 85.9479C60.2222 85.9929 60.0831 86.5226 60.0782 86.9774C60.0682 88.3918 60.0583 89.8062 59.9937 91.2206C59.959 91.9853 60.0484 92.4751 60.9671 92.0503L61.0565 92.1402L61.1112 92.0203C61.5035 91.9503 61.8958 91.8753 62.2882 91.8054C62.606 91.7704 62.9288 91.7354 63.2467 91.6954V91.7004Z" fill="white"/>
<path d="M53.1 92.1452C53.095 92.3301 53.0901 92.5201 53.0851 92.7C52.9164 92.73 52.7477 92.76 52.5839 92.7899C52.569 92.555 52.5492 92.3251 52.5343 92.0952C52.7229 92.1152 52.9164 92.1302 53.105 92.1502L53.1 92.1452Z" fill="#61CE70"/>
<path d="M63.2459 91.7004C62.9234 91.7354 62.6058 91.7754 62.2882 91.8104C62.576 91.4805 62.8886 91.3655 63.2459 91.7004Z" fill="#61CE70"/>
<path d="M47.7029 92.3301C47.7078 92.635 47.7128 92.9449 47.7178 93.2497C47.493 92.9449 47.543 92.64 47.7029 92.3301Z" fill="#61CE70"/>
<path d="M61.1109 92.0246L61.0564 92.1434L60.9622 92.0493L61.0217 91.9503L61.1109 92.0246Z" fill="#61CE70"/>
<path d="M85.2031 172.5C85.2478 171.396 85.511 170.271 86.7278 170.137C87.3883 170.062 88.2376 170.601 88.2326 171.616C88.2276 172.88 88.62 174.37 87.1648 175.054C85.819 175.694 85.5756 174.48 85.2677 173.555C85.4663 173.19 85.372 172.845 85.2081 172.5H85.2031Z" fill="white"/>
<path d="M85.2031 172.5C85.368 172.845 85.4679 173.195 85.2631 173.555C85.2431 173.2 85.2231 172.85 85.2031 172.5Z" fill="#61CE70"/>
<path d="M85.2329 153.859C85.5706 152.924 85.9083 151.814 87.1797 152.199C88.5803 152.624 88.2574 153.968 88.2276 155.028C88.2028 155.953 87.9644 157.042 86.8967 157.152C85.4763 157.297 85.3968 156.023 85.2031 155.003C85.2131 154.623 85.218 154.243 85.228 153.859H85.2329Z" fill="white"/>
<path d="M85.233 153.859C85.223 154.238 85.218 154.623 85.208 155.003C85.218 154.618 85.223 154.238 85.233 153.859Z" fill="#61CE70"/>
<path d="M91.1479 172.351C91.3565 171.316 91.5501 170.162 92.8464 170.107C93.5814 170.077 94.1525 170.756 94.227 171.546C94.3462 172.815 94.5747 174.245 93.2288 174.999C92.4342 175.449 91.5452 175.294 91.3714 174.075C91.2969 173.53 91.2174 172.985 91.1379 172.446L91.2323 172.396L91.1429 172.346L91.1479 172.351Z" fill="white"/>
<path d="M91.1477 172.351L91.242 172.4L91.1477 172.45L91.0734 172.405L91.1477 172.351Z" fill="#61CE70"/>
<path d="M85.218 137.241C85.218 136.851 85.218 136.461 85.218 136.071C85.2577 136.046 85.3273 136.016 85.3273 135.986C85.3273 135.901 85.2975 135.816 85.2776 135.726C85.516 135.107 85.7792 134.507 86.4199 134.197C86.6831 134.192 86.9463 134.182 87.2095 134.177C88.024 134.867 88.3468 135.791 88.2674 136.816C88.1879 137.83 88.1978 139.03 86.8271 139.22C85.3521 139.425 85.5905 138.065 85.223 137.271L85.3074 137.261L85.218 137.246V137.241Z" fill="white"/>
<path d="M87.2039 134.177C86.9409 134.187 86.6779 134.192 86.4149 134.197C86.6779 134.187 86.9409 134.182 87.2039 134.177Z" fill="#61CE70"/>
<path d="M85.273 135.726C85.2929 135.811 85.3229 135.896 85.3229 135.986C85.3229 136.016 85.253 136.041 85.213 136.071C85.233 135.956 85.253 135.841 85.273 135.731V135.726Z" fill="#61CE70"/>
<path d="M85.218 137.241L85.3023 137.256L85.218 137.266V137.241Z" fill="#61CE70"/>
<path d="M94.2766 117.994C94.2766 118.119 94.2766 118.239 94.2667 118.364C94.222 119.468 94.2965 120.643 93.0748 121.228C92.3596 121.573 91.8481 121.093 91.5849 120.543C90.9541 119.239 90.9641 117.869 91.7885 116.665C92.454 115.695 93.7304 116.37 94.2717 117.954L94.1724 117.969L94.2717 117.989L94.2766 117.994Z" fill="white"/>
<path d="M94.2765 117.994L94.1724 117.974L94.2715 117.959L94.2765 117.994Z" fill="#61CE70"/>
<path d="M132.616 85.9779C132.556 86.4377 132.289 86.8425 131.872 86.8725C131.232 86.9225 131.375 86.3227 131.385 85.9529C131.395 85.578 131.276 84.9833 131.916 85.0533C132.343 85.0982 132.601 85.4981 132.616 85.9779Z" fill="#FDD249"/>
<path d="M112.419 35.2248C112.533 34.755 112.195 33.9653 113.045 33.9853C113.616 33.9953 114.028 34.5151 113.973 35.1298C113.914 35.7646 113.501 36.3993 112.901 36.4093C112.23 36.4193 112.548 35.6596 112.419 35.2248Z" fill="#FDD249"/>
<path d="M151.062 42.3767C151.137 41.9219 150.948 41.2872 151.678 41.2422C152.343 41.1972 152.487 41.692 152.448 42.2368C152.403 42.8415 152.11 43.4112 151.499 43.4112C150.898 43.4112 151.137 42.7615 151.067 42.3717L151.062 42.3767Z" fill="#FDD249"/>
<path d="M45.3678 88.012C45.05 88.6717 44.3398 88.8216 43.8531 88.8416C43.1329 88.8716 43.5005 88.102 43.4309 87.6771C43.3316 87.0674 43.7488 86.9025 44.2206 87.0274C44.7321 87.1624 45.2039 87.4273 45.3678 88.012Z" fill="#060246"/>
<path d="M45.8744 90.9807C45.3579 91.8004 44.6626 91.7804 44.0418 91.8903C43.3912 92.0053 43.4409 91.5205 43.4161 91.0857C43.3813 90.396 43.8034 90.231 44.3249 90.356C44.8464 90.4809 45.3281 90.7508 45.8744 90.9807Z" fill="#060246"/>
</g>
<defs>
<clipPath id="clip0_2535_138">
<rect width="271" height="220" fill="white"/>
</clipPath>
</defs>
</svg>
