<svg width="64" height="64" viewBox="0 0 64 64" fill="none" xmlns="http://www.w3.org/2000/svg">
<rect width="64" height="64" rx="32" fill="#42794A"/>
<path d="M47.9927 20.8707H38.4747V18.1513C38.4747 17.4301 38.1882 16.7384 37.6782 16.2284C37.1682 15.7184 36.4765 15.4319 35.7552 15.4319H27.597C26.8757 15.4319 26.184 15.7184 25.674 16.2284C25.1641 16.7384 24.8775 17.4301 24.8775 18.1513V20.8707H15.3596C14.6383 20.8707 13.9466 21.1572 13.4366 21.6672C12.9266 22.1772 12.6401 22.8689 12.6401 23.5902V45.3456C12.6401 46.0668 12.9266 46.7585 13.4366 47.2685C13.9466 47.7785 14.6383 48.065 15.3596 48.065H47.9927C48.7139 48.065 49.4056 47.7785 49.9156 47.2685C50.4256 46.7585 50.7121 46.0668 50.7121 45.3456V23.5902C50.7121 22.8689 50.4256 22.1772 49.9156 21.6672C49.4056 21.1572 48.7139 20.8707 47.9927 20.8707ZM27.597 18.1513H35.7552V20.8707H27.597V18.1513ZM47.9927 23.5902V35.8276H15.3596V23.5902H47.9927ZM15.3596 45.3456V38.547H47.9927V45.3456H15.3596Z" fill="white"/>
<path d="M30.3163 34.4678H33.0357C33.3963 34.4678 33.7421 34.3246 33.9971 34.0696C34.2521 33.8146 34.3954 33.4687 34.3954 33.1081C34.3954 32.7475 34.2521 32.4017 33.9971 32.1467C33.7421 31.8917 33.3963 31.7484 33.0357 31.7484H30.3163C29.9556 31.7484 29.6098 31.8917 29.3548 32.1467C29.0998 32.4017 28.9565 32.7475 28.9565 33.1081C28.9565 33.4687 29.0998 33.8146 29.3548 34.0696C29.6098 34.3246 29.9556 34.4678 30.3163 34.4678Z" fill="white"/>
</svg>
