<svg width="24" height="24" viewBox="0 0 24 24" fill="none" xmlns="http://www.w3.org/2000/svg">
<path d="M5 15.0002C4.06812 15.0002 3.60218 15.0002 3.23463 14.848C2.74458 14.645 2.35523 14.2556 2.15224 13.7656C2 13.398 2 12.9321 2 12.0002V5.20024C2 4.08014 2 3.52008 2.21799 3.09226C2.40973 2.71593 2.71569 2.40997 3.09202 2.21823C3.51984 2.00024 4.0799 2.00024 5.2 2.00024H12C12.9319 2.00024 13.3978 2.00024 13.7654 2.15248C14.2554 2.35547 14.6448 2.74482 14.8478 3.23487C15 3.60242 15 4.06836 15 5.00024M12.2 22.0002H18.8C19.9201 22.0002 20.4802 22.0002 20.908 21.7822C21.2843 21.5905 21.5903 21.2845 21.782 20.9082C22 20.4804 22 19.9203 22 18.8002V12.2002C22 11.0801 22 10.52 21.782 10.0922C21.5903 9.71593 21.2843 9.40997 20.908 9.21823C20.4802 9.00024 19.9201 9.00024 18.8 9.00024H12.2C11.0799 9.00024 10.5198 9.00024 10.092 9.21823C9.71569 9.40997 9.40973 9.71593 9.21799 10.0922C9 10.52 9 11.0801 9 12.2002V18.8002C9 19.9203 9 20.4804 9.21799 20.9082C9.40973 21.2845 9.71569 21.5905 10.092 21.7822C10.5198 22.0002 11.0799 22.0002 12.2 22.0002Z" stroke="#61CE70" stroke-width="2" stroke-linecap="round" stroke-linejoin="round"/>
</svg>
