<svg width="24" height="24" viewBox="0 0 24 24" fill="none" xmlns="http://www.w3.org/2000/svg">
<path d="M17.5176 7.21706C17.5176 7.42933 17.5106 7.63733 17.4953 7.83679C17.4813 8.03626 17.4332 8.29866 17.3546 8.62613C17.2749 8.95253 17.1705 9.25226 17.0403 9.52533C16.9113 9.79839 16.7201 10.0853 16.4668 10.3851C16.2146 10.6859 15.9155 10.9344 15.5684 11.1349C15.2224 11.3344 14.7825 11.5008 14.2489 11.6341C13.7153 11.7675 13.1171 11.8347 12.4533 11.8347H7.18953C6.80014 11.8347 6.48465 11.5435 6.48465 11.1829V9.34933H6.48699C7.30095 9.34933 8.32602 9.34933 9.398 9.34826H12.5975C13.0069 9.34826 13.3165 9.16159 13.4701 8.82346C13.6214 8.49066 13.5499 8.16319 13.2661 7.89972C12.2609 6.96639 11.2452 6.02879 10.2976 5.15626C10.0794 4.95466 9.80733 4.87253 9.51177 4.91733C9.1517 4.97279 8.89954 5.16799 8.78577 5.48053C8.66849 5.80586 8.7459 6.10773 9.01096 6.35519C9.39917 6.71573 9.79091 7.07519 10.2002 7.45066L10.4242 7.65759H6.48347L6.4823 3.07093C6.48347 2.71253 6.7978 2.42133 7.18601 2.42133H12.4533C13.8806 2.42133 15.0816 2.85119 16.0551 3.71093C17.0309 4.56853 17.5176 5.73866 17.5176 7.21706Z" fill="#94CA9C"/>
<path d="M17.5176 16.9621C17.5176 17.1744 17.5105 17.3824 17.4953 17.5819C17.4812 17.7813 17.4331 18.0437 17.3545 18.3712C17.2748 18.6976 17.1704 18.9973 17.0402 19.2704C16.9112 19.5435 16.72 19.8304 16.4667 20.1301C16.2145 20.4299 15.9154 20.6795 15.5683 20.88C15.2223 21.0795 14.7825 21.2459 14.2488 21.3792C13.7152 21.5125 13.117 21.5797 12.4532 21.5797H7.18945C6.80007 21.5797 6.48457 21.2885 6.48457 20.928V19.9979L6.4834 12.8139C6.48457 12.4555 6.79889 12.1643 7.18711 12.1643H12.4544C13.8817 12.1643 15.0827 12.5941 16.0562 13.4539C16.4737 13.824 16.8033 14.2496 17.0426 14.7339C16.3013 14.7339 15.383 14.7339 14.4119 14.7349H10.9086C10.4992 14.7349 10.1896 14.9205 10.0348 15.2597C9.88466 15.5925 9.9562 15.9211 10.24 16.1835C11.2381 17.1104 12.2573 18.0501 13.2085 18.9269C13.388 19.0923 13.6026 19.1776 13.8383 19.1776C13.8899 19.1776 13.9415 19.1733 13.9955 19.1648C14.3556 19.1093 14.6077 18.9141 14.7215 18.6005C14.8388 18.2763 14.7614 17.9744 14.4951 17.7269C14.1069 17.3653 13.7152 17.0059 13.3047 16.6304L13.083 16.4256H17.4941C17.5093 16.6016 17.5176 16.7797 17.5176 16.9621Z" fill="#94CA9C"/>
</svg>
