<svg width="64" height="64" viewBox="0 0 64 64" fill="none" xmlns="http://www.w3.org/2000/svg">
<rect width="64" height="64" rx="32" fill="#42794A"/>
<path d="M47.9206 17.1312H15.2875C13.2235 17.1339 11.5511 18.8064 11.5483 20.8704V42.6258C11.5511 44.6899 13.2235 46.3623 15.2875 46.365H47.9206C49.9847 46.3623 51.6571 44.6899 51.6599 42.6258V20.8704C51.6571 18.8064 49.9847 17.1339 47.9206 17.1312ZM15.2875 19.1708H47.9206C48.8588 19.1722 49.6189 19.9322 49.6203 20.8704V22.5701H13.5879V20.8704C13.5893 19.9322 14.3493 19.1722 15.2875 19.1708ZM47.9206 44.3255H15.2875C14.3493 44.3241 13.5893 43.564 13.5879 42.6258V24.6096H49.6203V42.6258C49.6189 43.564 48.8588 44.3241 47.9206 44.3255ZM22.9631 33.9617C24.9415 33.9617 26.546 32.3573 26.546 30.3789C26.546 28.4005 24.9415 26.7961 22.9631 26.7961C20.9847 26.7961 19.3803 28.4005 19.3803 30.3789C19.3816 32.3573 20.9847 33.959 22.9631 33.9617ZM22.9631 28.8356C23.8157 28.8356 24.5064 29.5264 24.5064 30.3789C24.5064 31.2314 23.8157 31.9222 22.9631 31.9222C22.1106 31.9222 21.4199 31.2314 21.4199 30.3789C21.4212 29.5264 22.1106 28.837 22.9631 28.8356ZM22.9631 35.5703C20.0397 35.5825 17.5963 37.6234 16.9668 40.3565L16.9586 40.3986C16.9437 40.4639 16.9355 40.5387 16.9355 40.6162C16.9355 41.1791 17.3924 41.636 17.9553 41.636C18.4407 41.636 18.8473 41.296 18.9493 40.8405L18.9506 40.8337C19.3708 38.9764 21.0065 37.6099 22.9631 37.6099C24.9198 37.6099 26.5555 38.9764 26.9702 40.8065L26.9756 40.8337C27.0803 41.2933 27.4855 41.6319 27.9709 41.6319C28.5339 41.6319 28.9907 41.175 28.9907 40.6121C28.9907 40.536 28.9826 40.4625 28.9663 40.3905L28.9676 40.3973C28.3299 37.6221 25.8879 35.5825 22.9658 35.5689H22.9645L22.9631 35.5703ZM45.2012 28.0089H34.3235C33.7606 28.0089 33.3037 28.4658 33.3037 29.0287C33.3037 29.5916 33.7606 30.0485 34.3235 30.0485H45.2012C45.7641 30.0485 46.221 29.5916 46.221 29.0287C46.221 28.4658 45.7641 28.0089 45.2012 28.0089ZM45.2012 33.4478H34.3235C33.7606 33.4478 33.3037 33.9046 33.3037 34.4676C33.3037 35.0305 33.7606 35.4873 34.3235 35.4873H45.2012C45.7641 35.4873 46.221 35.0305 46.221 34.4676C46.221 33.9046 45.7641 33.4478 45.2012 33.4478ZM45.2012 38.8866H34.3235C33.7606 38.8866 33.3037 39.3435 33.3037 39.9064C33.3037 40.4693 33.7606 40.9262 34.3235 40.9262H45.2012C45.7641 40.9262 46.221 40.4693 46.221 39.9064C46.221 39.3435 45.7641 38.8866 45.2012 38.8866Z" fill="white"/>
</svg>
