<svg width="44" height="44" viewBox="0 0 44 44" fill="none" xmlns="http://www.w3.org/2000/svg">
<path d="M40.26 37.1341L33.9025 19.3585C33.456 18.1891 32.4566 17.4661 31.3084 17.4661C30.1602 17.4661 29.1822 18.1891 28.6931 19.401L22.3569 37.1341C22.0592 37.9633 22.4844 38.8776 23.3137 39.1753C24.1429 39.473 25.0572 39.0477 25.3549 38.2185L26.6732 34.54H35.9224L37.2407 38.2185C37.4746 38.8776 38.0912 39.2816 38.7504 39.2816C38.9205 39.2816 39.1118 39.2603 39.2819 39.1966C40.1112 38.8989 40.5364 37.9846 40.2387 37.1553L40.26 37.1341ZM27.8426 31.3294L31.3297 21.5698L34.8168 31.3294H27.8426ZM22.4206 12.6395C17.6153 20.2303 13.2777 24.823 8.00457 27.8848C7.74942 28.0337 7.47301 28.0975 7.21785 28.0975C6.66502 28.0975 6.13346 27.821 5.83578 27.3107C5.38927 26.5453 5.64442 25.5672 6.40987 25.142C10.875 22.5479 14.5322 18.827 18.6359 12.6608H5.26169C4.38992 12.6608 3.66699 11.9379 3.66699 11.0661C3.66699 10.1943 4.38992 9.47139 5.26169 9.47139H13.2352V5.26139C13.2352 4.38962 13.9581 3.66669 14.8299 3.66669C15.7016 3.66669 16.4246 4.38962 16.4246 5.26139V9.47139H24.3981C25.2698 9.47139 25.9928 10.1943 25.9928 11.0661C25.9928 11.9379 25.2698 12.6608 24.3981 12.6608H22.3994L22.4206 12.6395ZM22.5057 28.0975C22.2293 28.0975 21.9529 28.0337 21.6977 27.8848C20.3156 27.0769 18.9761 26.1838 17.7216 25.2483C17.0199 24.7167 16.8711 23.7174 17.4027 23.0157C17.9342 22.314 18.9336 22.1652 19.6352 22.6968C20.7834 23.5685 22.0379 24.3765 23.3137 25.1207C24.0791 25.5672 24.3343 26.5453 23.8878 27.3107C23.5901 27.821 23.0585 28.0975 22.5057 28.0975Z" fill="#42794A"/>
</svg>
