<svg width="56" height="48" viewBox="0 0 56 48" fill="none" xmlns="http://www.w3.org/2000/svg">
<mask id="mask0_2535_57" style="mask-type:alpha" maskUnits="userSpaceOnUse" x="14" y="16" width="11" height="32">
<path d="M23.849 33.9058C23.8176 33.746 23.7829 33.5873 23.745 33.4299C23.3751 31.8952 22.6958 30.4779 21.7753 29.2449C21.7177 29.1711 21.6607 29.0967 21.6045 29.0217C19.8349 26.6621 18.7893 23.7472 18.7893 20.5926C18.7893 19.2119 18.9896 17.8772 19.3632 16.6148C16.8539 18.5547 15.1617 21.4671 14.8765 24.7729C14.8482 25.1012 14.8337 25.4333 14.8337 25.7687C14.8337 27.1576 15.4599 28.2594 16.1292 29.1337C16.6752 29.847 18.9018 31.8665 19.5362 33.4229C19.7524 33.9534 19.8809 34.3355 20.0177 34.8075L20.0232 34.8267C20.3779 36.0573 20.5682 37.3556 20.5693 38.6974L20.5693 38.7092C20.5693 41.8796 17.7332 44.8079 15.9474 47.1737C20.1456 45.8021 23.3013 42.191 23.9433 37.7842L23.9475 37.7549C23.9777 37.544 24.0021 37.3313 24.0206 37.1169C24.0489 36.7887 24.0634 36.4565 24.0634 36.1211C24.0634 35.3636 23.9897 34.623 23.849 33.9058Z" fill="black"/>
</mask>
<g mask="url(#mask0_2535_57)">
<rect x="14.5703" y="16.4379" width="9.49337" height="30.7358" fill="black"/>
</g>
<mask id="mask1_2535_57" style="mask-type:alpha" maskUnits="userSpaceOnUse" x="16" y="0" width="19" height="35">
<path d="M32.0591 25.5974C29.0572 31.0834 23.1559 34.8135 16.3669 34.8135C16.2511 34.8135 16.1356 34.8125 16.0204 34.8103C22.1682 34.6827 27.3749 30.8008 29.356 25.4066C29.6038 24.732 29.8011 24.0338 29.9435 23.3162C29.9581 23.2429 29.972 23.1694 29.9854 23.0957C30.1339 22.2788 30.2114 21.4378 30.2114 20.5791C30.2114 13.8304 25.4261 8.17863 19.004 6.71381V2.59369V0.0647469C26.9422 1.22173 33.1707 7.5224 34.0583 15.4029C34.1301 16.0402 34.167 16.6879 34.167 17.344C34.167 18.602 34.0315 19.829 33.774 21.0117C33.4206 22.6353 32.8373 24.1753 32.0591 25.5974Z" fill="black"/>
</mask>
<g mask="url(#mask1_2535_57)">
<rect width="15.4267" height="35.4644" transform="matrix(-1 0 0 1 34.167 -0.461382)" fill="black"/>
</g>
<mask id="mask2_2535_57" style="mask-type:alpha" maskUnits="userSpaceOnUse" x="0" y="3" width="19" height="36">
<path d="M2.70135 29.4394C5.70323 34.9254 11.6045 38.6556 18.3936 38.6556C18.5093 38.6556 18.6248 38.6545 18.7401 38.6523C12.5923 38.5247 7.38559 34.6428 5.40444 29.2487C5.15667 28.5741 4.95935 27.8758 4.81695 27.1583C4.8024 27.085 4.78842 27.0114 4.77502 26.9377C4.62654 26.1208 4.54905 25.2799 4.54905 24.4211C4.54905 17.6724 9.33436 12.0207 15.7565 10.5559V6.43573V3.90679C7.8183 5.06378 1.58975 11.3644 0.702121 19.2449C0.630336 19.8822 0.593483 20.5299 0.593483 21.186C0.593483 22.4441 0.728983 23.6711 0.986439 24.8537C1.33989 26.4773 1.92321 28.0174 2.70135 29.4394Z" fill="black"/>
</mask>
<g mask="url(#mask2_2535_57)">
<rect x="0.593704" y="3.38067" width="15.4267" height="35.4644" fill="black"/>
</g>
<mask id="mask3_2535_57" style="mask-type:alpha" maskUnits="userSpaceOnUse" x="14" y="16" width="10" height="31">
<path d="M23.5194 33.4916C23.488 33.3317 23.4533 33.1731 23.4154 33.0156C23.0455 31.4809 22.3662 30.0637 21.4457 28.8307C21.3881 28.7569 21.3311 28.6824 21.2749 28.6075C19.5053 26.2478 18.4597 23.3329 18.4597 20.1783C18.4597 18.7976 18.66 17.4629 19.0336 16.2005C16.5243 18.1405 14.8321 21.0528 14.5469 24.3586C14.5186 24.6869 14.5041 25.019 14.5041 25.3545C14.5041 26.7434 15.1303 27.8451 15.7996 28.7194C16.3456 29.4327 18.5723 31.4522 19.2066 33.0086C19.4228 33.5391 19.5513 33.9212 19.6881 34.3932L19.6936 34.4124C20.0483 35.643 20.2386 36.9414 20.2397 38.2832L20.2397 38.2949C20.2397 41.4653 17.4036 44.3936 15.6179 46.7595C19.816 45.3879 22.9717 41.7768 23.6137 37.37L23.6179 37.3406C23.6481 37.1297 23.6725 36.917 23.691 36.7027C23.7193 36.3744 23.7338 36.0423 23.7338 35.7068C23.7338 34.9494 23.6601 34.2088 23.5194 33.4916Z" fill="url(#paint0_linear_2535_57)"/>
</mask>
<g mask="url(#mask3_2535_57)">
<rect x="14.2407" y="16.0236" width="9.49337" height="30.7358" fill="url(#paint1_linear_2535_57)"/>
</g>
<mask id="mask4_2535_57" style="mask-type:alpha" maskUnits="userSpaceOnUse" x="0" y="3" width="19" height="36">
<path d="M2.10807 29.0791C5.10995 34.5651 11.0113 38.2952 17.8003 38.2952C17.916 38.2952 18.0316 38.2942 18.1468 38.292C11.999 38.1644 6.79231 34.2825 4.81116 28.8883C4.56339 28.2137 4.36607 27.5154 4.22367 26.7979C4.20912 26.7246 4.19514 26.6511 4.18174 26.5774C4.03326 25.7605 3.95578 24.9195 3.95578 24.0608C3.95578 17.3121 8.74109 11.6603 15.1632 10.1955V6.07537V3.54643C7.22502 4.70342 0.996469 11.0041 0.108844 18.8846C0.0370591 19.5219 0.000205994 20.1695 0.000205994 20.8256C0.000205994 22.0837 0.135706 23.3107 0.393162 24.4934C0.746616 26.117 1.32993 27.657 2.10807 29.0791Z" fill="url(#paint2_linear_2535_57)"/>
</mask>
<g mask="url(#mask4_2535_57)">
<rect x="0.000411987" y="3.0203" width="15.4267" height="35.4644" fill="url(#paint3_linear_2535_57)"/>
</g>
<mask id="mask5_2535_57" style="mask-type:alpha" maskUnits="userSpaceOnUse" x="15" y="0" width="19" height="35">
<path d="M31.4656 25.5326C28.4637 31.0186 22.5624 34.7488 15.7734 34.7488C15.6576 34.7488 15.5421 34.7477 15.4268 34.7456C21.5746 34.6179 26.7813 30.736 28.7625 25.3419C29.0102 24.6673 29.2076 23.969 29.35 23.2515C29.3645 23.1782 29.3785 23.1046 29.3919 23.0309C29.5404 22.2141 29.6179 21.3731 29.6179 20.5143C29.6179 13.7656 24.8325 8.11388 18.4104 6.64907V2.52894V0C26.3486 1.15698 32.5772 7.45765 33.4648 15.3381C33.5366 15.9755 33.5734 16.6231 33.5734 17.2792C33.5734 18.5373 33.4379 19.7643 33.1805 20.9469C32.827 22.5705 32.2437 24.1106 31.4656 25.5326Z" fill="url(#paint4_linear_2535_57)"/>
</mask>
<g mask="url(#mask5_2535_57)">
<rect width="15.4267" height="35.4644" transform="matrix(-1 0 0 1 33.5736 -0.526178)" fill="url(#paint5_linear_2535_57)"/>
</g>
<path d="M30.0323 38.6629L31.771 28.19H35.9029C36.6938 28.19 37.3432 28.3417 37.8512 28.6451C38.3626 28.9451 38.7205 29.3627 38.9251 29.898C39.133 30.4298 39.1808 31.0434 39.0683 31.7389C38.9523 32.4378 38.7001 33.0531 38.3114 33.585C37.9262 34.1134 37.4251 34.5259 36.808 34.8225C36.1909 35.1191 35.4784 35.2674 34.6705 35.2674H32.0369L32.3284 33.4929H34.604C35.0335 33.4929 35.4 33.4196 35.7034 33.273C36.0103 33.123 36.254 32.9168 36.4347 32.6543C36.6154 32.3883 36.733 32.0832 36.7875 31.7389C36.8455 31.3878 36.8268 31.0826 36.7313 30.8236C36.6358 30.5645 36.4603 30.3633 36.2046 30.2201C35.9523 30.0735 35.6131 30.0002 35.187 30.0002H33.6938L32.2466 38.6629H30.0323ZM41.0354 38.8112C40.5377 38.8112 40.1064 38.7242 39.7416 38.5504C39.3803 38.3731 39.1144 38.1106 38.9439 37.7629C38.7734 37.4151 38.7308 36.9839 38.8161 36.4691C38.8911 36.0327 39.0325 35.6679 39.2405 35.3748C39.4519 35.0782 39.7092 34.8395 40.0127 34.6588C40.3161 34.4781 40.6519 34.3401 41.0201 34.2446C41.3917 34.1492 41.7752 34.0844 42.1706 34.0503C42.6275 34.0026 42.9991 33.9566 43.2854 33.9122C43.5752 33.8679 43.7917 33.8048 43.9349 33.723C44.0781 33.6378 44.165 33.5117 44.1957 33.3446V33.3139C44.2468 32.9935 44.1871 32.7446 44.0167 32.5673C43.8496 32.3866 43.582 32.2963 43.2138 32.2963C42.8252 32.2963 42.4945 32.3815 42.2218 32.552C41.9525 32.7224 41.7598 32.9389 41.6439 33.2014L39.6598 33.0378C39.8371 32.5605 40.1047 32.148 40.4627 31.8003C40.824 31.4491 41.2587 31.1798 41.7667 30.9923C42.2746 30.8014 42.8439 30.7059 43.4746 30.7059C43.911 30.7059 44.3184 30.7571 44.6968 30.8593C45.0786 30.9616 45.4076 31.1201 45.6838 31.3349C45.9633 31.5497 46.1644 31.8258 46.2872 32.1633C46.4133 32.4974 46.4389 32.898 46.3639 33.3651L45.4792 38.6629H43.4133L43.5974 37.5736H43.536C43.369 37.8191 43.1644 38.0356 42.9224 38.2231C42.6803 38.4072 42.4025 38.5521 42.0888 38.6578C41.7752 38.76 41.424 38.8112 41.0354 38.8112ZM41.9098 37.3077C42.2269 37.3077 42.5184 37.2447 42.7843 37.1185C43.0536 36.989 43.2752 36.8151 43.4491 36.5969C43.6263 36.3787 43.7388 36.1316 43.7866 35.8554L43.9195 35.0219C43.8513 35.0662 43.7525 35.1054 43.6229 35.1395C43.4968 35.1736 43.3587 35.206 43.2087 35.2367C43.0621 35.264 42.9138 35.2895 42.7638 35.3134C42.6138 35.3338 42.4792 35.3543 42.3599 35.3748C42.0973 35.4123 41.8621 35.4719 41.6542 35.5537C41.4462 35.6356 41.2774 35.7463 41.1479 35.8861C41.0184 36.0225 40.9382 36.1929 40.9076 36.3975C40.8598 36.6941 40.9297 36.9208 41.1172 37.0776C41.3081 37.231 41.5723 37.3077 41.9098 37.3077ZM47.4642 41.6084C47.1847 41.6084 46.929 41.5862 46.6972 41.5419C46.4654 41.501 46.2745 41.4481 46.1245 41.3834L46.8915 39.7572C47.1336 39.8356 47.3535 39.8765 47.5512 39.8799C47.7523 39.8833 47.9364 39.8322 48.1035 39.7265C48.2705 39.6208 48.4239 39.447 48.5637 39.2049L48.758 38.8725L47.2853 30.8082H49.4944L50.1592 36.5867H50.241L52.8439 30.8082H55.232L50.737 39.5117C50.5154 39.9379 50.2529 40.3078 49.9495 40.6214C49.6495 40.9351 49.2933 41.1771 48.8807 41.3476C48.4716 41.5214 47.9995 41.6084 47.4642 41.6084Z" fill="#252525"/>
<path d="M24.541 47.2064V43.7155H25.9388C26.1956 43.7155 26.4098 43.7536 26.5814 43.8297C26.753 43.9058 26.882 44.0115 26.9683 44.1467C27.0547 44.2808 27.0979 44.4354 27.0979 44.6104C27.0979 44.7468 27.0706 44.8666 27.0161 44.9701C26.9615 45.0723 26.8865 45.1564 26.7911 45.2223C26.6968 45.2871 26.5888 45.3331 26.4672 45.3604V45.3945C26.6002 45.4002 26.7246 45.4377 26.8405 45.507C26.9576 45.5763 27.0524 45.6735 27.1252 45.7985C27.1979 45.9223 27.2343 46.0701 27.2343 46.2417C27.2343 46.4269 27.1882 46.5922 27.0962 46.7377C27.0053 46.882 26.8706 46.9962 26.6922 47.0803C26.5138 47.1644 26.2939 47.2064 26.0325 47.2064H24.541ZM25.2791 46.603H25.8808C26.0865 46.603 26.2365 46.5638 26.3308 46.4854C26.4252 46.4059 26.4723 46.3002 26.4723 46.1684C26.4723 46.0718 26.449 45.9865 26.4024 45.9127C26.3558 45.8388 26.2894 45.7809 26.203 45.7388C26.1178 45.6968 26.0161 45.6757 25.8979 45.6757H25.2791V46.603ZM25.2791 45.1763H25.8263C25.9274 45.1763 26.0172 45.1587 26.0956 45.1235C26.1752 45.0871 26.2377 45.036 26.2831 44.9701C26.3297 44.9041 26.353 44.8252 26.353 44.7331C26.353 44.607 26.3081 44.5053 26.2183 44.428C26.1297 44.3507 26.0036 44.3121 25.8399 44.3121H25.2791V45.1763ZM30.8308 43.7155H31.5689V45.9826C31.5689 46.2371 31.5081 46.4598 31.3865 46.6508C31.266 46.8417 31.0973 46.9905 30.8802 47.0974C30.6632 47.203 30.4104 47.2559 30.1217 47.2559C29.8319 47.2559 29.5785 47.203 29.3615 47.0974C29.1444 46.9905 28.9757 46.8417 28.8552 46.6508C28.7348 46.4598 28.6745 46.2371 28.6745 45.9826V43.7155H29.4126V45.9195C29.4126 46.0525 29.4416 46.1706 29.4995 46.274C29.5586 46.3775 29.6416 46.4587 29.7484 46.5178C29.8552 46.5769 29.9797 46.6064 30.1217 46.6064C30.2649 46.6064 30.3893 46.5769 30.495 46.5178C30.6018 46.4587 30.6842 46.3775 30.7422 46.274C30.8013 46.1706 30.8308 46.0525 30.8308 45.9195V43.7155ZM35.0299 44.7195C35.0163 44.582 34.9578 44.4752 34.8544 44.399C34.751 44.3229 34.6106 44.2848 34.4333 44.2848C34.3129 44.2848 34.2112 44.3019 34.1282 44.336C34.0453 44.3689 33.9816 44.4149 33.9373 44.474C33.8941 44.5331 33.8725 44.6002 33.8725 44.6752C33.8703 44.7377 33.8833 44.7922 33.9117 44.8388C33.9413 44.8854 33.9816 44.9257 34.0328 44.9598C34.0839 44.9928 34.143 45.0218 34.21 45.0468C34.2771 45.0706 34.3487 45.0911 34.4248 45.1081L34.7385 45.1831C34.8907 45.2172 35.0305 45.2627 35.1578 45.3195C35.2851 45.3763 35.3953 45.4462 35.4885 45.5292C35.5816 45.6121 35.6538 45.7098 35.7049 45.8223C35.7572 45.9348 35.7839 46.0638 35.7851 46.2093C35.7839 46.4229 35.7294 46.6081 35.6214 46.765C35.5146 46.9206 35.3601 47.0417 35.1578 47.128C34.9566 47.2133 34.714 47.2559 34.4299 47.2559C34.1481 47.2559 33.9026 47.2127 33.6936 47.1263C33.4856 47.04 33.3231 46.9121 33.206 46.7428C33.0901 46.5723 33.0293 46.3615 33.0237 46.1104H33.7379C33.7458 46.2275 33.7793 46.3252 33.8384 46.4036C33.8987 46.4809 33.9788 46.5394 34.0788 46.5792C34.1799 46.6178 34.2941 46.6371 34.4214 46.6371C34.5464 46.6371 34.6549 46.6189 34.747 46.5826C34.8402 46.5462 34.9123 46.4956 34.9635 46.4309C35.0146 46.3661 35.0402 46.2917 35.0402 46.2076C35.0402 46.1292 35.0169 46.0633 34.9703 46.0098C34.9248 45.9564 34.8578 45.911 34.7691 45.8735C34.6816 45.836 34.5742 45.8019 34.447 45.7712L34.0669 45.6757C33.7725 45.6042 33.5401 45.4922 33.3697 45.3399C33.1992 45.1877 33.1146 44.9826 33.1157 44.7246C33.1146 44.5132 33.1708 44.3286 33.2845 44.1706C33.3992 44.0127 33.5566 43.8894 33.7566 43.8007C33.9566 43.7121 34.1839 43.6678 34.4384 43.6678C34.6975 43.6678 34.9237 43.7121 35.1169 43.8007C35.3112 43.8894 35.4623 44.0127 35.5703 44.1706C35.6782 44.3286 35.7339 44.5115 35.7373 44.7195H35.0299ZM37.9796 43.7155V47.2064H37.2415V43.7155H37.9796ZM42.4668 43.7155V47.2064H41.8293L40.3105 45.0093H40.2849V47.2064H39.5469V43.7155H40.1946L41.7014 45.911H41.7321V43.7155H42.4668ZM44.0366 47.2064V43.7155H46.3889V44.324H44.7747V45.1559H46.2679V45.7644H44.7747V46.5979H46.3957V47.2064H44.0366ZM49.8295 44.7195C49.8159 44.582 49.7573 44.4752 49.6539 44.399C49.5505 44.3229 49.4102 44.2848 49.2329 44.2848C49.1125 44.2848 49.0107 44.3019 48.9278 44.336C48.8448 44.3689 48.7812 44.4149 48.7369 44.474C48.6937 44.5331 48.6721 44.6002 48.6721 44.6752C48.6698 44.7377 48.6829 44.7922 48.7113 44.8388C48.7409 44.8854 48.7812 44.9257 48.8323 44.9598C48.8835 44.9928 48.9426 45.0218 49.0096 45.0468C49.0767 45.0706 49.1483 45.0911 49.2244 45.1081L49.538 45.1831C49.6903 45.2172 49.8301 45.2627 49.9574 45.3195C50.0846 45.3763 50.1949 45.4462 50.288 45.5292C50.3812 45.6121 50.4534 45.7098 50.5045 45.8223C50.5568 45.9348 50.5835 46.0638 50.5846 46.2093C50.5835 46.4229 50.529 46.6081 50.421 46.765C50.3142 46.9206 50.1596 47.0417 49.9574 47.128C49.7562 47.2133 49.5136 47.2559 49.2295 47.2559C48.9477 47.2559 48.7022 47.2127 48.4931 47.1263C48.2852 47.04 48.1227 46.9121 48.0056 46.7428C47.8897 46.5723 47.8289 46.3615 47.8232 46.1104H48.5374C48.5454 46.2275 48.5789 46.3252 48.638 46.4036C48.6982 46.4809 48.7784 46.5394 48.8784 46.5792C48.9795 46.6178 49.0937 46.6371 49.221 46.6371C49.346 46.6371 49.4545 46.6189 49.5466 46.5826C49.6397 46.5462 49.7119 46.4956 49.763 46.4309C49.8142 46.3661 49.8397 46.2917 49.8397 46.2076C49.8397 46.1292 49.8164 46.0633 49.7698 46.0098C49.7244 45.9564 49.6573 45.911 49.5687 45.8735C49.4812 45.836 49.3738 45.8019 49.2465 45.7712L48.8664 45.6757C48.5721 45.6042 48.3397 45.4922 48.1693 45.3399C47.9988 45.1877 47.9141 44.9826 47.9153 44.7246C47.9141 44.5132 47.9704 44.3286 48.084 44.1706C48.1988 44.0127 48.3562 43.8894 48.5562 43.8007C48.7562 43.7121 48.9835 43.6678 49.238 43.6678C49.4971 43.6678 49.7233 43.7121 49.9164 43.8007C50.1108 43.8894 50.2619 44.0127 50.3699 44.1706C50.4778 44.3286 50.5335 44.5115 50.5369 44.7195H49.8295ZM53.9349 44.7195C53.9212 44.582 53.8627 44.4752 53.7593 44.399C53.6559 44.3229 53.5156 44.2848 53.3383 44.2848C53.2178 44.2848 53.1161 44.3019 53.0332 44.336C52.9502 44.3689 52.8866 44.4149 52.8423 44.474C52.7991 44.5331 52.7775 44.6002 52.7775 44.6752C52.7752 44.7377 52.7883 44.7922 52.8167 44.8388C52.8462 44.8854 52.8866 44.9257 52.9377 44.9598C52.9888 44.9928 53.0479 45.0218 53.115 45.0468C53.182 45.0706 53.2536 45.0911 53.3298 45.1081L53.6434 45.1831C53.7957 45.2172 53.9354 45.2627 54.0627 45.3195C54.19 45.3763 54.3002 45.4462 54.3934 45.5292C54.4866 45.6121 54.5588 45.7098 54.6099 45.8223C54.6622 45.9348 54.6889 46.0638 54.69 46.2093C54.6889 46.4229 54.6343 46.6081 54.5264 46.765C54.4195 46.9206 54.265 47.0417 54.0627 47.128C53.8616 47.2133 53.619 47.2559 53.3349 47.2559C53.053 47.2559 52.8076 47.2127 52.5985 47.1263C52.3905 47.04 52.228 46.9121 52.111 46.7428C51.9951 46.5723 51.9343 46.3615 51.9286 46.1104H52.6428C52.6508 46.2275 52.6843 46.3252 52.7434 46.4036C52.8036 46.4809 52.8837 46.5394 52.9837 46.5792C53.0849 46.6178 53.1991 46.6371 53.3263 46.6371C53.4513 46.6371 53.5599 46.6189 53.6519 46.5826C53.7451 46.5462 53.8173 46.4956 53.8684 46.4309C53.9195 46.3661 53.9451 46.2917 53.9451 46.2076C53.9451 46.1292 53.9218 46.0633 53.8752 46.0098C53.8298 45.9564 53.7627 45.911 53.6741 45.8735C53.5866 45.836 53.4792 45.8019 53.3519 45.7712L52.9718 45.6757C52.6775 45.6042 52.4451 45.4922 52.2746 45.3399C52.1042 45.1877 52.0195 44.9826 52.0206 44.7246C52.0195 44.5132 52.0758 44.3286 52.1894 44.1706C52.3042 44.0127 52.4616 43.8894 52.6616 43.8007C52.8616 43.7121 53.0888 43.6678 53.3434 43.6678C53.6025 43.6678 53.8286 43.7121 54.0218 43.8007C54.2161 43.8894 54.3673 44.0127 54.4752 44.1706C54.5832 44.3286 54.6389 44.5115 54.6423 44.7195H53.9349Z" fill="#777777"/>
<defs>
<linearGradient id="paint0_linear_2535_57" x1="19.2837" y1="16.6147" x2="18.9893" y2="47.3505" gradientUnits="userSpaceOnUse">
<stop stop-color="#53DE00"/>
<stop offset="1" stop-color="#8EFA00"/>
</linearGradient>
<linearGradient id="paint1_linear_2535_57" x1="19.1568" y1="16.4403" x2="18.8672" y2="47.354" gradientUnits="userSpaceOnUse">
<stop stop-color="#53DE00"/>
<stop offset="1" stop-color="#8EFA00"/>
</linearGradient>
<linearGradient id="paint2_linear_2535_57" x1="17.8003" y1="-0.526071" x2="17.8003" y2="46.7598" gradientUnits="userSpaceOnUse">
<stop stop-color="#054C00"/>
<stop offset="1" stop-color="#8AFB00"/>
</linearGradient>
<linearGradient id="paint3_linear_2535_57" x1="15.1326" y1="-1.13607" x2="15.1326" y2="47.1236" gradientUnits="userSpaceOnUse">
<stop stop-color="#054C00"/>
<stop offset="1" stop-color="#8AFB00"/>
</linearGradient>
<linearGradient id="paint4_linear_2535_57" x1="15.7734" y1="-4.07251" x2="15.7734" y2="43.2134" gradientUnits="userSpaceOnUse">
<stop stop-color="#054C00"/>
<stop offset="1" stop-color="#8AFB00"/>
</linearGradient>
<linearGradient id="paint5_linear_2535_57" x1="15.1321" y1="-4.15637" x2="15.1321" y2="44.1033" gradientUnits="userSpaceOnUse">
<stop stop-color="#054C00"/>
<stop offset="1" stop-color="#8AFB00"/>
</linearGradient>
</defs>
</svg>
