<svg width="44" height="44" viewBox="0 0 44 44" fill="none" xmlns="http://www.w3.org/2000/svg">
<path d="M26.5127 22.4231C24.8392 22.4231 23.2033 21.9269 21.8117 20.997C20.4202 20.0674 19.3358 18.7458 18.6954 17.1996C18.0548 15.6535 17.8874 13.9522 18.2139 12.3108C18.5404 10.6694 19.3462 9.16171 20.5297 7.97833C21.7129 6.79496 23.2206 5.98908 24.862 5.6626C26.5033 5.3361 28.2046 5.50366 29.7509 6.1441C31.297 6.78453 32.6186 7.86907 33.5482 9.26056C34.4781 10.6521 34.9743 12.288 34.9743 13.9615C34.9743 16.2057 34.0828 18.3579 32.4961 19.9449C30.9091 21.5316 28.757 22.4231 26.5127 22.4231ZM26.5127 8.88462C25.5086 8.88462 24.5271 9.18237 23.6922 9.74023C22.8574 10.2981 22.2066 11.091 21.8224 12.0187C21.4381 12.9464 21.3374 13.9672 21.5333 14.952C21.7294 15.9368 22.2127 16.8414 22.9228 17.5515C23.6329 18.2616 24.5375 18.7451 25.5222 18.941C26.5071 19.1368 27.5279 19.0362 28.4555 18.6519C29.3834 18.2677 30.1763 17.6169 30.734 16.7821C31.2918 15.9472 31.5897 14.9657 31.5897 13.9615C31.5897 12.6151 31.0547 11.3237 30.1027 10.3716C29.1505 9.4195 27.8591 8.88462 26.5127 8.88462Z" fill="#42794A"/>
<path d="M42.3079 38.2179C41.8609 38.2121 41.4338 38.032 41.1177 37.7159C40.8015 37.3998 40.6215 36.9726 40.6156 36.5256C40.6156 32.1256 38.2238 29.1923 26.5131 29.1923C14.8023 29.1923 12.4105 32.1256 12.4105 36.5256C12.4105 36.9744 12.2322 37.405 11.9148 37.7222C11.5975 38.0397 11.167 38.2179 10.7182 38.2179C10.2694 38.2179 9.83891 38.0397 9.52154 37.7222C9.20418 37.405 9.02588 36.9744 9.02588 36.5256C9.02588 25.8077 21.2782 25.8077 26.5131 25.8077C31.7479 25.8077 44.0002 25.8077 44.0002 36.5256C43.9944 36.9726 43.8143 37.3998 43.4982 37.7159C43.1821 38.032 42.7549 38.2121 42.3079 38.2179Z" fill="#42794A"/>
<path d="M13.6961 24.2505H12.9741C11.1788 24.077 9.52595 23.1974 8.37917 21.8052C7.23242 20.413 6.68567 18.6223 6.85921 16.8269C7.03277 15.0316 7.91239 13.3788 9.30457 12.232C10.6968 11.0853 12.4875 10.5385 14.2828 10.7121C14.513 10.722 14.7388 10.7788 14.9462 10.879C15.1537 10.9792 15.3385 11.1207 15.4894 11.2949C15.6402 11.4691 15.7539 11.6722 15.8235 11.8919C15.893 12.1115 15.917 12.3431 15.8939 12.5723C15.8709 12.8016 15.8012 13.0237 15.6893 13.2251C15.5773 13.4265 15.4254 13.6029 15.2429 13.7435C15.0603 13.8841 14.851 13.9859 14.6277 14.0428C14.4044 14.0996 14.1719 14.1103 13.9443 14.0741C13.5039 14.0302 13.0591 14.0755 12.6365 14.2073C12.2139 14.3391 11.8223 14.5547 11.4849 14.8413C11.1422 15.1177 10.858 15.4596 10.6488 15.847C10.4395 16.2344 10.3096 16.6595 10.2664 17.0977C10.2197 17.5413 10.2618 17.9899 10.3902 18.417C10.5186 18.8444 10.7308 19.2417 11.0143 19.586C11.2978 19.9306 11.647 20.2151 12.0416 20.4232C12.4362 20.6312 12.8682 20.7587 13.3125 20.7982C14.0471 20.8611 14.7825 20.6872 15.411 20.3018C15.794 20.0655 16.2552 19.9908 16.6932 20.0946C17.1312 20.1982 17.5099 20.4717 17.7464 20.8546C17.9829 21.2377 18.0573 21.6989 17.9538 22.1369C17.85 22.5749 17.5765 22.9537 17.1936 23.19C16.147 23.8574 14.9371 24.2243 13.6961 24.2505Z" fill="#42794A"/>
<path d="M1.69231 36.5257C1.24529 36.5198 0.818242 36.3397 0.502119 36.0236C0.186018 35.7075 0.0058441 35.2803 0 34.8334C0 28.741 1.62462 24.6795 9.58974 24.6795C10.0386 24.6795 10.469 24.8578 10.7864 25.1752C11.1037 25.4925 11.2821 25.923 11.2821 26.3718C11.2821 26.8206 11.1037 27.2511 10.7864 27.5684C10.469 27.8859 10.0386 28.0641 9.58974 28.0641C4.28718 28.0641 3.38462 29.7564 3.38462 34.8334C3.37877 35.2803 3.1986 35.7075 2.8825 36.0236C2.56637 36.3397 2.13932 36.5198 1.69231 36.5257Z" fill="#42794A"/>
</svg>
