<svg width="64" height="64" viewBox="0 0 64 64" fill="none" xmlns="http://www.w3.org/2000/svg">
<rect width="64" height="64" rx="32" fill="#42794A"/>
<path d="M13.4033 15.4314L13.8836 15.5914C16.2768 16.3892 17.4733 16.788 18.1577 17.7376C18.8422 18.6872 18.8422 19.9485 18.8422 22.4711V27.2155C18.8422 32.3433 18.8422 34.9072 20.4352 36.5002C22.0282 38.0932 24.5921 38.0932 29.7199 38.0932H44.2235" stroke="white" stroke-width="1.81295" stroke-linecap="round"/>
<path d="M23.3742 42.6256C24.8761 42.6256 26.0936 43.8432 26.0936 45.345C26.0936 46.8469 24.8761 48.0645 23.3742 48.0645C21.8723 48.0645 20.6548 46.8469 20.6548 45.345C20.6548 43.8432 21.8723 42.6256 23.3742 42.6256Z" stroke="white" stroke-width="1.81295"/>
<path d="M39.6911 42.6256C41.193 42.6256 42.4105 43.843 42.4105 45.345C42.4105 46.8469 41.193 48.0645 39.6911 48.0645C38.1893 48.0645 36.9717 46.8469 36.9717 45.345C36.9717 43.843 38.1893 42.6256 39.6911 42.6256Z" stroke="white" stroke-width="1.81295"/>
<path d="M29.7196 26.3091H24.2808" stroke="white" stroke-width="1.81295" stroke-linecap="round"/>
<path d="M18.8418 20.8702H39.6008C43.3264 20.8702 45.189 20.8702 45.9953 22.0926C46.8013 23.315 46.0674 25.0272 44.5998 28.4516L43.8228 30.2646C43.1377 31.8632 42.795 32.6625 42.1139 33.1118C41.4328 33.5609 40.5631 33.5609 38.8238 33.5609H18.8418" stroke="white" stroke-width="1.81295"/>
</svg>
