<svg width="44" height="44" viewBox="0 0 44 44" fill="none" xmlns="http://www.w3.org/2000/svg">
<path d="M25.2365 3.94579C24.5625 3.66669 23.7084 3.66669 21.9999 3.66669C20.2914 3.66669 19.4373 3.66669 18.7633 3.94579C17.865 4.31794 17.1511 5.03175 16.779 5.93018C16.6091 6.34031 16.5426 6.81727 16.5166 7.513C16.4784 8.53543 15.9541 9.48182 15.068 9.99339C14.1819 10.5049 13.1002 10.4858 12.1956 10.0077C11.5801 9.6824 11.1338 9.50149 10.6936 9.44356C9.72949 9.31662 8.75441 9.57789 7.98291 10.1699C7.40427 10.6139 6.97716 11.3537 6.12294 12.8332C5.26871 14.3128 4.8416 15.0526 4.7464 15.7757C4.61947 16.7398 4.88074 17.7149 5.47274 18.4864C5.74294 18.8386 6.1227 19.1345 6.7121 19.5049C7.57855 20.0494 8.13604 20.9768 8.13599 22C8.13593 23.0232 7.57845 23.9505 6.71208 24.4948C6.12261 24.8653 5.74279 25.1614 5.47256 25.5136C4.88056 26.2851 4.61929 27.26 4.74623 28.2242C4.84142 28.9473 5.26853 29.6872 6.12275 31.1667C6.97699 32.6462 7.4041 33.3861 7.98272 33.83C8.75423 34.422 9.7293 34.6832 10.6935 34.5563C11.1335 34.4984 11.5798 34.3175 12.1953 33.9922C13.0999 33.5141 14.1818 33.495 15.0679 34.0065C15.954 34.5182 16.4784 35.4646 16.5166 36.4872C16.5426 37.1828 16.6091 37.6598 16.779 38.0699C17.1511 38.9683 17.865 39.6822 18.7633 40.0543C19.4373 40.3334 20.2914 40.3334 21.9999 40.3334C23.7084 40.3334 24.5625 40.3334 25.2365 40.0543C26.1348 39.6822 26.8487 38.9683 27.2207 38.0699C27.3906 37.6598 27.4572 37.1828 27.4832 36.487C27.5214 35.4646 28.0457 34.5182 28.9317 34.0065C29.8178 33.4948 30.8996 33.5141 31.8044 33.9922C32.4198 34.3175 32.8661 34.4982 33.3061 34.5562C34.2702 34.6832 35.2454 34.422 36.0168 33.83C36.5954 33.3859 37.0226 32.6462 37.8768 31.1665C38.7311 29.687 39.1583 28.9473 39.2534 28.2242C39.3803 27.26 39.119 26.2849 38.527 25.5134C38.2568 25.1612 37.8769 24.8652 37.2875 24.4948C36.4213 23.9505 35.8638 23.023 35.8638 21.9998C35.8638 20.9767 36.4213 20.0495 37.2875 19.5052C37.8771 19.1347 38.257 18.8388 38.5272 18.4864C39.1192 17.715 39.3805 16.7399 39.2536 15.7758C39.1584 15.0527 38.7313 14.3129 37.8769 12.8334C37.0228 11.3538 36.5956 10.614 36.017 10.17C35.2456 9.57801 34.2704 9.31675 33.3063 9.44369C32.8663 9.50162 32.42 9.68251 31.8044 10.0078C30.8998 10.4859 29.818 10.5051 28.9319 9.99345C28.0457 9.48186 27.5214 8.5354 27.4832 7.51291C27.4572 6.81723 27.3906 6.34029 27.2207 5.93018C26.8487 5.03175 26.1348 4.31794 25.2365 3.94579Z" stroke="#42794A" stroke-width="3"/>
<path d="M16 15H20.5M20.5 15C22.9853 15 25 16.7629 25 18.9375C25 21.1121 22.9853 22.875 20.5 22.875H16L23 29M20.5 15H28M16 18.9375H28" stroke="#42794A" stroke-width="2" stroke-linecap="round" stroke-linejoin="round"/>
</svg>
