<svg width="24" height="24" viewBox="0 0 24 24" fill="none" xmlns="http://www.w3.org/2000/svg">
<rect x="0.5" y="0.5" width="23" height="23" rx="11.5" stroke="#EEEEEE"/>
<g clip-path="url(#clip0_2535_1302)">
<path d="M21.5018 10.7704C21.3281 10.2739 20.8548 9.91734 20.2989 9.91734H20.2873C19.9259 9.91734 19.6002 10.0677 19.3684 10.3092C19.1362 10.0677 18.8105 9.91734 18.4495 9.91734H18.4379C18.1202 9.91734 17.8298 10.0337 17.6068 10.2261V10.1283C17.5992 10.0308 17.519 9.95415 17.4199 9.95415H16.5672C16.4629 9.95415 16.3787 10.0384 16.3787 10.143V14.7736C16.3787 14.8783 16.463 14.9625 16.5672 14.9625H17.4199C17.515 14.9625 17.5932 14.8914 17.6057 14.7996L17.6053 11.4754C17.6053 11.4638 17.6057 11.453 17.6069 11.4421C17.6205 11.2937 17.7292 11.1718 17.9009 11.1565H18.0581C18.1299 11.1629 18.1905 11.1882 18.2382 11.2263C18.3124 11.2852 18.3537 11.3759 18.3537 11.4754L18.3569 14.7832C18.3569 14.8879 18.4415 14.9726 18.5454 14.9726H19.3981C19.4987 14.9726 19.5806 14.8924 19.5855 14.7925L19.5851 11.4711C19.5847 11.3619 19.6352 11.2633 19.7238 11.2047C19.7675 11.1766 19.8201 11.1578 19.8806 11.1522H20.0378C20.2223 11.1682 20.3338 11.3082 20.3335 11.4711L20.3367 14.7744C20.3367 14.8791 20.4213 14.9633 20.5252 14.9633H21.3779C21.4817 14.9633 21.5664 14.879 21.5664 14.7744V11.2216C21.5664 10.9794 21.5391 10.8763 21.5018 10.7704ZM15.7291 9.96624H15.2413V9.17369C15.2413 9.07864 15.1644 9.00165 15.0693 9.00165C15.0581 9.00165 15.0473 9.00326 15.0368 9.00524C14.4961 9.15364 14.6044 9.90249 13.6174 9.96624H13.5215C13.507 9.96624 13.4934 9.96823 13.4801 9.97106H13.4794L13.4801 9.97144C13.3959 9.99027 13.3325 10.0649 13.3325 10.1547V11.0075C13.3325 11.1114 13.4172 11.196 13.5214 11.196H14.036L14.0352 14.8119C14.0352 14.9149 14.1186 14.9984 14.2217 14.9984H15.0648C15.1675 14.9984 15.2509 14.9149 15.2509 14.8119L15.2513 11.196H15.729C15.8329 11.196 15.9175 11.1114 15.9175 11.0075V10.1548C15.9176 10.0509 15.833 9.96624 15.7291 9.96624Z" fill="#54C1F0"/>
<path d="M12.661 9.96622H11.8083C11.7044 9.96622 11.6202 10.0509 11.6202 10.1547V11.9179C11.6182 12.027 11.5299 12.1144 11.4204 12.1144H11.0635C10.9528 12.1144 10.8634 12.0254 10.8634 11.9147L10.8601 10.1547C10.8601 10.0509 10.7755 9.96622 10.6717 9.96622H9.81887C9.71456 9.96622 9.63038 10.0509 9.63038 10.1547V12.0872C9.63038 12.8212 10.1538 13.3446 10.8882 13.3446C10.8882 13.3446 11.4393 13.3446 11.4561 13.3478C11.5556 13.359 11.633 13.4425 11.633 13.5452C11.633 13.6467 11.5571 13.7297 11.4588 13.7421C11.454 13.7429 11.4496 13.7441 11.4444 13.7449L10.1974 13.7494C10.0931 13.7494 10.0089 13.834 10.0089 13.9378V14.7902C10.0089 14.8945 10.0932 14.9787 10.1974 14.9787H11.5916C12.3263 14.9787 12.8493 14.4557 12.8493 13.7213V10.1548C12.8495 10.0509 12.7653 9.96622 12.661 9.96622ZM4.48232 9.96606H2.61849C2.51625 9.96606 2.43359 10.049 2.43359 10.151V10.9864C2.43359 10.9881 2.43398 10.9897 2.43398 10.9913C2.43398 10.9952 2.43359 10.9993 2.43359 11.0029V14.7843C2.43359 14.887 2.51058 14.9708 2.60609 14.9732H3.47487C3.57872 14.9732 3.66336 14.8889 3.66336 14.7847L3.66658 13.4888H4.48239C5.16505 13.4888 5.64076 13.0151 5.64076 12.3296V11.1268C5.64069 10.4413 5.16497 9.96606 4.48232 9.96606ZM4.40732 12.0549C4.40732 12.1652 4.31785 12.255 4.20757 12.255L3.6665 12.2554V11.201H4.20757C4.31785 11.201 4.40732 11.29 4.40732 11.4007V12.0549ZM7.80979 9.97089H6.62663C6.52194 9.97089 6.43729 10.0503 6.43729 10.1477V10.4794C6.43729 10.4814 6.43768 10.4839 6.43768 10.4859C6.43768 10.4882 6.43729 10.4907 6.43729 10.4931V10.9475C6.43729 11.0506 6.52714 11.1348 6.6378 11.1348H7.76449C7.85349 11.1488 7.92413 11.2137 7.93415 11.3152V11.4251C7.92413 11.5218 7.85433 11.5923 7.76931 11.6004H7.2114C6.46936 11.6004 5.94076 12.0933 5.94076 12.7856V13.7771C5.94076 14.4653 6.3952 14.955 7.13196 14.955H8.67819C8.95576 14.955 9.18076 14.7449 9.18076 14.4861V11.2508C9.18076 10.4663 8.77645 9.97089 7.80979 9.97089ZM7.94541 13.6637C7.94541 13.6746 7.9438 13.685 7.94219 13.695C7.94018 13.7044 7.9375 13.7137 7.93415 13.7227C7.90768 13.7973 7.83306 13.8514 7.74444 13.8514H7.38949C7.27882 13.8514 7.18852 13.7672 7.18852 13.6637V13.5029C7.18852 13.5009 7.18813 13.4989 7.18813 13.4968L7.18852 13.0688V12.9349L7.1889 12.9337C7.18928 12.8306 7.27875 12.7472 7.38941 12.7472H7.74436C7.85548 12.7472 7.94533 12.831 7.94533 12.9349V13.6637H7.94541Z" fill="#233266"/>
</g>
<defs>
<clipPath id="clip0_2535_1302">
<rect width="19.1327" height="6" fill="white" transform="translate(2.43359 9)"/>
</clipPath>
</defs>
</svg>
