<svg width="24" height="24" viewBox="0 0 24 24" fill="none" xmlns="http://www.w3.org/2000/svg">
<path d="M11.9999 23.0687C18.0631 23.0687 22.9782 18.1167 22.9782 12.0082C22.9782 5.89956 18.0631 0.947571 11.9999 0.947571C5.93667 0.947571 1.02148 5.89956 1.02148 12.0082C1.02148 18.1167 5.93667 23.0687 11.9999 23.0687Z" fill="#5F259F"/>
<path d="M16.9623 9.10009C16.9623 8.67531 16.6217 8.31589 16.1839 8.31589H14.7244L11.3677 4.41119C11.0596 4.05176 10.5569 3.90472 10.1028 4.03542L8.91902 4.37851C8.74064 4.42753 8.69199 4.65625 8.82172 4.78695L12.5028 8.33222H6.89199C6.72983 8.33222 6.6001 8.46292 6.6001 8.6263V9.26347C6.6001 9.68825 6.94064 10.0477 7.37848 10.0477H8.23794V13.0375C8.23794 15.2594 9.42172 16.5991 11.3839 16.5991C11.9839 16.5991 12.5028 16.5337 13.0866 16.2887V18.2818C13.0866 18.821 13.5244 19.2621 14.0596 19.2621H14.9028C15.0974 19.2621 15.2758 19.0987 15.2758 18.8863V10.0313H16.6866C16.8487 10.0313 16.9785 9.90064 16.9785 9.73726L16.9623 9.10009ZM13.0866 14.4098C12.746 14.5732 12.2433 14.6549 11.8704 14.6549C10.865 14.6549 10.4109 14.1484 10.4109 13.0211V10.0313H13.0866V14.4098Z" fill="white"/>
</svg>
