<svg width="271" height="220" viewBox="0 0 270 237" fill="none" xmlns="http://www.w3.org/2000/svg">
<g clip-path="url(#clip0_2535_715)">
<path d="M244.655 214.714C243.696 216.284 242.702 217.823 241.665 219.326C227.867 239.327 205.416 252.681 183.784 258.43C174.307 260.953 164.614 262.149 154.966 262.268C91.6809 263.019 69.8724 208.012 49.8681 193.454C29.8638 178.897 -0.770355 154.124 4.46332 103.896C8.43664 65.707 30.2483 29.6604 68.7784 14.002C73.0223 12.2718 77.4729 10.7895 82.1234 9.58532C90.7747 7.34378 100.122 6.03806 110.162 5.83394C138.999 5.2448 162.197 13.1002 184.598 31.9424C189.805 36.3223 194.97 41.2439 201.857 41.9481C206.863 42.46 211.667 40.7028 206.556 35.5075C200.549 29.4006 207.964 17.8911 223.394 26.4236C249.167 40.6747 259.151 70.2327 263.439 100.136C268.702 136.841 264.506 182.209 244.655 214.714Z" fill="#92E3A9"/>
<path opacity="0.7" d="M244.655 214.714C243.696 216.284 242.702 217.823 241.665 219.326C227.867 239.327 205.416 252.681 183.784 258.43C174.307 260.953 164.614 262.149 154.966 262.268C91.6809 263.019 69.8724 208.012 49.8681 193.454C29.8638 178.897 -0.770355 154.124 4.46332 103.896C8.43664 65.707 30.2483 29.6604 68.7784 14.002C73.0223 12.2718 77.4729 10.7895 82.1234 9.58532C90.7747 7.34378 100.122 6.03806 110.162 5.83394C138.999 5.2448 162.197 13.1002 184.598 31.9424C189.805 36.3223 194.97 41.2439 201.857 41.9481C206.863 42.46 211.667 40.7028 206.556 35.5075C200.549 29.4006 207.964 17.8911 223.394 26.4236C249.167 40.6747 259.151 70.2327 263.439 100.136C268.702 136.841 264.506 182.209 244.655 214.714Z" fill="white"/>
<path d="M205.955 235.999L185.933 240.257C184.42 240.579 182.932 239.613 182.61 238.1L173.738 196.379C173.416 194.866 174.382 193.378 175.895 193.056L195.917 188.798C197.43 188.477 198.917 189.443 199.239 190.956L208.112 232.677C208.434 234.19 207.468 235.677 205.955 235.999Z" stroke="#263238" stroke-width="0.5" stroke-miterlimit="10" stroke-linecap="round" stroke-linejoin="round"/>
<path d="M189.848 193.973L198.214 192.194L206.672 231.963L183.636 236.862L175.178 197.093L187.327 194.51" stroke="#263238" stroke-width="0.5" stroke-miterlimit="10" stroke-linecap="round" stroke-linejoin="round"/>
<path d="M239.916 228.777L219.894 233.035C218.381 233.357 216.894 232.391 216.572 230.877L207.699 189.157C207.377 187.643 208.343 186.156 209.856 185.834L229.877 181.576C231.391 181.254 232.878 182.22 233.2 183.733L242.073 225.454C242.395 226.967 241.429 228.455 239.916 228.777Z" stroke="#263238" stroke-width="0.5" stroke-miterlimit="10" stroke-linecap="round" stroke-linejoin="round"/>
<path d="M231.968 226.583L217.596 229.639L209.139 189.87L232.174 184.971L240.632 224.74L234.315 226.083" stroke="#263238" stroke-width="0.5" stroke-miterlimit="10" stroke-linecap="round" stroke-linejoin="round"/>
<path d="M216.965 180.693L214.738 173.276L212.801 175.332C209.128 173.089 204.687 172.316 200.46 173.215C192.592 174.888 186.959 181.931 187.065 189.963C187.073 190.559 187.562 191.036 188.158 191.028C188.23 191.027 188.302 191.018 188.37 191.004C188.863 190.9 189.23 190.458 189.223 189.935C189.13 182.93 194.045 176.786 200.909 175.325C204.505 174.561 208.141 175.138 211.287 176.942L209.429 178.914L216.965 180.693Z" fill="#263238"/>
<path d="M198.136 242.116L200.363 249.534L202.3 247.477C205.973 249.72 210.414 250.493 214.641 249.595C222.509 247.921 228.142 240.878 228.036 232.846C228.028 232.251 227.539 231.774 226.943 231.782C226.871 231.783 226.799 231.791 226.731 231.805C226.238 231.91 225.871 232.351 225.878 232.874C225.971 239.88 221.056 246.024 214.192 247.484C210.596 248.249 206.96 247.671 203.814 245.868L205.673 243.895L198.136 242.116Z" fill="#263238"/>
<path d="M182.847 199.926L178.229 200.908L179.211 205.526L183.829 204.544L182.847 199.926Z" stroke="#263238" stroke-width="0.5" stroke-miterlimit="10" stroke-linecap="round" stroke-linejoin="round"/>
<path d="M189.774 198.455L185.155 199.438L186.137 204.056L190.756 203.074L189.774 198.455Z" stroke="#263238" stroke-width="0.5" stroke-miterlimit="10" stroke-linecap="round" stroke-linejoin="round"/>
<path d="M196.701 196.982L192.083 197.964L193.065 202.583L197.683 201.6L196.701 196.982Z" stroke="#263238" stroke-width="0.5" stroke-miterlimit="10" stroke-linecap="round" stroke-linejoin="round"/>
<path d="M184.405 207.264L179.787 208.246L180.769 212.865L185.388 211.882L184.405 207.264Z" stroke="#263238" stroke-width="0.5" stroke-miterlimit="10" stroke-linecap="round" stroke-linejoin="round"/>
<path d="M191.333 205.791L186.715 206.773L187.697 211.391L192.315 210.409L191.333 205.791Z" stroke="#263238" stroke-width="0.5" stroke-miterlimit="10" stroke-linecap="round" stroke-linejoin="round"/>
<path d="M198.263 204.315L193.645 205.297L194.627 209.916L199.245 208.933L198.263 204.315Z" stroke="#263238" stroke-width="0.5" stroke-miterlimit="10" stroke-linecap="round" stroke-linejoin="round"/>
<path d="M185.965 214.599L181.347 215.581L182.329 220.2L186.947 219.218L185.965 214.599Z" stroke="#263238" stroke-width="0.5" stroke-miterlimit="10" stroke-linecap="round" stroke-linejoin="round"/>
<path d="M192.895 213.123L188.276 214.106L189.258 218.724L193.877 217.742L192.895 213.123Z" stroke="#263238" stroke-width="0.5" stroke-miterlimit="10" stroke-linecap="round" stroke-linejoin="round"/>
<path d="M199.822 211.651L195.204 212.633L196.186 217.251L200.805 216.269L199.822 211.651Z" stroke="#263238" stroke-width="0.5" stroke-miterlimit="10" stroke-linecap="round" stroke-linejoin="round"/>
<path d="M216.943 192.676L212.324 193.658L213.306 198.276L217.925 197.294L216.943 192.676Z" stroke="#263238" stroke-width="0.5" stroke-miterlimit="10" stroke-linecap="round" stroke-linejoin="round"/>
<path d="M223.87 191.202L219.252 192.184L220.234 196.802L224.852 195.82L223.87 191.202Z" stroke="#263238" stroke-width="0.5" stroke-miterlimit="10" stroke-linecap="round" stroke-linejoin="round"/>
<path d="M230.797 189.731L226.179 190.714L227.161 195.332L231.779 194.35L230.797 189.731Z" stroke="#263238" stroke-width="0.5" stroke-miterlimit="10" stroke-linecap="round" stroke-linejoin="round"/>
<path d="M218.502 200.011L213.884 200.993L214.866 205.611L219.484 204.629L218.502 200.011Z" stroke="#263238" stroke-width="0.5" stroke-miterlimit="10" stroke-linecap="round" stroke-linejoin="round"/>
<path d="M225.428 198.54L220.81 199.522L221.792 204.141L226.41 203.158L225.428 198.54Z" stroke="#263238" stroke-width="0.5" stroke-miterlimit="10" stroke-linecap="round" stroke-linejoin="round"/>
<path d="M232.357 197.067L227.738 198.049L228.72 202.668L233.339 201.685L232.357 197.067Z" stroke="#263238" stroke-width="0.5" stroke-miterlimit="10" stroke-linecap="round" stroke-linejoin="round"/>
<path d="M220.061 207.349L215.442 208.331L216.425 212.949L221.043 211.967L220.061 207.349Z" stroke="#263238" stroke-width="0.5" stroke-miterlimit="10" stroke-linecap="round" stroke-linejoin="round"/>
<path d="M226.988 205.876L222.37 206.858L223.352 211.476L227.971 210.494L226.988 205.876Z" stroke="#263238" stroke-width="0.5" stroke-miterlimit="10" stroke-linecap="round" stroke-linejoin="round"/>
<path d="M233.918 204.399L229.3 205.382L230.282 210L234.9 209.018L233.918 204.399Z" stroke="#263238" stroke-width="0.5" stroke-miterlimit="10" stroke-linecap="round" stroke-linejoin="round"/>
<path d="M241.02 111.264L244.277 106.855L242.29 106.63C242.002 103.597 240.556 100.753 238.253 98.7394C233.967 94.9918 227.586 94.7893 223.081 98.2572C222.747 98.5147 222.684 98.9937 222.942 99.328C222.973 99.3685 223.007 99.4057 223.045 99.4381C223.313 99.673 223.719 99.6936 224.012 99.4678C227.942 96.4428 233.508 96.6204 237.248 99.8896C239.207 101.602 240.423 103.907 240.736 106.455L238.829 106.239L241.02 111.264Z" fill="#263238"/>
<path d="M204.95 117.492L201.692 121.902L203.68 122.126C203.967 125.159 205.414 128.004 207.716 130.017C212.003 133.764 218.383 133.967 222.888 130.499C223.222 130.241 223.285 129.762 223.028 129.428C222.996 129.388 222.962 129.35 222.925 129.318C222.656 129.083 222.25 129.062 221.956 129.288C218.027 132.313 212.461 132.136 208.72 128.866C206.762 127.154 205.546 124.849 205.233 122.301L207.139 122.517L204.95 117.492Z" fill="#263238"/>
<path d="M201.605 98.8621C203.972 95.6059 207.812 93.4885 212.146 93.4885C219.34 93.4885 225.171 99.3194 225.171 106.513C225.171 113.706 219.34 119.537 212.146 119.537C204.953 119.537 199.122 113.706 199.122 106.513C199.122 105.083 199.352 103.707 199.778 102.421" stroke="#263238" stroke-width="0.5" stroke-miterlimit="10" stroke-linecap="round" stroke-linejoin="round"/>
<path d="M219.734 114.104C223.927 109.912 223.927 103.115 219.734 98.9227C215.542 94.7303 208.745 94.7303 204.553 98.9227C200.36 103.115 200.36 109.912 204.553 114.104C208.745 118.297 215.542 118.297 219.734 114.104Z" stroke="#263238" stroke-width="0.5" stroke-miterlimit="10" stroke-linecap="round" stroke-linejoin="round"/>
<path d="M212.239 115.7V113.87C210.97 113.809 210.019 113.399 209.385 112.641C208.75 111.884 208.409 110.717 208.359 109.14L211.186 108.715C211.199 109.355 211.254 109.873 211.353 110.267C211.451 110.662 211.596 110.945 211.787 111.117C211.977 111.29 212.208 111.375 212.48 111.375C212.824 111.375 213.049 111.259 213.154 111.024C213.259 110.79 213.311 110.544 213.311 110.285C213.311 109.669 213.166 109.148 212.877 108.723C212.587 108.299 212.19 107.871 211.685 107.439L210.373 106.312C210.004 105.98 209.668 105.638 209.366 105.287C209.065 104.935 208.821 104.529 208.636 104.068C208.452 103.606 208.359 103.055 208.359 102.414C208.359 101.244 208.695 100.326 209.366 99.6601C210.037 98.9949 210.939 98.6196 212.073 98.5332V96.7776H213.016V98.5143C213.73 98.5515 214.303 98.7146 214.735 99.004C215.166 99.294 215.489 99.6504 215.704 100.075C215.919 100.501 216.068 100.951 216.148 101.425C216.228 101.899 216.274 102.339 216.287 102.746L213.422 103.097C213.41 102.653 213.382 102.266 213.339 101.933C213.296 101.6 213.21 101.345 213.081 101.166C212.951 100.988 212.745 100.904 212.462 100.917C212.153 100.917 211.926 101.046 211.778 101.304C211.631 101.564 211.556 101.822 211.556 102.081C211.556 102.672 211.707 103.15 212.009 103.513C212.311 103.876 212.64 104.218 212.997 104.538L214.254 105.628C214.673 106.011 215.058 106.417 215.409 106.848C215.761 107.279 216.04 107.76 216.25 108.289C216.459 108.819 216.564 109.428 216.564 110.118C216.564 110.771 216.429 111.369 216.158 111.911C215.886 112.453 215.499 112.893 214.994 113.232C214.489 113.571 213.885 113.777 213.183 113.851V115.699H212.239V115.7Z" stroke="#263238" stroke-width="0.5" stroke-miterlimit="10"/>
<path d="M246.271 125.342C247.907 118.337 243.554 111.333 236.55 109.697C229.545 108.062 222.541 112.414 220.905 119.419C219.269 126.423 223.622 133.428 230.626 135.063C237.631 136.699 244.635 132.347 246.271 125.342Z" stroke="#263238" stroke-width="0.5" stroke-miterlimit="10" stroke-linecap="round" stroke-linejoin="round"/>
<path d="M243.493 126.53C241.87 130.399 238.047 133.116 233.589 133.116C227.66 133.116 222.854 128.309 222.854 122.381C222.854 116.452 227.66 111.645 233.589 111.645C239.517 111.645 244.324 116.452 244.324 122.381" stroke="#263238" stroke-width="0.5" stroke-miterlimit="10" stroke-linecap="round" stroke-linejoin="round"/>
<path d="M233.682 131.567V129.738C232.413 129.676 231.461 129.266 230.827 128.509C230.193 127.751 229.851 126.584 229.802 125.007L232.629 124.582C232.641 125.223 232.696 125.74 232.795 126.134C232.893 126.529 233.039 126.812 233.229 126.984C233.42 127.157 233.651 127.243 233.922 127.243C234.266 127.243 234.491 127.127 234.596 126.892C234.701 126.658 234.754 126.412 234.754 126.153C234.754 125.537 234.609 125.017 234.319 124.592C234.03 124.167 233.633 123.739 233.128 123.308L231.815 122.181C231.446 121.848 231.11 121.506 230.809 121.155C230.506 120.804 230.263 120.398 230.079 119.935C229.894 119.474 229.802 118.922 229.802 118.282C229.802 117.112 230.137 116.194 230.809 115.529C231.48 114.863 232.382 114.488 233.516 114.402V112.646H234.458V114.383C235.173 114.42 235.746 114.583 236.177 114.872C236.608 115.162 236.931 115.519 237.147 115.944C237.362 116.369 237.51 116.819 237.59 117.293C237.67 117.767 237.717 118.207 237.729 118.614L234.865 118.966C234.852 118.522 234.825 118.134 234.782 117.801C234.738 117.469 234.653 117.214 234.523 117.035C234.393 116.856 234.187 116.773 233.904 116.785C233.596 116.785 233.368 116.914 233.221 117.173C233.073 117.431 232.999 117.69 232.999 117.949C232.999 118.541 233.15 119.018 233.452 119.381C233.753 119.745 234.083 120.087 234.44 120.407L235.697 121.497C236.115 121.879 236.501 122.286 236.852 122.716C237.204 123.148 237.483 123.629 237.693 124.158C237.902 124.687 238.007 125.297 238.007 125.987C238.007 126.64 237.872 127.238 237.6 127.779C237.329 128.322 236.942 128.762 236.437 129.101C235.932 129.44 235.328 129.646 234.626 129.72V131.568H233.682V131.567Z" stroke="#263238" stroke-width="0.5" stroke-miterlimit="10"/>
<path d="M62.4258 39.6078L52.2214 32.665C51.1446 31.9322 50.8654 30.4656 51.5982 29.3888L61.5612 14.7451C62.294 13.6683 63.7606 13.3891 64.8374 14.1219L90.2746 31.4289C91.3514 32.1617 91.6301 33.6283 90.8978 34.7051L80.9348 49.3488C80.202 50.4256 78.7354 50.7042 77.6586 49.972L65.1398 41.454" stroke="#263238" stroke-width="0.5" stroke-miterlimit="10" stroke-linecap="round" stroke-linejoin="round"/>
<path d="M60.6274 16.1155L57.0498 21.374L86.387 41.3331L89.9646 36.0746L60.6274 16.1155Z" fill="#263238" stroke="#263238" stroke-width="0.5" stroke-miterlimit="10" stroke-linecap="round" stroke-linejoin="round"/>
<path d="M98.6821 46.9998C98.6297 46.976 98.5768 46.9539 98.5255 46.9291C97.7138 46.5305 97.6274 45.41 98.3759 44.897C99.0989 44.4019 99.7723 43.85 100.379 43.2171C101.501 42.0469 102.35 40.7034 102.933 39.1914C103.281 38.2907 103.52 37.3603 103.638 36.4023C103.999 33.448 103.377 30.7166 101.757 28.2175C101.614 27.9977 101.516 27.7693 101.512 27.5047C101.505 26.9869 101.842 26.5198 102.336 26.3642C102.834 26.2071 103.371 26.3907 103.664 26.8238C104.089 27.4529 104.46 28.1138 104.778 28.8029C105.631 30.6508 106.071 32.5937 106.107 34.6279C106.121 35.453 106.062 36.2738 105.93 37.0892C105.926 37.1183 105.927 37.1491 105.926 37.1788C105.861 37.5023 105.797 37.8257 105.733 38.1487C105.721 38.1848 105.708 38.221 105.698 38.2572C105.581 38.6633 105.478 39.0742 105.345 39.4754C104.991 40.5457 104.508 41.5571 103.909 42.5124C102.815 44.2571 101.41 45.7 99.7 46.8464C99.5029 46.9787 99.2852 47.0441 99.0487 47.0479C99.0131 47.0484 98.978 47.05 98.9423 47.0511C98.8543 47.0338 98.7685 47.0171 98.6821 46.9998Z" fill="#263238"/>
<path d="M101.618 36.8543C101.036 39.5705 99.601 41.7451 97.2833 43.33C96.8897 43.5989 96.3988 43.5951 96.0149 43.3294C95.6369 43.0681 95.457 42.6004 95.5672 42.149C95.6363 41.8649 95.7978 41.6425 96.0402 41.4788C96.6148 41.0917 97.1332 40.6402 97.59 40.1186C98.3401 39.2616 98.8947 38.2928 99.2171 37.1999C99.9266 34.7947 99.6118 32.5278 98.2537 30.418C97.887 29.8483 98.0436 29.1463 98.5723 28.8153C99.0869 28.4935 99.7538 28.6398 100.095 29.1533C100.872 30.3208 101.394 31.592 101.649 32.9717C101.847 34.0441 101.872 35.1203 101.72 36.2009C101.69 36.4099 101.655 36.6183 101.618 36.8543Z" fill="#263238"/>
<path d="M97.6714 36.0421C97.3187 37.7059 96.4504 39.0278 95.0437 39.989C94.6652 40.2476 94.2591 40.2676 93.8617 40.0403C93.4702 39.8167 93.2839 39.4614 93.3065 39.011C93.3249 38.6482 93.4961 38.3614 93.7963 38.1573C94.271 37.8344 94.676 37.4413 94.9638 36.9445C95.7938 35.5108 95.7895 34.0754 94.9271 32.6552C94.7581 32.3771 94.669 32.0942 94.7327 31.7713C94.8191 31.3322 95.1587 30.9904 95.5972 30.8997C96.033 30.8095 96.4844 30.9883 96.7339 31.3614C97.37 32.3113 97.7227 33.3583 97.7842 34.501C97.8118 35.0188 97.7729 35.5324 97.6714 36.0421Z" fill="#263238"/>
<path d="M12.2324 104.984H17.7372L24.7037 127.681H44.1227" stroke="#263238" stroke-width="0.5" stroke-miterlimit="10" stroke-linecap="round" stroke-linejoin="round"/>
<path d="M19.4365 110.154H48.4442L45.0158 122.813H23.392" stroke="#263238" stroke-width="0.5" stroke-miterlimit="10" stroke-linecap="round" stroke-linejoin="round"/>
<path d="M29.2666 110.315L30.5151 122.466" stroke="#263238" stroke-width="0.5" stroke-miterlimit="10" stroke-linecap="round" stroke-linejoin="round"/>
<path d="M38.455 110.315L37.207 122.466" stroke="#263238" stroke-width="0.5" stroke-miterlimit="10" stroke-linecap="round" stroke-linejoin="round"/>
<path d="M43.7387 133.59C45.3655 133.59 46.6844 132.271 46.6844 130.644C46.6844 129.017 45.3655 127.698 43.7387 127.698C42.1118 127.698 40.793 129.017 40.793 130.644C40.793 132.271 42.1118 133.59 43.7387 133.59Z" stroke="#263238" stroke-width="0.5" stroke-miterlimit="10" stroke-linecap="round" stroke-linejoin="round"/>
<path d="M25.809 133.59C27.4358 133.59 28.7547 132.271 28.7547 130.644C28.7547 129.017 27.4358 127.699 25.809 127.699C24.1821 127.699 22.8633 129.017 22.8633 130.644C22.8633 132.271 24.1821 133.59 25.809 133.59Z" stroke="#263238" stroke-width="0.5" stroke-miterlimit="10" stroke-linecap="round" stroke-linejoin="round"/>
<path d="M21.4541 116.941H46.6845" stroke="#263238" stroke-width="0.5" stroke-miterlimit="10" stroke-linecap="round" stroke-linejoin="round"/>
<path d="M52.3794 119.429C58.3485 119.429 63.1875 114.59 63.1875 108.621C63.1875 102.652 58.3485 97.8127 52.3794 97.8127C46.4102 97.8127 41.5713 102.652 41.5713 108.621C41.5713 114.59 46.4102 119.429 52.3794 119.429Z" fill="#263238"/>
<path d="M49.2939 107.858L51.3211 111.406L58.4167 104.311" stroke="white" stroke-width="0.5" stroke-miterlimit="10" stroke-linecap="round" stroke-linejoin="round"/>
<path d="M101.692 61.6984C101.692 61.6984 97.749 62.5516 97.5698 66.648C97.3906 70.7444 96.4947 101.297 97.9282 134.921C99.3623 168.546 102.588 206.437 103.126 210.022C103.663 213.606 106.711 213.777 107.786 214.289C108.861 214.801 125.351 215.996 135.03 215.996C144.708 215.996 160.481 214.289 162.453 213.777C164.425 213.265 165.321 209.68 165.858 207.12C166.396 204.56 166.217 200.976 166.217 200.976L168.905 145.333C168.905 145.333 169.98 107.441 169.98 94.64C169.98 81.8387 170.159 68.0131 169.443 65.2823C168.726 62.5516 165.32 60.674 165.32 60.674C165.32 60.674 163.348 59.479 160.481 58.967C157.613 58.4551 154.207 59.1377 154.207 59.1377L114.417 59.3083C114.417 59.3083 113.7 58.4551 111.37 58.7964C109.04 59.1377 104.559 59.479 103.125 60.1621C101.692 60.8446 101.692 61.6984 101.692 61.6984Z" fill="#757575" stroke="#263238" stroke-width="0.5" stroke-miterlimit="10" stroke-linecap="round" stroke-linejoin="round"/>
<path d="M103.664 85.082L104.739 127.923C104.739 127.923 104.739 146.869 105.456 149.088C106.173 151.307 109.579 152.16 111.192 152.502C112.805 152.843 122.484 154.038 136.464 153.868C150.444 153.697 159.048 153.015 161.736 150.796C164.425 148.577 164.245 146.187 164.245 143.969C164.245 141.75 164.604 84.4 164.604 84.4L103.664 85.082Z" fill="#263238" stroke="#263238" stroke-width="0.5" stroke-miterlimit="10" stroke-linecap="round" stroke-linejoin="round"/>
<path d="M160.124 100.273H108.324V138.506H160.124V100.273Z" fill="white" stroke="#263238" stroke-width="0.5" stroke-miterlimit="10" stroke-linecap="round" stroke-linejoin="round"/>
<path d="M107.786 62.7218L103.3 76.8639C103.082 77.4514 103.082 78.0924 103.3 78.6799C103.733 79.8479 104.929 80.5175 106.23 80.4932C113.622 80.3561 123.152 80.2459 135.024 80.2486C146.192 80.2513 155.778 79.9597 159.487 80.3037C161.261 80.4679 162.932 79.4878 163.582 77.9066L163.388 78.4461C163.712 77.6555 163.946 76.2472 163.689 75.4345C162.573 71.8916 160.421 62.9924 159.539 62.2936C158.464 61.4404 155.238 60.7573 154.7 60.7573C154.163 60.7573 116.39 61.0154 113.88 61.3567C111.371 61.698 109.399 60.8443 107.786 62.7218Z" fill="#919191" stroke="#263238" stroke-width="0.5" stroke-miterlimit="10" stroke-linecap="round" stroke-linejoin="round"/>
<path d="M148.995 143.56C148.995 143.56 150.486 147.702 150.983 148.767C151.48 149.832 153.22 150.305 153.965 150.305C154.711 150.305 159.806 149.595 160.551 148.885C161.297 148.175 161.421 145.69 161.173 144.507C160.924 143.323 160.8 143.323 159.681 143.323C158.563 143.323 148.995 143.56 148.995 143.56Z" fill="white" stroke="#263238" stroke-width="0.5" stroke-miterlimit="10" stroke-linecap="round" stroke-linejoin="round"/>
<path d="M106.374 142.968C106.374 142.968 106.002 148.175 107.493 149.122C108.984 150.068 118.8 151.015 118.676 150.423C118.552 149.831 116.564 143.56 115.57 143.323C114.576 143.087 106.374 142.968 106.374 142.968Z" fill="white" stroke="#263238" stroke-width="0.5" stroke-miterlimit="10" stroke-linecap="round" stroke-linejoin="round"/>
<path d="M119.67 144.033C119.67 144.033 121.534 149.358 122.776 150.187C124.019 151.015 125.013 151.133 125.883 151.133C126.753 151.133 140.421 151.37 142.782 151.37C145.143 151.37 147.504 150.541 147.504 150.187C147.504 149.832 144.894 144.507 144.274 144.033C143.652 143.56 142.534 143.56 142.037 143.56C141.54 143.56 121.285 143.441 120.665 143.323C120.042 143.205 119.67 143.323 119.67 144.033Z" fill="white" stroke="#263238" stroke-width="0.5" stroke-miterlimit="10" stroke-linecap="round" stroke-linejoin="round"/>
<path d="M129.984 150.66L137.315 143.796" stroke="#263238" stroke-width="0.5" stroke-miterlimit="10" stroke-linecap="round" stroke-linejoin="round"/>
<path d="M142.037 145.454L139.925 147.347H143.156L142.037 145.454Z" fill="#263238" stroke="#263238" stroke-width="0.5" stroke-miterlimit="10" stroke-linecap="round" stroke-linejoin="round"/>
<path d="M124.517 147.702L126.256 149.713L128.369 147.939L124.517 147.702Z" fill="#263238" stroke="#263238" stroke-width="0.5" stroke-miterlimit="10" stroke-linecap="round" stroke-linejoin="round"/>
<path d="M158.688 145.811H153.097V146.752H158.688V145.811Z" fill="#263238"/>
<path d="M114.078 145.811H108.486V146.752H114.078V145.811Z" fill="#263238"/>
<path d="M110.351 156.34C110.351 156.34 109.987 156.288 109.482 156.283C108.667 156.276 107.485 156.392 106.872 157.05C105.877 158.114 106.5 162.509 107.12 163.321C108.17 164.695 119.422 165.569 120.416 165.333C121.41 165.096 122.031 164.86 122.155 163.558C122.28 162.256 122.652 158.943 121.534 157.996C120.416 157.05 110.351 156.34 110.351 156.34Z" stroke="#263238" stroke-width="0.5" stroke-miterlimit="10" stroke-linecap="round" stroke-linejoin="round"/>
<path d="M110.953 157.589C110.953 157.589 110.643 157.55 110.215 157.547C109.523 157.541 108.52 157.629 107.999 158.125C107.155 158.928 107.683 162.246 108.21 162.858C109.101 163.895 118.654 164.555 119.498 164.377C120.341 164.198 120.869 164.02 120.975 163.037C121.08 162.055 121.397 159.554 120.447 158.839C119.498 158.126 110.953 157.589 110.953 157.589Z" fill="#263238" stroke="#263238" stroke-width="0.5" stroke-miterlimit="10" stroke-linecap="round" stroke-linejoin="round"/>
<path d="M110.351 167.437C110.351 167.437 109.987 167.386 109.482 167.381C108.667 167.374 107.485 167.49 106.872 168.147C105.877 169.212 106.5 173.607 107.12 174.418C108.17 175.792 119.422 176.667 120.416 176.43C121.41 176.193 122.031 175.957 122.155 174.655C122.28 173.353 122.652 170.04 121.534 169.094C120.416 168.147 110.351 167.437 110.351 167.437Z" stroke="#263238" stroke-width="0.5" stroke-miterlimit="10" stroke-linecap="round" stroke-linejoin="round"/>
<path d="M110.953 168.687C110.953 168.687 110.643 168.648 110.215 168.645C109.523 168.639 108.52 168.727 107.999 169.223C107.155 170.027 107.683 173.344 108.21 173.957C109.101 174.993 118.654 175.653 119.498 175.475C120.341 175.297 120.869 175.118 120.975 174.135C121.08 173.153 121.397 170.652 120.447 169.938C119.498 169.223 110.953 168.687 110.953 168.687Z" fill="#263238" stroke="#263238" stroke-width="0.5" stroke-miterlimit="10" stroke-linecap="round" stroke-linejoin="round"/>
<path d="M111.08 178.227C111.08 178.227 110.715 178.175 110.21 178.17C109.395 178.163 108.214 178.279 107.6 178.936C106.606 180.001 107.228 184.396 107.848 185.208C108.899 186.581 120.15 187.456 121.144 187.219C122.138 186.983 122.76 186.746 122.884 185.444C123.008 184.143 123.381 180.829 122.263 179.883C121.144 178.937 111.08 178.227 111.08 178.227Z" stroke="#263238" stroke-width="0.5" stroke-miterlimit="10" stroke-linecap="round" stroke-linejoin="round"/>
<path d="M111.68 179.477C111.68 179.477 111.371 179.437 110.942 179.434C110.25 179.429 109.247 179.516 108.726 180.012C107.882 180.816 108.41 184.133 108.937 184.745C109.829 185.782 119.381 186.442 120.225 186.264C121.069 186.085 121.597 185.907 121.702 184.924C121.807 183.942 122.124 181.441 121.174 180.727C120.225 180.012 111.68 179.477 111.68 179.477Z" fill="#263238" stroke="#263238" stroke-width="0.5" stroke-miterlimit="10" stroke-linecap="round" stroke-linejoin="round"/>
<path d="M111.241 188.785C111.241 188.785 110.877 188.733 110.371 188.728C109.556 188.721 108.375 188.837 107.761 189.495C106.767 190.559 107.389 194.955 108.01 195.766C109.06 197.14 120.311 198.014 121.305 197.778C122.299 197.541 122.921 197.305 123.045 196.003C123.169 194.701 123.542 191.388 122.424 190.441C121.306 189.495 111.241 188.785 111.241 188.785Z" stroke="#263238" stroke-width="0.5" stroke-miterlimit="10" stroke-linecap="round" stroke-linejoin="round"/>
<path d="M111.841 190.034C111.841 190.034 111.532 189.995 111.103 189.992C110.412 189.986 109.408 190.074 108.887 190.57C108.044 191.374 108.571 194.691 109.098 195.304C109.99 196.34 119.542 197 120.386 196.822C121.23 196.643 121.758 196.465 121.863 195.482C121.969 194.5 122.285 191.999 121.336 191.285C120.387 190.571 111.841 190.034 111.841 190.034Z" fill="#263238" stroke="#263238" stroke-width="0.5" stroke-miterlimit="10" stroke-linecap="round" stroke-linejoin="round"/>
<path d="M156.918 156.34C156.918 156.34 157.282 156.288 157.787 156.283C158.602 156.276 159.784 156.392 160.397 157.05C161.391 158.114 160.769 162.509 160.149 163.321C159.099 164.695 147.847 165.569 146.853 165.333C145.859 165.096 145.237 164.86 145.113 163.558C144.989 162.256 144.616 158.943 145.735 157.996C146.852 157.05 156.918 156.34 156.918 156.34Z" stroke="#263238" stroke-width="0.5" stroke-miterlimit="10" stroke-linecap="round" stroke-linejoin="round"/>
<path d="M156.317 157.589C156.317 157.589 156.626 157.55 157.055 157.547C157.746 157.541 158.75 157.629 159.271 158.125C160.114 158.928 159.587 162.246 159.06 162.858C158.168 163.895 148.616 164.555 147.772 164.377C146.928 164.198 146.401 164.02 146.295 163.037C146.19 162.055 145.873 159.554 146.823 158.839C147.771 158.126 156.317 157.589 156.317 157.589Z" fill="#263238" stroke="#263238" stroke-width="0.5" stroke-miterlimit="10" stroke-linecap="round" stroke-linejoin="round"/>
<path d="M156.918 167.437C156.918 167.437 157.282 167.386 157.787 167.381C158.602 167.374 159.784 167.49 160.397 168.147C161.391 169.212 160.769 173.607 160.149 174.418C159.099 175.792 147.847 176.667 146.853 176.43C145.859 176.193 145.237 175.957 145.113 174.655C144.989 173.353 144.616 170.04 145.735 169.094C146.852 168.147 156.918 167.437 156.918 167.437Z" stroke="#263238" stroke-width="0.5" stroke-miterlimit="10" stroke-linecap="round" stroke-linejoin="round"/>
<path d="M156.317 168.687C156.317 168.687 156.626 168.648 157.055 168.645C157.746 168.639 158.75 168.727 159.271 169.223C160.114 170.027 159.587 173.344 159.06 173.957C158.168 174.994 148.616 175.653 147.772 175.475C146.928 175.297 146.401 175.118 146.295 174.135C146.19 173.153 145.873 170.652 146.823 169.938C147.771 169.223 156.317 168.687 156.317 168.687Z" fill="#263238" stroke="#263238" stroke-width="0.5" stroke-miterlimit="10" stroke-linecap="round" stroke-linejoin="round"/>
<path d="M156.189 178.227C156.189 178.227 156.553 178.175 157.059 178.17C157.873 178.163 159.055 178.279 159.669 178.936C160.663 180.001 160.041 184.396 159.42 185.208C158.37 186.581 147.118 187.456 146.124 187.219C145.13 186.983 144.509 186.746 144.385 185.444C144.261 184.143 143.888 180.829 145.006 179.883C146.124 178.937 156.189 178.227 156.189 178.227Z" stroke="#263238" stroke-width="0.5" stroke-miterlimit="10" stroke-linecap="round" stroke-linejoin="round"/>
<path d="M155.588 179.477C155.588 179.477 155.897 179.437 156.327 179.434C157.018 179.429 158.022 179.516 158.543 180.012C159.387 180.816 158.859 184.133 158.332 184.745C157.44 185.782 147.888 186.442 147.044 186.264C146.2 186.085 145.672 185.907 145.567 184.924C145.461 183.942 145.145 181.441 146.094 180.727C147.043 180.012 155.588 179.477 155.588 179.477Z" fill="#263238" stroke="#263238" stroke-width="0.5" stroke-miterlimit="10" stroke-linecap="round" stroke-linejoin="round"/>
<path d="M156.027 188.785C156.027 188.785 156.391 188.733 156.896 188.728C157.711 188.721 158.893 188.837 159.507 189.495C160.501 190.559 159.879 194.955 159.258 195.766C158.208 197.14 146.956 198.014 145.962 197.778C144.968 197.541 144.347 197.305 144.223 196.003C144.098 194.701 143.726 191.388 144.844 190.441C145.962 189.495 156.027 188.785 156.027 188.785Z" stroke="#263238" stroke-width="0.5" stroke-miterlimit="10" stroke-linecap="round" stroke-linejoin="round"/>
<path d="M155.426 190.034C155.426 190.034 155.735 189.995 156.164 189.992C156.855 189.986 157.859 190.074 158.38 190.57C159.223 191.374 158.695 194.691 158.169 195.304C157.277 196.34 147.725 197 146.881 196.822C146.037 196.643 145.509 196.465 145.404 195.482C145.298 194.5 144.982 191.999 145.931 191.285C146.88 190.571 155.426 190.034 155.426 190.034Z" fill="#263238" stroke="#263238" stroke-width="0.5" stroke-miterlimit="10" stroke-linecap="round" stroke-linejoin="round"/>
<path d="M129.78 157.835C129.78 157.835 127.43 157.691 126.672 157.979C125.914 158.268 125.61 158.774 125.686 159.279C125.762 159.785 125.762 162.917 125.838 164.045C125.916 165.204 126.631 165.696 127.506 165.778C128.202 165.842 139.41 165.994 140.699 165.561C141.988 165.128 141.837 163.395 141.837 162.817C141.837 162.24 141.988 159.505 141.609 158.784C141.23 158.062 140.017 157.773 139.41 157.845C138.803 157.917 131.069 157.691 129.78 157.835Z" stroke="#263238" stroke-width="0.5" stroke-miterlimit="10" stroke-linecap="round" stroke-linejoin="round"/>
<path d="M139.587 168.405C139.587 168.405 128.87 168.161 127.809 168.45C126.747 168.738 125.61 169.244 125.686 170.327C125.762 171.41 125.458 174.371 125.989 175.237C126.52 176.103 126.747 176.392 127.43 176.608C128.113 176.825 139.486 176.897 140.244 176.536C141.002 176.175 141.533 175.742 141.685 174.803C141.836 173.865 142.014 170.499 141.559 169.56C141.104 168.622 139.587 168.405 139.587 168.405Z" stroke="#263238" stroke-width="0.5" stroke-miterlimit="10" stroke-linecap="round" stroke-linejoin="round"/>
<path d="M139.94 170.111C139.94 170.111 130.159 169.966 128.794 169.966C127.429 169.966 126.898 169.966 126.822 171.05C126.746 172.133 126.595 175.454 127.201 175.671C127.808 175.888 132.888 175.96 135.769 175.96C138.65 175.96 139.788 175.888 140.243 175.527C140.698 175.166 140.773 173 140.773 171.845C140.774 170.688 140.623 169.894 139.94 170.111Z" fill="#263238" stroke="#263238" stroke-width="0.5" stroke-miterlimit="10" stroke-linecap="round" stroke-linejoin="round"/>
<path d="M139.94 159.135C139.94 159.135 130.159 158.991 128.794 158.991C127.429 158.991 126.898 158.991 126.822 160.074C126.746 161.158 126.595 164.479 127.201 164.696C127.808 164.912 132.888 164.985 135.769 164.985C138.65 164.985 139.788 164.912 140.243 164.551C140.698 164.19 140.774 162.024 140.774 160.869C140.774 159.714 140.623 158.919 139.94 159.135Z" fill="#263238" stroke="#263238" stroke-width="0.5" stroke-miterlimit="10" stroke-linecap="round" stroke-linejoin="round"/>
<path d="M139.688 179.247C139.688 179.247 128.87 178.92 127.809 179.209C126.747 179.497 125.61 180.003 125.686 181.086C125.762 182.169 125.458 185.13 125.989 185.996C126.52 186.862 126.747 187.151 127.43 187.367C128.112 187.584 139.486 187.656 140.244 187.295C141.002 186.934 141.533 186.501 141.685 185.562C141.836 184.624 142.115 181.34 141.66 180.402C141.205 179.463 139.688 179.247 139.688 179.247Z" stroke="#263238" stroke-width="0.5" stroke-miterlimit="10" stroke-linecap="round" stroke-linejoin="round"/>
<path d="M139.94 180.869C139.94 180.869 130.159 180.724 128.794 180.724C127.429 180.724 126.898 180.724 126.822 181.808C126.746 182.891 126.595 186.212 127.201 186.429C127.808 186.646 132.888 186.718 135.769 186.718C138.65 186.718 139.788 186.646 140.243 186.285C140.698 185.924 140.774 183.758 140.774 182.603C140.774 181.448 140.623 180.652 139.94 180.869Z" fill="#263238" stroke="#263238" stroke-width="0.5" stroke-miterlimit="10" stroke-linecap="round" stroke-linejoin="round"/>
<path d="M139.334 189.967C139.334 189.967 128.87 189.678 127.809 189.967C126.747 190.256 125.61 190.761 125.686 191.844C125.762 192.928 125.458 195.888 125.989 196.754C126.52 197.621 126.747 197.909 127.43 198.126C128.112 198.343 139.486 198.415 140.244 198.054C141.002 197.693 141.533 197.259 141.685 196.321C141.836 195.382 141.761 192.061 141.306 191.122C140.85 190.183 139.334 189.967 139.334 189.967Z" stroke="#263238" stroke-width="0.5" stroke-miterlimit="10" stroke-linecap="round" stroke-linejoin="round"/>
<path d="M139.94 191.627C139.94 191.627 130.159 191.483 128.794 191.483C127.429 191.483 126.898 191.483 126.822 192.566C126.746 193.65 126.595 196.971 127.201 197.188C127.808 197.405 132.888 197.477 135.769 197.477C138.65 197.477 139.788 197.404 140.243 197.044C140.698 196.682 140.773 194.516 140.773 193.361C140.774 192.205 140.623 191.411 139.94 191.627Z" fill="#263238" stroke="#263238" stroke-width="0.5" stroke-miterlimit="10" stroke-linecap="round" stroke-linejoin="round"/>
<path d="M121.614 200.159C121.614 200.159 112.527 199.263 111.169 199.164C109.811 199.065 108.662 199.96 108.766 200.955C108.871 201.949 108.871 205.331 109.497 206.227C110.124 207.122 112.422 207.42 115.764 207.619C119.107 207.818 120.987 208.117 121.823 207.619C122.659 207.122 122.972 206.724 123.076 205.531C123.18 204.337 123.18 202.347 122.972 201.552C122.764 200.756 121.614 200.159 121.614 200.159Z" fill="#666666" stroke="#263238" stroke-width="0.5" stroke-miterlimit="10" stroke-linecap="round" stroke-linejoin="round"/>
<path d="M145.858 200.159C145.858 200.159 154.946 199.263 156.303 199.164C157.662 199.065 158.81 199.96 158.706 200.955C158.602 201.949 158.602 205.331 157.975 206.227C157.348 207.122 155.05 207.42 151.708 207.619C148.365 207.818 146.485 208.117 145.649 207.619C144.814 207.122 144.501 206.724 144.396 205.531C144.291 204.337 144.291 202.347 144.5 201.552C144.709 200.756 145.858 200.159 145.858 200.159Z" fill="#92E3A9" stroke="#263238" stroke-width="0.5" stroke-miterlimit="10" stroke-linecap="round" stroke-linejoin="round"/>
<path d="M126.602 201.374C126.602 201.374 126.164 205.845 126.64 206.676C127.116 207.508 127.354 207.887 128.308 207.962C129.26 208.038 137.678 208.265 139.028 207.887C140.378 207.509 140.934 206.904 141.013 206.374C141.093 205.845 141.034 202.144 140.875 201.539C140.716 200.935 140.16 200.254 139.128 200.178C138.096 200.102 130.531 200.022 129.34 200.022C128.148 200.022 126.803 200.608 126.602 201.374Z" fill="#BABABA" stroke="#263238" stroke-width="0.5" stroke-miterlimit="10" stroke-linecap="round" stroke-linejoin="round"/>
<path d="M106.246 213.084L108.026 211.194C108.026 211.194 121.028 212.367 134.92 212.041C148.811 211.715 159.144 210.803 159.144 210.803C159.144 210.803 161.471 212.627 162.497 213.018" stroke="#263238" stroke-width="0.5" stroke-miterlimit="10" stroke-linecap="round" stroke-linejoin="round"/>
<path d="M145.709 118.841L140.274 116.141C139.803 115.907 139.222 116.078 138.973 116.526C138.757 116.914 138.859 117.392 139.215 117.669L144.069 121.444C144.069 121.444 145.344 124.047 146.347 124.221C147.349 124.394 148.169 124.481 148.169 124.481" stroke="#263238" stroke-width="0.5" stroke-miterlimit="10" stroke-linecap="round" stroke-linejoin="round"/>
<path d="M142.797 117.591L143.205 115.724C143.307 115.256 142.992 114.797 142.5 114.7L139.202 114.047C138.71 113.949 138.229 114.25 138.127 114.718L137.537 117.419C137.435 117.888 137.75 118.346 138.242 118.443L141.043 118.998C141.043 118.998 140.064 119.656 140.54 120.053C141.016 120.45 141.85 121.3 142.505 121.641C143.16 121.981 144.07 121.444 144.07 121.444" stroke="#263238" stroke-width="0.5" stroke-miterlimit="10" stroke-linecap="round" stroke-linejoin="round"/>
<path d="M143.204 115.724C143.204 115.724 145.539 115.745 146.075 116.198C146.611 116.652 151.076 123.001 151.076 123.001" stroke="#263238" stroke-width="0.5" stroke-miterlimit="10" stroke-linecap="round" stroke-linejoin="round"/>
<path d="M141.551 121.017C141.551 121.017 140.598 121.698 141.075 122.095C141.551 122.492 141.849 122.662 142.801 122.888C143.754 123.115 143.873 123.229 144.171 123.115C144.469 123.002 144.826 122.832 144.826 122.832" stroke="#263238" stroke-width="0.5" stroke-miterlimit="10" stroke-linecap="round" stroke-linejoin="round"/>
<path d="M143.228 123.049C140.858 125.681 136.596 127.436 131.734 127.436C124.289 127.436 118.254 123.321 118.254 118.246C118.254 113.17 124.289 109.056 131.734 109.056C137.982 109.056 143.237 111.954 144.765 115.887" stroke="#263238" stroke-width="0.5" stroke-miterlimit="10" stroke-linecap="round" stroke-linejoin="round"/>
<path d="M133.75 124.731C133.657 124.731 133.564 124.707 133.481 124.655C133.252 124.513 133.187 124.222 133.336 124.004C134.454 122.366 135.046 120.463 135.046 118.5C135.046 116.626 134.503 114.796 133.477 113.209C133.333 112.987 133.406 112.697 133.638 112.561C133.871 112.424 134.175 112.493 134.319 112.715C135.441 114.451 136.035 116.451 136.035 118.5C136.035 120.645 135.388 122.726 134.165 124.517C134.07 124.656 133.912 124.731 133.75 124.731Z" fill="#263238"/>
<path d="M131.242 123.494C131.145 123.494 131.045 123.467 130.959 123.41C130.735 123.261 130.681 122.967 130.837 122.754C131.755 121.503 132.24 120.032 132.24 118.501C132.24 117.068 131.812 115.678 131.001 114.48C130.853 114.261 130.92 113.969 131.149 113.828C131.379 113.688 131.685 113.751 131.833 113.969C132.746 115.32 133.229 116.887 133.229 118.5C133.229 120.226 132.683 121.884 131.648 123.293C131.552 123.424 131.398 123.494 131.242 123.494Z" fill="#263238"/>
<path d="M128.688 122.204C128.58 122.204 128.471 122.17 128.38 122.101C128.167 121.939 128.132 121.643 128.302 121.44C129.008 120.597 129.381 119.581 129.381 118.501C129.381 117.437 129.018 116.432 128.33 115.596C128.161 115.391 128.199 115.095 128.414 114.935C128.63 114.774 128.94 114.81 129.108 115.015C129.934 116.019 130.371 117.224 130.371 118.501C130.371 119.779 129.911 121.031 129.076 122.028C128.977 122.143 128.833 122.204 128.688 122.204Z" fill="#263238"/>
<path d="M126.086 121.309C125.928 121.309 125.772 121.236 125.676 121.101C125.523 120.886 125.582 120.593 125.809 120.448C126.489 120.01 126.896 119.282 126.896 118.5C126.896 117.886 126.649 117.305 126.199 116.865C126.009 116.678 126.014 116.38 126.209 116.199C126.405 116.017 126.718 116.022 126.909 116.209C127.539 116.826 127.885 117.64 127.885 118.501C127.885 119.595 127.316 120.615 126.362 121.228C126.277 121.282 126.181 121.309 126.086 121.309Z" fill="#263238"/>
<path d="M112.834 163.196V159.551C112.79 159.574 112.742 159.597 112.686 159.619C112.631 159.642 112.573 159.665 112.511 159.689C112.45 159.714 112.391 159.738 112.333 159.76C112.276 159.783 112.224 159.805 112.176 159.828V159.127C112.219 159.104 112.281 159.073 112.36 159.034C112.439 158.994 112.524 158.95 112.616 158.901C112.707 158.852 112.792 158.802 112.871 158.751C112.95 158.7 113.009 158.656 113.049 158.619H113.826V163.196H112.834V163.196Z" fill="white"/>
<path d="M131.572 164.355V163.688L132.723 162.004C132.81 161.88 132.892 161.759 132.969 161.643C133.046 161.526 133.109 161.407 133.159 161.287C133.209 161.166 133.233 161.04 133.233 160.908C133.233 160.776 133.206 160.678 133.15 160.614C133.095 160.55 133.02 160.518 132.924 160.518C132.818 160.518 132.735 160.547 132.676 160.603C132.616 160.66 132.576 160.735 132.554 160.829C132.532 160.923 132.521 161.029 132.521 161.145V161.372H131.56V161.129C131.56 160.857 131.605 160.615 131.696 160.402C131.787 160.19 131.932 160.022 132.129 159.899C132.327 159.776 132.587 159.715 132.907 159.715C133.338 159.715 133.663 159.822 133.883 160.035C134.102 160.247 134.212 160.544 134.212 160.925C134.212 161.109 134.181 161.28 134.12 161.439C134.059 161.597 133.978 161.75 133.877 161.899C133.776 162.048 133.668 162.203 133.553 162.366L132.675 163.614H134.082V164.355H131.572V164.355Z" fill="white"/>
<path d="M152.643 163.471C152.307 163.471 152.042 163.411 151.851 163.29C151.658 163.17 151.522 163.001 151.441 162.784C151.36 162.568 151.319 162.318 151.319 162.035V161.872H152.31C152.31 161.875 152.31 161.896 152.31 161.934C152.31 161.972 152.31 162.006 152.31 162.035C152.31 162.186 152.32 162.309 152.339 162.402C152.359 162.496 152.395 162.565 152.447 162.609C152.498 162.652 152.569 162.674 152.66 162.674C152.751 162.674 152.82 162.651 152.865 162.606C152.91 162.561 152.942 162.493 152.957 162.403C152.973 162.312 152.981 162.2 152.981 162.064C152.981 161.838 152.948 161.665 152.883 161.547C152.818 161.428 152.683 161.367 152.477 161.363C152.473 161.363 152.451 161.363 152.411 161.363C152.372 161.363 152.332 161.363 152.292 161.363V160.713C152.32 160.713 152.348 160.713 152.376 160.713C152.403 160.713 152.429 160.713 152.453 160.713C152.663 160.713 152.803 160.659 152.874 160.549C152.946 160.44 152.981 160.271 152.981 160.041C152.981 159.864 152.956 159.728 152.907 159.634C152.857 159.539 152.765 159.492 152.632 159.492C152.501 159.492 152.415 159.545 152.373 159.651C152.332 159.756 152.311 159.891 152.311 160.057C152.311 160.095 152.311 160.133 152.311 160.173C152.311 160.213 152.311 160.253 152.311 160.295H151.32V160.018C151.32 159.743 151.372 159.511 151.478 159.32C151.582 159.13 151.733 158.986 151.928 158.888C152.125 158.79 152.359 158.741 152.632 158.741C152.909 158.741 153.146 158.788 153.344 158.882C153.542 158.976 153.694 159.114 153.801 159.297C153.908 159.48 153.961 159.707 153.961 159.978C153.961 160.246 153.904 160.469 153.789 160.651C153.674 160.832 153.536 160.943 153.374 160.984C153.485 161.022 153.585 161.082 153.674 161.165C153.763 161.247 153.833 161.36 153.884 161.501C153.936 161.642 153.961 161.822 153.961 162.041C153.961 162.32 153.919 162.566 153.834 162.781C153.749 162.996 153.609 163.164 153.415 163.287C153.221 163.41 152.963 163.471 152.643 163.471Z" fill="white"/>
<path d="M113.67 174.265V173.237H112.192V172.541L113.444 169.688H114.596V172.536H115.04V173.237H114.596V174.265H113.67ZM112.946 172.536H113.67V170.631L112.946 172.536Z" fill="white"/>
<path d="M132.842 175.509C132.49 175.509 132.224 175.449 132.044 175.331C131.864 175.212 131.743 175.045 131.679 174.831C131.616 174.616 131.584 174.367 131.584 174.085H132.539C132.539 174.258 132.549 174.399 132.569 174.508C132.589 174.618 132.626 174.696 132.679 174.743C132.732 174.79 132.808 174.812 132.908 174.808C133.01 174.804 133.083 174.765 133.127 174.689C133.171 174.613 133.197 174.505 133.207 174.364C133.217 174.223 133.222 174.052 133.222 173.853C133.222 173.702 133.213 173.569 133.195 173.451C133.177 173.335 133.141 173.242 133.088 173.172C133.035 173.102 132.955 173.067 132.848 173.067C132.749 173.067 132.668 173.101 132.605 173.169C132.541 173.237 132.496 173.342 132.468 173.485H131.613L131.702 170.846H133.946V171.638H132.498L132.445 172.581C132.484 172.529 132.56 172.482 132.67 172.443C132.781 172.403 132.9 172.378 133.027 172.367C133.272 172.341 133.479 172.383 133.647 172.494C133.815 172.605 133.942 172.774 134.027 172.999C134.112 173.226 134.154 173.503 134.154 173.83C134.154 174.075 134.139 174.3 134.107 174.505C134.076 174.711 134.014 174.888 133.924 175.037C133.832 175.186 133.7 175.302 133.526 175.385C133.351 175.467 133.123 175.509 132.842 175.509Z" fill="white"/>
<path d="M152.733 174.523C152.42 174.523 152.166 174.458 151.97 174.328C151.774 174.198 151.631 174.02 151.54 173.794C151.449 173.568 151.403 173.31 151.403 173.02V171.364C151.403 171.066 151.44 170.801 151.513 170.567C151.586 170.333 151.717 170.15 151.907 170.017C152.097 169.883 152.371 169.816 152.726 169.816C153.035 169.816 153.278 169.861 153.457 169.951C153.634 170.042 153.761 170.174 153.836 170.347C153.911 170.52 153.949 170.735 153.949 170.991C153.949 171.006 153.949 171.02 153.952 171.033C153.953 171.046 153.955 171.059 153.955 171.069H153.023C153.023 170.885 153.008 170.748 152.978 170.66C152.949 170.572 152.866 170.527 152.732 170.527C152.641 170.527 152.573 170.553 152.528 170.607C152.482 170.66 152.451 170.751 152.435 170.884C152.419 171.015 152.412 171.2 152.412 171.437V171.844C152.459 171.766 152.536 171.704 152.643 171.661C152.75 171.618 152.87 171.594 153.005 171.59C153.258 171.583 153.461 171.638 153.613 171.754C153.766 171.87 153.875 172.03 153.943 172.232C154.01 172.433 154.044 172.658 154.044 172.907C154.044 173.227 154.004 173.509 153.924 173.751C153.845 173.995 153.711 174.184 153.521 174.319C153.332 174.455 153.069 174.523 152.733 174.523ZM152.744 173.828C152.835 173.828 152.902 173.799 152.943 173.74C152.985 173.682 153.013 173.595 153.027 173.48C153.04 173.366 153.048 173.223 153.048 173.054C153.048 172.903 153.043 172.773 153.033 172.664C153.023 172.554 152.996 172.469 152.953 172.407C152.909 172.344 152.836 172.314 152.734 172.314C152.687 172.314 152.641 172.323 152.598 172.342C152.554 172.361 152.516 172.384 152.485 172.412C152.454 172.441 152.43 172.468 152.414 172.495V173.24C152.414 173.342 152.422 173.438 152.44 173.529C152.458 173.619 152.492 173.691 152.541 173.746C152.589 173.801 152.658 173.828 152.744 173.828Z" fill="white"/>
<path d="M112.43 184.832L113.474 180.972H112.163V180.255H114.442V180.904L113.398 184.832L112.43 184.832Z" fill="white"/>
<path d="M132.872 186.065C132.548 186.065 132.288 186.003 132.095 185.881C131.901 185.758 131.762 185.589 131.679 185.372C131.597 185.156 131.555 184.908 131.555 184.63C131.559 184.516 131.572 184.406 131.593 184.299C131.615 184.192 131.648 184.092 131.694 183.999C131.74 183.908 131.797 183.827 131.866 183.756C131.935 183.687 132.017 183.63 132.112 183.584C131.99 183.498 131.881 183.372 131.785 183.208C131.691 183.045 131.639 182.836 131.631 182.584C131.627 182.328 131.672 182.107 131.765 181.923C131.858 181.738 131.997 181.596 132.183 181.499C132.369 181.401 132.599 181.352 132.871 181.352C133.148 181.352 133.379 181.401 133.563 181.501C133.746 181.601 133.884 181.743 133.975 181.925C134.066 182.108 134.108 182.327 134.1 182.584C134.096 182.84 134.049 183.05 133.958 183.214C133.867 183.378 133.758 183.501 133.631 183.584C133.726 183.63 133.808 183.687 133.877 183.756C133.947 183.826 134.004 183.907 134.049 183.999C134.095 184.092 134.129 184.192 134.153 184.299C134.177 184.407 134.189 184.517 134.189 184.63C134.197 184.908 134.158 185.156 134.073 185.372C133.988 185.589 133.848 185.758 133.655 185.881C133.461 186.003 133.2 186.065 132.872 186.065ZM132.872 185.37C132.979 185.37 133.056 185.333 133.103 185.257C133.15 185.181 133.18 185.092 133.192 184.989C133.204 184.885 133.21 184.79 133.21 184.703C133.214 184.587 133.209 184.474 133.196 184.364C133.182 184.255 133.151 184.165 133.103 184.096C133.056 184.026 132.979 183.991 132.872 183.991C132.769 183.991 132.694 184.026 132.646 184.096C132.599 184.165 132.568 184.254 132.554 184.361C132.54 184.468 132.533 184.583 132.533 184.703C132.533 184.79 132.539 184.886 132.551 184.991C132.563 185.097 132.594 185.186 132.643 185.26C132.693 185.333 132.769 185.37 132.872 185.37ZM132.872 183.245C132.939 183.245 132.994 183.22 133.038 183.169C133.082 183.118 133.115 183.042 133.136 182.94C133.158 182.838 133.169 182.712 133.169 182.561C133.169 182.407 133.144 182.284 133.095 182.194C133.045 182.103 132.971 182.059 132.872 182.059C132.773 182.059 132.697 182.103 132.643 182.194C132.59 182.284 132.563 182.405 132.563 182.555C132.563 182.706 132.574 182.833 132.596 182.937C132.617 183.041 132.653 183.118 132.7 183.168C132.747 183.22 132.804 183.245 132.872 183.245Z" fill="white"/>
<path d="M152.642 185.09C152.334 185.09 152.091 185.045 151.913 184.955C151.734 184.864 151.608 184.731 151.533 184.556C151.458 184.381 151.42 184.165 151.42 183.909C151.42 183.899 151.42 183.886 151.42 183.873C151.42 183.86 151.42 183.847 151.42 183.836H152.346C152.346 184.021 152.363 184.158 152.397 184.246C152.431 184.334 152.515 184.379 152.649 184.379C152.74 184.379 152.807 184.353 152.851 184.299C152.895 184.247 152.924 184.153 152.937 184.019C152.951 183.886 152.958 183.702 152.958 183.469V183.062C152.907 183.14 152.829 183.201 152.724 183.242C152.619 183.285 152.501 183.309 152.371 183.316C152.118 183.32 151.914 183.259 151.759 183.135C151.605 183.01 151.495 182.843 151.427 182.632C151.36 182.421 151.326 182.191 151.326 181.942C151.326 181.622 151.369 181.346 151.454 181.114C151.539 180.883 151.678 180.703 151.872 180.574C152.066 180.446 152.323 180.383 152.643 180.383C152.96 180.383 153.215 180.443 153.409 180.563C153.603 180.684 153.745 180.853 153.834 181.069C153.923 181.286 153.967 181.541 153.967 181.835V183.542C153.967 183.839 153.931 184.104 153.858 184.338C153.784 184.572 153.653 184.755 153.463 184.889C153.272 185.023 152.998 185.09 152.642 185.09ZM152.654 182.592C152.734 182.592 152.797 182.572 152.844 182.53C152.891 182.489 152.929 182.449 152.956 182.411V181.666C152.956 181.56 152.949 181.463 152.933 181.375C152.917 181.287 152.887 181.215 152.844 181.16C152.8 181.105 152.733 181.078 152.642 181.078C152.555 181.078 152.49 181.107 152.446 181.165C152.402 181.224 152.374 181.31 152.36 181.425C152.346 181.54 152.339 181.682 152.339 181.851C152.339 181.998 152.344 182.128 152.354 182.239C152.364 182.35 152.391 182.436 152.434 182.498C152.478 182.561 152.552 182.592 152.654 182.592Z" fill="white"/>
<path d="M112.4 195.627V191.05H114.478V191.734H113.463V192.886H114.347V193.593H113.463V195.627H112.4Z" fill="white"/>
<path d="M132.96 196.871C132.672 196.871 132.43 196.815 132.236 196.705C132.042 196.593 131.896 196.44 131.797 196.244C131.698 196.048 131.649 195.821 131.649 195.56V193.486C131.649 193.218 131.696 192.984 131.788 192.783C131.881 192.581 132.025 192.424 132.219 192.311C132.412 192.198 132.66 192.141 132.96 192.141C133.262 192.141 133.508 192.198 133.699 192.311C133.891 192.424 134.033 192.581 134.127 192.783C134.219 192.984 134.266 193.218 134.266 193.486V195.56C134.266 195.816 134.216 196.043 134.118 196.241C134.019 196.438 133.872 196.593 133.679 196.704C133.485 196.815 133.246 196.871 132.96 196.871ZM132.96 196.029C133.056 196.029 133.124 196 133.165 195.942C133.207 195.883 133.232 195.816 133.242 195.738C133.252 195.661 133.257 195.594 133.257 195.538V193.509C133.257 193.445 133.252 193.372 133.245 193.291C133.237 193.21 133.212 193.138 133.171 193.076C133.129 193.014 133.059 192.983 132.96 192.983C132.861 192.983 132.791 193.014 132.75 193.076C132.709 193.138 132.684 193.21 132.676 193.291C132.668 193.372 132.664 193.445 132.664 193.509V195.538C132.664 195.594 132.67 195.661 132.683 195.738C132.694 195.816 132.721 195.883 132.763 195.942C132.804 196 132.87 196.029 132.96 196.029Z" fill="white"/>
<path d="M149.312 195.597V194.727H150.226V195.597H149.312Z" fill="white"/>
<path d="M150.908 195.597L151.092 194.077H150.766L150.783 193.505H151.175L151.258 192.85H150.789L150.801 192.262H151.366L151.514 191.019H152.142L151.988 192.262H152.451L152.599 191.019H153.223L153.068 192.262H153.383L153.365 192.85H152.961L152.884 193.505H153.353L153.336 194.077H152.801L152.606 195.597H151.989L152.179 194.077H151.716L151.526 195.597H150.908ZM151.793 193.506H152.262L152.345 192.85H151.882L151.793 193.506Z" fill="white"/>
<path d="M154.664 193.054L154.1 192.732L154.527 192.156L153.893 191.924L154.106 191.376L154.681 191.681L154.604 191.02H155.328L155.251 191.681L155.833 191.376L156.046 191.93L155.405 192.161L155.839 192.732L155.263 193.054L154.967 192.455L154.664 193.054Z" fill="white"/>
<path d="M270.081 28.3882L252.645 2.06262C252.645 2.06262 252.645 2.06262 245.801 5.31774C238.957 8.57286 229.731 10.1826 217.028 13.9615C204.326 17.7404 198.244 17.1729 193.985 20.5754C189.726 23.978 178.118 44.3182 176.986 46.2109C175.853 48.1036 178.002 52.4155 178.002 52.4155C178.002 52.4155 195.175 63.7781 195.419 64.0346C195.663 64.2911 199.933 67.2358 201.932 67.4518C203.931 67.6678 208.377 66.8588 208.377 66.8588C208.377 66.8588 210.021 67.9016 211.181 68.2639C212.341 68.6263 215.281 67.9475 215.281 67.9475C215.281 67.9475 220.158 69.9881 222.291 68.1203C224.425 66.2524 227.676 56.3116 227.676 56.3116C227.676 56.3116 237.838 53.9734 245.692 50.4088C253.546 46.8443 257.408 42.3191 262.514 38.4365C265.27 36.3407 268.078 34.8255 270.081 33.874V28.3882Z" fill="white" stroke="#263238" stroke-width="0.5" stroke-miterlimit="10" stroke-linecap="round" stroke-linejoin="round"/>
<path d="M210.692 63.3845C212.577 60.6597 215.406 56.2274 216.404 52.8605" stroke="#263238" stroke-width="0.5" stroke-miterlimit="10" stroke-linecap="round" stroke-linejoin="round"/>
<path d="M208.902 65.8695C208.902 65.8695 209.192 65.491 209.66 64.8446" stroke="#263238" stroke-width="0.5" stroke-miterlimit="10" stroke-linecap="round" stroke-linejoin="round"/>
<path d="M216.901 66.5679C216.901 66.5679 218.123 64.4268 221.178 59.0743C224.232 53.7218 223.687 52.1213 223.114 51.6898" stroke="#263238" stroke-width="0.5" stroke-miterlimit="10" stroke-linecap="round" stroke-linejoin="round"/>
<path d="M195.201 42.9271C195.951 43.4493 196.766 43.9267 197.647 44.3333" stroke="#263238" stroke-width="0.5" stroke-miterlimit="10" stroke-linecap="round" stroke-linejoin="round"/>
<path d="M188.216 34.379C188.216 34.379 189.872 38.3545 193.516 41.5967" stroke="#263238" stroke-width="0.5" stroke-miterlimit="10" stroke-linecap="round" stroke-linejoin="round"/>
<path d="M193.966 28.0907C193.966 28.0907 197.839 36.9543 201.641 38.551" stroke="#263238" stroke-width="0.5" stroke-miterlimit="10" stroke-linecap="round" stroke-linejoin="round"/>
<path d="M224.448 51.7225C224.448 51.7225 227.815 54.0602 227.675 56.3115" stroke="#263238" stroke-width="0.5" stroke-miterlimit="10" stroke-linecap="round" stroke-linejoin="round"/>
<path d="M182.253 46.3718C183.489 46.6213 185.105 47.1208 186.625 48.1181" stroke="#263238" stroke-width="0.5" stroke-miterlimit="10" stroke-linecap="round" stroke-linejoin="round"/>
<path d="M180.161 46.1218C180.161 46.1218 180.651 46.1218 181.426 46.2303" stroke="#263238" stroke-width="0.5" stroke-miterlimit="10" stroke-linecap="round" stroke-linejoin="round"/>
<path d="M202.045 82.8985L151.528 97.5767C150.122 97.985 148.651 97.1766 148.242 95.771L139.198 64.6432C138.789 63.2371 139.598 61.7661 141.004 61.3579L191.521 46.6796C192.927 46.2714 194.398 47.0797 194.807 48.4854L203.851 79.6131C204.26 81.0193 203.451 82.4902 202.045 82.8985Z" fill="#92E3A9" stroke="#263238" stroke-width="0.5" stroke-miterlimit="10" stroke-linecap="round" stroke-linejoin="round"/>
<path d="M154.079 79.5127L150.252 80.6245C149.154 80.9437 148.004 80.3119 147.685 79.2135L146.538 75.2645C146.219 74.1661 146.851 73.017 147.949 72.6979L151.776 71.586C152.874 71.2669 154.023 71.8987 154.342 72.997L155.49 76.9461C155.809 78.0444 155.177 79.1935 154.079 79.5127Z" fill="white" stroke="#263238" stroke-width="0.5" stroke-miterlimit="10" stroke-linecap="round" stroke-linejoin="round"/>
<path d="M150.911 80.301L148.679 72.6185" stroke="#263238" stroke-width="0.5" stroke-miterlimit="10" stroke-linecap="round" stroke-linejoin="round"/>
<path d="M153.334 79.597L151.599 73.623L154.297 72.8389" stroke="#263238" stroke-width="0.5" stroke-miterlimit="10" stroke-linecap="round" stroke-linejoin="round"/>
<path d="M146.65 75.3461L149.179 74.6111" stroke="#263238" stroke-width="0.5" stroke-miterlimit="10" stroke-linecap="round" stroke-linejoin="round"/>
<path d="M147.141 77.0319L149.669 76.297" stroke="#263238" stroke-width="0.5" stroke-miterlimit="10" stroke-linecap="round" stroke-linejoin="round"/>
<path d="M147.646 78.7702L150.174 78.0352" stroke="#263238" stroke-width="0.5" stroke-miterlimit="10" stroke-linecap="round" stroke-linejoin="round"/>
<path d="M152.34 75.4638L154.869 74.7288" stroke="#263238" stroke-width="0.5" stroke-miterlimit="10" stroke-linecap="round" stroke-linejoin="round"/>
<path d="M152.86 77.255L155.179 76.5811" stroke="#263238" stroke-width="0.5" stroke-miterlimit="10" stroke-linecap="round" stroke-linejoin="round"/>
<path d="M150.542 87.7536C150.372 87.1683 150.337 86.7023 150.438 86.3561C150.539 86.01 150.775 85.7832 151.148 85.6746C151.522 85.5661 151.845 85.6304 152.115 85.8674C152.385 86.1045 152.605 86.517 152.776 87.104C152.946 87.6894 152.981 88.1549 152.88 88.5005C152.779 88.8455 152.541 89.0729 152.167 89.1814C151.794 89.2899 151.472 89.2246 151.202 88.9865C150.932 88.7489 150.712 88.3379 150.542 87.7536ZM151.313 86.2406C151.159 86.2854 151.075 86.4123 151.058 86.6218C151.042 86.8308 151.094 87.1429 151.215 87.5582C151.252 87.6867 151.289 87.8028 151.326 87.9065L151.744 86.4371C151.741 86.4328 151.738 86.429 151.735 86.4247C151.609 86.2573 151.468 86.1957 151.313 86.2406ZM151.583 88.4308C151.709 88.5987 151.849 88.6603 152.003 88.6155C152.158 88.5701 152.244 88.4432 152.26 88.2337C152.277 88.0247 152.225 87.7131 152.104 87.2995C152.058 87.1424 152.012 87.0036 151.966 86.8832L151.542 88.3714C151.556 88.3935 151.57 88.413 151.583 88.4308Z" fill="white" stroke="#263238" stroke-width="0.5" stroke-miterlimit="10"/>
<path d="M153.799 87.9978L154.546 87.7807L153.909 85.5873L153.264 85.9615L153.089 85.3594L153.74 84.9884L154.385 84.801L155.196 87.5923L155.943 87.3752L156.114 87.9638L153.971 88.587L153.799 87.9978Z" fill="white" stroke="#263238" stroke-width="0.5" stroke-miterlimit="10"/>
<path d="M156.124 86.1313C155.954 85.546 155.919 85.08 156.02 84.7338C156.121 84.3877 156.357 84.1609 156.731 84.0524C157.105 83.9438 157.427 84.0081 157.697 84.2451C157.967 84.4822 158.188 84.8948 158.359 85.4817C158.529 86.0671 158.563 86.5326 158.462 86.8782C158.361 87.2232 158.124 87.4506 157.75 87.5591C157.377 87.6677 157.055 87.6023 156.785 87.3642C156.514 87.1266 156.294 86.7156 156.124 86.1313ZM156.895 84.6188C156.741 84.6636 156.656 84.7905 156.64 85.0001C156.624 85.209 156.677 85.5212 156.797 85.9364C156.834 86.0649 156.871 86.181 156.908 86.2847L157.326 84.8154C157.323 84.8111 157.32 84.8073 157.317 84.803C157.191 84.635 157.051 84.5735 156.895 84.6188ZM157.166 86.8085C157.292 86.9765 157.431 87.038 157.585 86.9937C157.741 86.9484 157.827 86.8215 157.842 86.6119C157.859 86.403 157.807 86.0914 157.686 85.6778C157.64 85.5206 157.595 85.3818 157.548 85.2614L157.124 86.7497C157.138 86.7713 157.152 86.7912 157.166 86.8085Z" fill="white" stroke="#263238" stroke-width="0.5" stroke-miterlimit="10"/>
<path d="M159.382 86.3755L160.129 86.1584L159.492 83.9649L158.847 84.3392L158.672 83.7371L159.323 83.3661L159.968 83.1787L160.779 85.97L161.526 85.7529L161.697 86.3415L159.553 86.9646L159.382 86.3755Z" fill="white" stroke="#263238" stroke-width="0.5" stroke-miterlimit="10"/>
<path d="M161.708 84.5093C161.538 83.9239 161.503 83.4579 161.604 83.1118C161.705 82.7656 161.941 82.5388 162.314 82.4303C162.688 82.3217 163.011 82.386 163.281 82.6231C163.551 82.8601 163.771 83.2727 163.942 83.8597C164.112 84.445 164.147 84.9105 164.046 85.2561C163.945 85.6012 163.707 85.8285 163.333 85.937C162.96 86.0456 162.638 85.9802 162.368 85.7421C162.097 85.5045 161.878 85.0936 161.708 84.5093ZM162.479 82.9967C162.325 83.0416 162.24 83.1685 162.224 83.378C162.208 83.587 162.26 83.8991 162.38 84.3143C162.418 84.4429 162.455 84.559 162.492 84.6626L162.909 83.1938C162.906 83.1895 162.904 83.1857 162.9 83.1814C162.775 83.0129 162.634 82.9514 162.479 82.9967ZM162.749 85.1864C162.875 85.3544 163.015 85.4159 163.169 85.3717C163.324 85.3263 163.41 85.1994 163.426 84.9899C163.443 84.7809 163.391 84.4693 163.27 84.0557C163.225 83.8985 163.179 83.7598 163.132 83.6393L162.708 85.1276C162.722 85.1492 162.736 85.1692 162.749 85.1864Z" fill="white" stroke="#263238" stroke-width="0.5" stroke-miterlimit="10"/>
<path d="M164.965 84.7534L165.712 84.5363L165.075 82.3428L164.43 82.7171L164.255 82.115L164.906 81.744L165.551 81.5566L166.362 84.3479L167.109 84.1308L167.281 84.7194L165.137 85.3425L164.965 84.7534Z" fill="white" stroke="#263238" stroke-width="0.5" stroke-miterlimit="10"/>
<path d="M167.29 82.8877C167.12 82.3023 167.085 81.8363 167.186 81.4902C167.287 81.144 167.523 80.9172 167.897 80.8087C168.271 80.7002 168.593 80.7644 168.863 81.0015C169.133 81.2391 169.354 81.6511 169.525 82.2381C169.695 82.8234 169.729 83.2889 169.628 83.6345C169.527 83.9796 169.29 84.2069 168.916 84.3155C168.543 84.424 168.221 84.3587 167.951 84.1205C167.68 83.8824 167.46 83.4714 167.29 82.8877ZM168.061 81.3746C167.907 81.4194 167.821 81.5463 167.806 81.7553C167.79 81.9648 167.842 82.277 167.962 82.6917C168 82.8202 168.037 82.9363 168.074 83.04L168.491 81.5706C168.488 81.5663 168.486 81.5625 168.482 81.5582C168.357 81.3908 168.216 81.3293 168.061 81.3746ZM168.331 83.5643C168.457 83.7323 168.597 83.7938 168.751 83.749C168.906 83.7036 168.992 83.5767 169.008 83.3672C169.025 83.1577 168.973 82.8467 168.852 82.433C168.806 82.2759 168.761 82.1371 168.714 82.0167L168.29 83.5049C168.304 83.5271 168.318 83.547 168.331 83.5643Z" fill="white" stroke="#263238" stroke-width="0.5" stroke-miterlimit="10"/>
<path d="M170.547 83.1319L171.294 82.9148L170.657 80.7213L170.012 81.0955L169.837 80.4934L170.488 80.1224L171.133 79.9351L171.944 82.7263L172.691 82.5092L172.862 83.0978L170.718 83.721L170.547 83.1319Z" fill="white" stroke="#263238" stroke-width="0.5" stroke-miterlimit="10"/>
<path d="M172.873 81.2656C172.703 80.6803 172.668 80.2142 172.769 79.8681C172.87 79.522 173.106 79.2952 173.479 79.1866C173.853 79.0781 174.176 79.1423 174.446 79.3794C174.716 79.617 174.936 80.029 175.107 80.616C175.277 81.2014 175.311 81.6669 175.21 82.0125C175.109 82.3575 174.872 82.5849 174.497 82.6934C174.125 82.8019 173.803 82.7366 173.532 82.4984C173.263 82.2608 173.043 81.8494 172.873 81.2656ZM173.644 79.7526C173.49 79.7974 173.405 79.9243 173.389 80.1333C173.373 80.3428 173.425 80.6549 173.545 81.0696C173.583 81.1981 173.62 81.3137 173.657 81.4179L174.074 79.9486C174.071 79.9442 174.069 79.9405 174.065 79.9362C173.94 79.7688 173.799 79.7077 173.644 79.7526ZM173.914 81.9422C174.04 82.1102 174.18 82.1717 174.334 82.1269C174.489 82.0816 174.575 81.9547 174.591 81.7452C174.608 81.5356 174.556 81.2246 174.435 80.8109C174.39 80.6538 174.344 80.515 174.297 80.3946L173.873 81.8828C173.887 81.9055 173.901 81.925 173.914 81.9422Z" fill="white" stroke="#263238" stroke-width="0.5" stroke-miterlimit="10"/>
<path d="M176.13 81.5095L176.878 81.2925L176.241 79.099L175.596 79.4732L175.421 78.8711L176.072 78.5001L176.717 78.3127L177.528 81.104L178.275 80.8869L178.447 81.4755L176.303 82.0987L176.13 81.5095Z" fill="white" stroke="#263238" stroke-width="0.5" stroke-miterlimit="10"/>
<path d="M178.455 79.6434C178.285 79.058 178.251 78.592 178.351 78.2459C178.452 77.8997 178.688 77.6729 179.061 77.5644C179.435 77.4558 179.758 77.5201 180.028 77.7572C180.298 77.9948 180.518 78.4068 180.689 78.9938C180.859 79.5791 180.894 80.0446 180.793 80.3902C180.692 80.7353 180.454 80.9626 180.08 81.0711C179.707 81.1797 179.386 81.1143 179.115 80.8762C178.845 80.6386 178.625 80.2277 178.455 79.6434ZM179.226 78.1303C179.072 78.1751 178.987 78.302 178.971 78.511C178.955 78.7205 179.007 79.0326 179.127 79.4474C179.165 79.5759 179.202 79.6914 179.239 79.7957L179.656 78.3263C179.653 78.322 179.651 78.3182 179.647 78.3139C179.522 78.1465 179.381 78.0855 179.226 78.1303ZM179.496 80.3205C179.622 80.4885 179.762 80.55 179.916 80.5052C180.071 80.4599 180.157 80.333 180.173 80.1234C180.19 79.9139 180.138 79.6029 180.017 79.1892C179.971 79.0321 179.926 78.8933 179.879 78.7729L179.455 80.2611C179.469 80.2833 179.483 80.3027 179.496 80.3205Z" fill="white" stroke="#263238" stroke-width="0.5" stroke-miterlimit="10"/>
<path d="M181.713 79.8875L182.459 79.6704L181.822 77.4769L181.177 77.8511L181.002 77.249L181.653 76.878L182.298 76.6907L183.109 79.4819L183.856 79.2648L184.027 79.8534L181.883 80.4766L181.713 79.8875Z" fill="white" stroke="#263238" stroke-width="0.5" stroke-miterlimit="10"/>
<path d="M184.038 78.0212C183.868 77.4359 183.834 76.9699 183.934 76.6237C184.035 76.2776 184.271 76.0508 184.644 75.9422C185.018 75.8337 185.341 75.898 185.611 76.135C185.881 76.3726 186.102 76.7846 186.272 77.3716C186.442 77.957 186.476 78.4225 186.375 78.7681C186.274 79.1131 186.037 79.3405 185.662 79.449C185.29 79.5575 184.968 79.4922 184.698 79.2541C184.428 79.0165 184.208 78.6055 184.038 78.0212ZM184.809 76.5087C184.655 76.5535 184.57 76.6804 184.554 76.8894C184.538 77.0989 184.591 77.411 184.711 77.8258C184.748 77.9543 184.785 78.0698 184.822 78.1741L185.239 76.7047C185.236 76.7004 185.234 76.6966 185.23 76.6923C185.105 76.5249 184.964 76.4633 184.809 76.5087ZM185.079 78.6984C185.205 78.8663 185.345 78.9279 185.499 78.8831C185.654 78.8377 185.74 78.7108 185.756 78.5013C185.773 78.2918 185.721 77.9807 185.6 77.5671C185.555 77.41 185.509 77.2712 185.462 77.1508L185.038 78.639C185.052 78.6611 185.066 78.6806 185.079 78.6984Z" fill="white" stroke="#263238" stroke-width="0.5" stroke-miterlimit="10"/>
<path d="M187.295 78.2653L188.043 78.0482L187.406 75.8547L186.761 76.2284L186.586 75.6263L187.237 75.2553L187.882 75.068L188.693 77.8592L189.44 77.6421L189.612 78.2307L187.468 78.8539L187.295 78.2653Z" fill="white" stroke="#263238" stroke-width="0.5" stroke-miterlimit="10"/>
<path d="M189.62 76.399C189.45 75.8137 189.416 75.3477 189.516 75.0015C189.617 74.6554 189.853 74.4286 190.227 74.3201C190.601 74.2115 190.923 74.2758 191.193 74.5128C191.464 74.7504 191.684 75.1624 191.855 75.7494C192.025 76.3348 192.059 76.8003 191.958 77.1453C191.857 77.4904 191.62 77.7177 191.246 77.8263C190.873 77.9348 190.551 77.8695 190.281 77.6313C190.01 77.3943 189.79 76.9833 189.62 76.399ZM190.391 74.8865C190.237 74.9313 190.152 75.0582 190.136 75.2672C190.12 75.4767 190.173 75.7888 190.293 76.2036C190.33 76.3321 190.368 76.4477 190.404 76.5519L190.822 75.0825C190.819 75.0782 190.816 75.0744 190.813 75.0701C190.687 74.9027 190.547 74.8412 190.391 74.8865ZM190.662 77.0762C190.788 77.2441 190.928 77.3057 191.081 77.2609C191.237 77.2155 191.323 77.0886 191.339 76.8791C191.355 76.6696 191.303 76.3585 191.183 75.9449C191.137 75.7878 191.091 75.649 191.045 75.5286L190.62 77.0168C190.634 77.0389 190.648 77.0589 190.662 77.0762Z" fill="white" stroke="#263238" stroke-width="0.5" stroke-miterlimit="10"/>
<path d="M192.878 76.6431L193.624 76.4261L192.987 74.2326L192.342 74.6063L192.167 74.0042L192.818 73.6332L193.463 73.4458L194.274 76.2371L195.021 76.02L195.193 76.6086L193.049 77.2317L192.878 76.6431Z" fill="white" stroke="#263238" stroke-width="0.5" stroke-miterlimit="10"/>
<path d="M195.669 75.8321L196.416 75.615L195.779 73.4215L195.134 73.7957L194.959 73.1936L195.61 72.8226L196.255 72.6353L197.066 75.4265L197.813 75.2094L197.984 75.798L195.84 76.4207L195.669 75.8321Z" fill="white" stroke="#263238" stroke-width="0.5" stroke-miterlimit="10"/>
<path d="M184.276 55.9411L180.817 56.9461C179.86 57.2242 178.859 56.6739 178.581 55.7171C178.303 54.7602 178.853 53.759 179.81 53.4809L183.269 52.476C184.226 52.1979 185.227 52.7481 185.505 53.705C185.783 54.6619 185.233 55.663 184.276 55.9411Z" stroke="#263238" stroke-width="0.5" stroke-miterlimit="10" stroke-linecap="round" stroke-linejoin="round"/>
<path d="M189.227 54.5027L185.767 55.5076C184.81 55.7857 183.809 55.2354 183.531 54.2786C183.253 53.3217 183.803 52.3205 184.76 52.0424L188.219 51.0375C189.176 50.7594 190.177 51.3097 190.456 52.2665C190.734 53.224 190.183 54.2246 189.227 54.5027Z" stroke="#263238" stroke-width="0.5" stroke-miterlimit="10" stroke-linecap="round" stroke-linejoin="round"/>
<path d="M206.267 31.0871C206.267 31.0871 201.714 40.8346 198.453 43.9386C195.193 47.0419 181.857 55.7932 178.51 59.4479C174.484 63.8424 178.434 68.609 181.272 70.1167C184.111 71.6244 186.274 71.3695 194.192 66.84C202.109 62.3104 204.673 53.9383 212.831 52.1876C220.988 50.4369 230.882 50.5152 238.309 45.0493C245.736 39.5835 248.742 37.1664 248.652 36.6502" fill="white"/>
<path d="M206.267 31.0871C206.267 31.0871 201.714 40.8346 198.453 43.9386C195.193 47.0419 181.857 55.7932 178.51 59.4479C174.484 63.8424 178.434 68.609 181.272 70.1167C184.111 71.6244 186.274 71.3695 194.192 66.84C202.109 62.3104 204.673 53.9383 212.831 52.1876C220.988 50.4369 230.882 50.5152 238.309 45.0493C245.736 39.5835 248.742 37.1664 248.652 36.6502" stroke="#263238" stroke-width="0.5" stroke-miterlimit="10" stroke-linecap="round" stroke-linejoin="round"/>
<path d="M186.801 68.9854C189.916 66.4695 190.349 65.2702 189.788 64.6805C189.226 64.0908 184.318 57.5169 184.318 57.5169C184.318 57.5169 179.424 59.7006 178.003 61.279C176.581 62.8575 177.308 66.1018 180.192 68.3044C183.076 70.5071 185.276 70.1005 185.86 69.7695" stroke="#263238" stroke-width="0.5" stroke-miterlimit="10" stroke-linecap="round" stroke-linejoin="round"/>
<path d="M262.105 -5.18579L250.117 1.97677L270.08 35.6549V-5.18579H262.105Z" fill="#263238" stroke="#263238" stroke-width="0.5" stroke-miterlimit="10" stroke-linecap="round" stroke-linejoin="round"/>
<path d="M98.5535 172.728C95.2676 172.442 90.6965 176.442 90.6965 176.442L53.1244 177.013C53.1244 177.013 53.6957 172.442 51.9812 171.299C50.2667 170.157 49.124 172.299 46.9813 173.871C44.8386 175.442 36.4097 181.014 36.4097 181.014C36.4097 181.014 23.4098 189.443 20.6952 191.443C17.9806 193.443 11.1237 205.443 11.1237 205.443C11.1237 205.443 6.55206 213.872 5.26632 218.3C3.98058 222.729 2.69484 226.872 2.69484 226.872L0.237305 229.578V264.657H15.67L30.1236 253.872C30.1236 253.872 33.9808 252.586 37.2667 251.158C40.5526 249.729 47.8383 245.872 55.2671 241.729C62.6959 237.586 70.1246 232.3 70.1246 232.3C70.1246 232.3 78.4104 223.443 81.982 219.872C85.5535 216.3 88.982 209.014 90.1246 205.014C91.2678 201.014 92.9818 189.871 92.9818 189.871C92.9818 189.871 93.6962 188.585 95.5532 185.871C97.4103 183.156 99.9818 180.871 101.268 177.585C102.553 174.299 101.839 173.014 98.5535 172.728Z" fill="white" stroke="#263238" stroke-width="0.5" stroke-miterlimit="10" stroke-linecap="round" stroke-linejoin="round"/>
<path d="M92.5348 175.039C91.4364 175.795 90.6955 176.442 90.6955 176.442L53.1234 177.014C53.1234 177.014 53.1688 176.652 53.1952 176.107C52.0396 179.486 49.2802 186.76 46.6348 187.743C43.1723 189.029 40.8967 192.59 40.8967 192.59L36.6982 195.973C36.6982 195.973 39.2152 196.449 40.6991 196.548C42.183 196.646 44.2604 197.834 47.9211 198.526C51.5817 199.218 65.828 205.55 65.828 205.55C65.828 205.55 69.7851 208.518 70.6756 212.575C71.566 216.631 70.0821 219.895 70.0821 219.895L87.5776 211.384C88.7305 209.025 89.6366 206.72 90.1242 205.014C90.4083 204.02 90.7274 202.586 91.0465 200.992L90.7587 198.625C90.7587 198.625 88.7802 189.424 88.9778 185.269C89.1209 182.275 91.3181 177.483 92.5348 175.039Z" fill="#263238" stroke="#263238" stroke-width="0.5" stroke-miterlimit="10" stroke-linecap="round" stroke-linejoin="round"/>
<path d="M85.3588 216.322C85.3588 216.322 91.8469 206.099 92.928 203.149C94.0096 200.201 93.3211 197.153 92.928 194.794C92.5349 192.434 93.4194 188.993 92.24 187.912C91.0601 186.831 87.6198 186.831 86.2433 189.485C84.8669 192.139 85.3588 194.695 85.7519 197.153C86.145 199.61 86.3416 200.888 86.3416 200.888C86.3416 200.888 83.6875 203.739 83.6875 204.034" fill="white"/>
<path d="M85.3588 216.322C85.3588 216.322 91.8469 206.099 92.928 203.149C94.0096 200.201 93.3211 197.153 92.928 194.794C92.5349 192.434 93.4194 188.993 92.24 187.912C91.0601 186.831 87.6198 186.831 86.2433 189.485C84.8669 192.139 85.3588 194.695 85.7519 197.153C86.145 199.61 86.3416 200.888 86.3416 200.888C86.3416 200.888 83.6875 203.739 83.6875 204.034" stroke="#263238" stroke-width="0.5" stroke-miterlimit="10" stroke-linecap="round" stroke-linejoin="round"/>
<path d="M70.7114 231.166C70.7114 231.166 81.918 221.729 83.3928 219.173C84.8675 216.617 87.4233 211.8 87.5216 208.851C87.6199 205.901 85.6538 202.363 85.2606 200.692C84.8675 199.021 82.2134 198.922 80.5421 200.888C78.8708 202.855 79.5593 206.689 79.6576 207.671C79.7559 208.654 79.8542 209.638 79.8542 209.638C79.8542 209.638 77.6915 211.702 77.1018 212.98C76.5121 214.258 75.9219 215.535 75.9219 215.535C75.9219 215.535 72.7764 217.403 71.4982 218.288C70.22 219.172 68.9424 221.237 68.9424 221.237" fill="white"/>
<path d="M70.7114 231.166C70.7114 231.166 81.918 221.729 83.3928 219.173C84.8675 216.617 87.4233 211.8 87.5216 208.851C87.6199 205.901 85.6538 202.363 85.2606 200.692C84.8675 199.021 82.2134 198.922 80.5421 200.888C78.8708 202.855 79.5593 206.689 79.6576 207.671C79.7559 208.654 79.8542 209.638 79.8542 209.638C79.8542 209.638 77.6915 211.702 77.1018 212.98C76.5121 214.258 75.9219 215.535 75.9219 215.535C75.9219 215.535 72.7764 217.403 71.4982 218.288C70.22 219.172 68.9424 221.237 68.9424 221.237" stroke="#263238" stroke-width="0.5" stroke-miterlimit="10" stroke-linecap="round" stroke-linejoin="round"/>
<path d="M80.6396 210.522C80.6396 210.522 81.7213 213.078 84.3754 213.471" stroke="#263238" stroke-width="0.5" stroke-miterlimit="10" stroke-linecap="round" stroke-linejoin="round"/>
<path d="M76.413 216.224C76.413 216.224 75.3314 219.664 79.8539 220.844" stroke="#263238" stroke-width="0.5" stroke-miterlimit="10" stroke-linecap="round" stroke-linejoin="round"/>
<path d="M87.0297 201.38C87.0297 201.38 86.8331 204.427 91.1585 203.837" stroke="#263238" stroke-width="0.5" stroke-miterlimit="10" stroke-linecap="round" stroke-linejoin="round"/>
<path d="M67.4678 208.95C67.4678 208.95 69.1391 211.407 69.3356 214.847" stroke="#263238" stroke-width="0.5" stroke-miterlimit="10" stroke-linecap="round" stroke-linejoin="round"/>
<path d="M44.6616 188.699C44.6616 188.699 40.9258 192.337 40.2379 193.123C39.5499 193.909 36.6993 195.973 36.6993 195.973C36.6993 195.973 35.8147 198.431 34.9297 199.906" stroke="#263238" stroke-width="0.5" stroke-miterlimit="10" stroke-linecap="round" stroke-linejoin="round"/>
<path d="M42.4009 202.658C42.4009 202.658 41.8112 211.014 36.7979 216.912" stroke="#263238" stroke-width="0.5" stroke-miterlimit="10" stroke-linecap="round" stroke-linejoin="round"/>
<path d="M53.9196 205.719C53.9196 205.719 50.3994 211.146 54.2129 219.066C58.0263 226.987 59.4935 231.974 59.4935 231.974" stroke="#263238" stroke-width="0.5" stroke-miterlimit="10" stroke-linecap="round" stroke-linejoin="round"/>
<path d="M74.6205 133.843L41.7723 194.107C40.1561 197.072 41.8187 200.761 45.1111 201.514L71.503 207.55C73.7959 208.074 76.1498 206.961 77.1995 204.857L109.008 141.113C109.982 139.16 108.767 136.825 106.609 136.502L77.9177 132.204C76.5834 132.003 75.2663 132.658 74.6205 133.843Z" fill="white" stroke="#263238" stroke-width="0.5" stroke-miterlimit="10" stroke-linecap="round" stroke-linejoin="round"/>
<path d="M73.7791 138.199L44.6045 191.889L78.6839 199.683L106.066 144.092L73.7791 138.199Z" fill="#92E3A9" stroke="#263238" stroke-width="0.5" stroke-miterlimit="10" stroke-linecap="round" stroke-linejoin="round"/>
<path d="M109.848 139.927L109.849 139.926L109.843 139.916C109.826 139.884 109.806 139.854 109.788 139.823L109.251 138.904C109.428 139.611 109.369 140.388 109.008 141.113L77.1998 204.856C76.1495 206.961 73.7962 208.073 71.5033 207.549L45.1114 201.514C43.406 201.124 42.1435 199.944 41.542 198.487L41.5117 198.478C41.5117 198.478 41.7126 200.836 44.2209 202.642C44.2209 202.642 44.5503 202.925 45.2026 202.982C45.4478 203.08 45.7005 203.167 45.9683 203.228L72.3603 209.264C74.6531 209.788 77.0065 208.675 78.0568 206.571L109.865 142.827C110.349 141.857 110.292 140.792 109.848 139.927Z" fill="#919191" stroke="#263238" stroke-width="0.5" stroke-miterlimit="10" stroke-linecap="round" stroke-linejoin="round"/>
<path d="M94.4468 159.18C94.3982 159.252 94.3507 159.325 94.2999 159.396C93.498 160.515 91.9612 160.676 91.5152 159.68C91.0875 158.723 90.5685 157.834 89.9205 157.039C88.712 155.557 87.18 154.452 85.3311 153.72C84.0475 153.211 82.6656 152.907 81.185 152.82C77.5022 152.606 73.8258 153.585 70.1619 155.754C69.8196 155.956 69.4794 156.097 69.1219 156.112C68.4226 156.14 67.9064 155.7 67.8599 155.033C67.8135 154.363 68.2374 153.628 68.9178 153.213C69.8396 152.65 70.7829 152.151 71.7458 151.712C74.1741 150.605 76.6128 149.928 79.0601 149.675C81.2762 149.446 83.3693 149.589 85.3435 150.091C88.1979 150.817 90.534 152.22 92.3613 154.284C93.2782 155.32 94.0083 156.496 94.5699 157.797C94.6931 158.082 94.7093 158.399 94.6137 158.75C94.6067 158.776 94.605 158.801 94.6013 158.827C94.5489 158.945 94.4976 159.062 94.4468 159.18Z" fill="#263238"/>
<path d="M74.9601 170.61C74.8018 170.517 74.6253 170.446 74.4892 170.33C73.9346 169.859 73.9006 168.964 74.3925 168.181C74.8866 167.395 75.7792 166.899 76.5795 166.967C77.5305 167.047 78.057 167.898 77.7519 168.862C77.4208 169.907 76.4078 170.684 75.3991 170.668C75.378 170.667 75.3553 170.674 75.3332 170.677C75.209 170.655 75.0843 170.632 74.9601 170.61Z" fill="#263238"/>
<path d="M81.7128 155.594C85.2131 156.279 87.6717 158.141 89.0481 161.227C89.282 161.75 89.1167 162.417 88.6334 162.95C88.1577 163.474 87.4703 163.737 86.8979 163.605C86.5377 163.523 86.2909 163.313 86.15 162.99C85.8011 162.191 85.3389 161.479 84.7524 160.861C83.8555 159.916 82.7512 159.237 81.4293 158.842C79.1726 158.168 76.7442 158.332 74.1479 159.344C73.3952 159.637 72.6635 160.007 71.9496 160.437C71.557 160.673 71.1655 160.772 70.7816 160.714C70.2005 160.626 69.8344 160.174 69.8511 159.574C69.8679 158.974 70.2626 158.347 70.8604 157.984C71.7411 157.448 72.6456 156.991 73.5734 156.615C75.6302 155.78 77.6585 155.375 79.6592 155.403C80.3622 155.413 81.0448 155.481 81.7128 155.594Z" fill="#263238"/>
<path d="M83.8049 165.514C83.4814 166.175 83.0062 166.604 82.3458 166.756C81.6875 166.907 81.2091 166.715 80.9645 166.199C80.6993 165.64 80.3591 165.148 79.8818 164.766C78.38 163.564 76.0181 163.593 73.8942 164.861C73.1377 165.312 72.3779 165.245 72.0005 164.778C71.4783 164.132 71.8471 162.999 72.7716 162.44C74.3322 161.497 75.9333 160.949 77.5527 160.888C80.4828 160.779 82.5504 161.884 83.7336 164.204C83.8772 164.486 83.9793 164.785 83.9015 165.157C83.8734 165.286 83.8313 165.416 83.8049 165.514Z" fill="#263238"/>
</g>
<defs>
<clipPath id="clip0_2535_715">
<rect width="270" height="237" fill="white"/>
</clipPath>
</defs>
</svg>
