<svg width="44" height="44" viewBox="0 0 44 44" fill="none" xmlns="http://www.w3.org/2000/svg">
<path d="M28.9331 39.6544H12.9075C10.8442 39.6544 9.16602 37.9712 9.16602 35.9019V5.58549C9.16602 3.51629 10.8442 1.83295 12.9075 1.83295H28.9331C30.9959 1.83295 32.6741 3.51629 32.6741 5.58549V35.9019C32.6741 37.9712 30.9959 39.6544 28.9331 39.6544ZM12.9075 2.88084C11.4222 2.88084 10.2137 4.09482 10.2137 5.58549V35.9019C10.2137 37.3927 11.4222 38.6067 12.9075 38.6067H28.9331C30.4178 38.6067 31.6263 37.3927 31.6263 35.9019V5.58549C31.6263 4.09482 30.4177 2.88084 28.9331 2.88084H12.9075Z" fill="#42794A"/>
<path d="M28.9873 24.4962H12.9617C12.3066 24.4962 11.7734 23.9701 11.7734 23.3226V5.58593C11.7734 4.93841 12.3066 4.41125 12.9617 4.41125H28.9873C29.6315 4.41125 30.1751 4.94933 30.1751 5.58593V23.3226C30.1751 23.9592 29.6315 24.4962 28.9873 24.4962ZM12.9617 5.45902C12.883 5.45902 12.8212 5.51477 12.8212 5.58593V23.3226C12.8212 23.3937 12.882 23.4483 12.9617 23.4483H28.9873C29.0551 23.4483 29.1273 23.3839 29.1273 23.3226V5.58593C29.1273 5.52466 29.0551 5.45902 28.9873 5.45902H12.9617Z" fill="#42794A"/>
<path d="M14.1453 22.6933C14.0227 22.6933 13.9002 22.6507 13.8006 22.5642C13.5824 22.3739 13.5601 22.0436 13.7504 21.8249L27.2429 6.35228C27.4327 6.13353 27.7646 6.11272 27.9822 6.30205C28.2004 6.49229 28.2229 6.82266 28.0325 7.04141L14.54 22.5139C14.4366 22.6332 14.2912 22.6933 14.1453 22.6933Z" fill="#42794A"/>
<path d="M30.0052 42.1664H11.9453C10.9921 42.1664 10.2173 41.3854 10.2173 40.4261C10.2173 39.467 10.9922 38.686 11.9453 38.686H30.0052C30.9577 38.686 31.7327 39.467 31.7327 40.4261C31.7327 41.3854 30.9577 42.1664 30.0052 42.1664ZM11.9453 39.7339C11.5703 39.7339 11.2651 40.0445 11.2651 40.4261C11.2651 40.8079 11.5703 41.1185 11.9453 41.1185H30.0052C30.3798 41.1185 30.6849 40.8079 30.6849 40.4261C30.6849 40.0445 30.3798 39.7339 30.0052 39.7339H11.9453Z" fill="#42794A"/>
<path d="M28.2183 36.8447H25.8936C25.0668 36.8447 24.3941 36.1676 24.3941 35.3354C24.3941 34.4911 25.0668 33.8053 25.8936 33.8053H28.2183C29.045 33.8053 29.7177 34.4911 29.7177 35.3354C29.7177 36.1676 29.045 36.8447 28.2183 36.8447ZM25.8936 34.8531C25.6492 34.8531 25.442 35.074 25.442 35.3354C25.442 35.5902 25.6448 35.7969 25.8936 35.7969H28.2183C28.4671 35.7969 28.67 35.5901 28.67 35.3354C28.67 35.074 28.4626 34.8531 28.2183 34.8531H25.8936ZM22.1362 36.8447H19.8115C18.9847 36.8447 18.3121 36.1676 18.3121 35.3354C18.3121 34.4911 18.9847 33.8053 19.8115 33.8053H22.1362C22.963 33.8053 23.6357 34.4911 23.6357 35.3354C23.6357 36.1676 22.963 36.8447 22.1362 36.8447ZM19.8115 34.8531C19.5672 34.8531 19.3599 35.074 19.3599 35.3354C19.3599 35.5902 19.5628 35.7969 19.8115 35.7969H22.1362C22.385 35.7969 22.5878 35.5901 22.5878 35.3354C22.5878 35.074 22.3806 34.8531 22.1362 34.8531H19.8115ZM16.0541 36.8447H13.7295C12.9021 36.8447 12.2295 36.1676 12.2295 35.3354C12.2295 34.4911 12.9022 33.8053 13.7295 33.8053H16.0541C16.8809 33.8053 17.5536 34.4911 17.5536 35.3354C17.5535 36.1676 16.8809 36.8447 16.0541 36.8447ZM13.7294 34.8531C13.4843 34.8531 13.277 35.074 13.277 35.3354C13.277 35.5902 13.48 35.7969 13.7294 35.7969H16.054C16.3028 35.7969 16.5057 35.5901 16.5057 35.3354C16.5057 35.074 16.2984 34.8531 16.054 34.8531H13.7294ZM28.2183 33.1337H25.8936C25.0668 33.1337 24.3941 32.4567 24.3941 31.6243C24.3941 30.792 25.0668 30.115 25.8936 30.115H28.2183C29.045 30.115 29.7177 30.792 29.7177 31.6243C29.7177 32.4568 29.045 33.1337 28.2183 33.1337ZM25.8936 31.1629C25.6448 31.1629 25.442 31.3697 25.442 31.6245C25.442 31.8793 25.6448 32.086 25.8936 32.086H28.2183C28.4671 32.086 28.67 31.8793 28.67 31.6245C28.67 31.3697 28.467 31.1629 28.2183 31.1629H25.8936ZM22.1362 33.1337H19.8115C18.9847 33.1337 18.3121 32.4567 18.3121 31.6243C18.3121 30.792 18.9847 30.115 19.8115 30.115H22.1362C22.963 30.115 23.6357 30.792 23.6357 31.6243C23.6357 32.4568 22.963 33.1337 22.1362 33.1337ZM19.8115 31.1629C19.5628 31.1629 19.3599 31.3697 19.3599 31.6245C19.3599 31.8793 19.5628 32.086 19.8115 32.086H22.1362C22.385 32.086 22.5878 31.8793 22.5878 31.6245C22.5878 31.3697 22.385 31.1629 22.1362 31.1629H19.8115ZM16.0541 33.1337H13.7295C12.9021 33.1337 12.2295 32.4567 12.2295 31.6243C12.2295 30.792 12.9022 30.115 13.7295 30.115H16.0541C16.8809 30.115 17.5536 30.792 17.5536 31.6243C17.5535 32.4568 16.8809 33.1337 16.0541 33.1337ZM13.7294 31.1629C13.48 31.1629 13.277 31.3697 13.277 31.6245C13.277 31.8793 13.48 32.086 13.7294 32.086H16.054C16.3028 32.086 16.5057 31.8793 16.5057 31.6245C16.5057 31.3697 16.3028 31.1629 16.054 31.1629H13.7294ZM28.2183 29.4447H25.8936C25.0804 29.4447 24.3941 28.7535 24.3941 27.9354C24.3941 27.0911 25.0668 26.4041 25.8936 26.4041H28.2183C29.045 26.4041 29.7177 27.0909 29.7177 27.9354C29.7177 28.7535 29.0314 29.4447 28.2183 29.4447ZM25.8936 27.4519C25.6492 27.4519 25.442 27.674 25.442 27.9354C25.442 28.1815 25.653 28.3969 25.8936 28.3969H28.2183C28.4589 28.3969 28.67 28.1814 28.67 27.9354C28.67 27.674 28.4626 27.4519 28.2183 27.4519H25.8936ZM22.1362 29.4447H19.8115C18.9983 29.4447 18.3121 28.7535 18.3121 27.9354C18.3121 27.0911 18.9847 26.4041 19.8115 26.4041H22.1362C22.963 26.4041 23.6357 27.0909 23.6357 27.9354C23.6357 28.7535 22.9494 29.4447 22.1362 29.4447ZM19.8115 27.4519C19.5672 27.4519 19.3599 27.674 19.3599 27.9354C19.3599 28.1815 19.5711 28.3969 19.8115 28.3969H22.1362C22.3768 28.3969 22.5878 28.1814 22.5878 27.9354C22.5878 27.674 22.3806 27.4519 22.1362 27.4519H19.8115ZM16.0541 29.4447H13.7295C12.9163 29.4447 12.2295 28.7535 12.2295 27.9354C12.2295 27.0911 12.9022 26.4041 13.7295 26.4041H16.0541C16.8809 26.4041 17.5536 27.0909 17.5536 27.9354C17.5535 28.7535 16.8672 29.4447 16.0541 29.4447ZM13.7294 27.4519C13.4843 27.4519 13.277 27.674 13.277 27.9354C13.277 28.1815 13.4887 28.3969 13.7294 28.3969H16.054C16.2947 28.3969 16.5057 28.1814 16.5057 27.9354C16.5057 27.674 16.2984 27.4519 16.054 27.4519H13.7294Z" fill="#42794A"/>
<path d="M33.8466 24.4408C33.5528 24.4408 33.3145 24.2066 33.3145 23.9164C33.3145 23.6263 33.5528 23.392 33.8466 23.392C34.0949 23.392 34.3053 23.1906 34.3053 22.9519V10.0239C34.3053 9.76879 34.0993 9.56191 33.8466 9.56191C33.5528 9.56191 33.3145 9.32765 33.3145 9.03746C33.3145 8.74726 33.5528 8.513 33.8466 8.513C34.6864 8.513 35.3697 9.19072 35.3697 10.0239V22.9519C35.3697 23.773 34.6865 24.4408 33.8466 24.4408Z" fill="#42794A"/>
</svg>
