<svg width="63" height="52" viewBox="0 0 73 62" fill="none" xmlns="http://www.w3.org/2000/svg">
<mask id="mask0_2540_91" style="mask-type:alpha" maskUnits="userSpaceOnUse" x="19" y="21" width="13" height="42">
<path d="M31.2577 44.5624C31.2166 44.3523 31.1712 44.1438 31.1214 43.9368C30.6366 41.9198 29.7463 40.0571 28.5398 38.4366C28.4642 38.3396 28.3896 38.2418 28.3159 38.1433C25.9964 35.042 24.626 31.211 24.626 27.0649C24.626 25.2503 24.8885 23.4961 25.3782 21.8369C22.0893 24.3866 19.8713 28.2143 19.4975 32.5591C19.4603 32.9905 19.4414 33.427 19.4414 33.8679C19.4414 35.6933 20.2622 37.1413 21.1394 38.2904C21.855 39.2279 24.7735 41.8821 25.605 43.9277C25.8883 44.6249 26.0568 45.1271 26.236 45.7474L26.2433 45.7727C26.7082 47.39 26.9576 49.0964 26.959 50.8599L26.959 50.8754C26.959 55.0422 23.2418 58.8909 20.9012 62.0003C26.4038 60.1976 30.5399 55.4516 31.3814 49.6597L31.3869 49.6211C31.4264 49.344 31.4584 49.0644 31.4827 48.7827C31.5198 48.3513 31.5387 47.9148 31.5387 47.4739C31.5387 46.4783 31.4422 45.505 31.2577 44.5624Z" fill="black"/>
</mask>
<g mask="url(#mask0_2540_91)">
<rect x="19.0959" y="21.6044" width="12.443" height="40.3958" fill="black"/>
</g>
<mask id="mask1_2540_91" style="mask-type:alpha" maskUnits="userSpaceOnUse" x="20" y="0" width="25" height="46">
<path d="M42.0192 33.6419C38.0846 40.8521 30.3498 45.7546 21.4514 45.7546C21.2997 45.7546 21.1483 45.7532 20.9972 45.7503C29.0551 45.5826 35.8796 40.4806 38.4763 33.3912C38.801 32.5045 39.0596 31.5868 39.2463 30.6438C39.2654 30.5474 39.2837 30.4508 39.3012 30.3539C39.4958 29.2803 39.5974 28.175 39.5974 27.0464C39.5974 18.1766 33.3253 10.7486 24.9078 8.82341V3.40837V0.08461C35.3124 1.60522 43.4762 9.88612 44.6396 20.2434C44.7337 21.081 44.782 21.9322 44.782 22.7945C44.782 24.4479 44.6044 26.0606 44.2669 27.6149C43.8037 29.7488 43.0391 31.7729 42.0192 33.6419Z" fill="black"/>
</mask>
<g mask="url(#mask1_2540_91)">
<rect width="20.2198" height="46.6105" transform="matrix(-1 0 0 1 44.782 -0.606506)" fill="black"/>
</g>
<mask id="mask2_2540_91" style="mask-type:alpha" maskUnits="userSpaceOnUse" x="0" y="5" width="25" height="46">
<path d="M3.53988 38.6914C7.47445 45.9016 15.2093 50.8041 24.1077 50.8041C24.2594 50.8041 24.4108 50.8027 24.5619 50.7998C16.5039 50.6321 9.67953 45.5302 7.08283 38.4407C6.75808 37.5541 6.49945 36.6363 6.3128 35.6933C6.29373 35.5969 6.27541 35.5003 6.25785 35.4034C6.06323 34.3298 5.96167 33.2245 5.96167 32.0959C5.96167 23.2262 12.2338 15.7981 20.6513 13.8729V8.45788V5.13412C10.2467 6.65474 2.0829 14.9356 0.919492 25.2929C0.825403 26.1305 0.7771 26.9817 0.7771 27.844C0.7771 29.4975 0.9547 31.1101 1.29215 32.6644C1.75542 34.7984 2.51997 36.8224 3.53988 38.6914Z" fill="black"/>
</mask>
<g mask="url(#mask2_2540_91)">
<rect x="0.7771" y="4.44313" width="20.2198" height="46.6105" fill="black"/>
</g>
<mask id="mask3_2540_91" style="mask-type:alpha" maskUnits="userSpaceOnUse" x="19" y="21" width="13" height="41">
<path d="M30.8263 44.0175C30.7852 43.8074 30.7398 43.5988 30.69 43.3919C30.2052 41.3749 29.3149 39.5122 28.1084 37.8917C28.0328 37.7947 27.9582 37.6969 27.8845 37.5984C25.565 34.4971 24.1946 30.666 24.1946 26.52C24.1946 24.7054 24.4571 22.9511 24.9468 21.292C21.6579 23.8416 19.4399 27.6693 19.0661 32.0141C19.0289 32.4456 19.01 32.8821 19.01 33.323C19.01 35.1484 19.8308 36.5964 20.708 37.7455C21.4236 38.683 24.3421 41.3372 25.1736 43.3827C25.4569 44.0799 25.6254 44.5822 25.8046 45.2025L25.8119 45.2277C26.2768 46.8451 26.5262 48.5515 26.5276 50.315L26.5276 50.3305C26.5276 54.4973 22.8104 58.3459 20.4698 61.4553C25.9724 59.6527 30.1085 54.9066 30.95 49.1148L30.9555 49.0762C30.995 48.799 31.027 48.5195 31.0513 48.2378C31.0884 47.8064 31.1073 47.3698 31.1073 46.929C31.1073 45.9334 31.0108 44.9601 30.8263 44.0175Z" fill="url(#paint0_linear_2540_91)"/>
</mask>
<g mask="url(#mask3_2540_91)">
<rect x="18.6641" y="21.0599" width="12.443" height="40.3958" fill="url(#paint1_linear_2540_91)"/>
</g>
<mask id="mask4_2540_91" style="mask-type:alpha" maskUnits="userSpaceOnUse" x="-1" y="4" width="25" height="47">
<path d="M2.76254 38.218C6.69711 45.4281 14.432 50.3307 23.3303 50.3307C23.4821 50.3307 23.6335 50.3292 23.7845 50.3264C15.7266 50.1586 8.90218 45.0567 6.30548 37.9672C5.98073 37.0806 5.72211 36.1629 5.53546 35.2199C5.51639 35.1235 5.49807 35.0269 5.4805 34.93C5.28589 33.8564 5.18433 32.7511 5.18433 31.6224C5.18433 22.7527 11.4564 15.3247 19.874 13.3995V7.98443V4.66068C9.46934 6.18129 1.30556 14.4622 0.142148 24.8194C0.0480593 25.657 -0.000244141 26.5082 -0.000244141 27.3706C-0.000244141 29.024 0.177356 30.6366 0.514804 32.191C0.978077 34.3249 1.74263 36.349 2.76254 38.218Z" fill="url(#paint2_linear_2540_91)"/>
</mask>
<g mask="url(#mask4_2540_91)">
<rect x="-0.000244141" y="3.96985" width="20.2198" height="46.6105" fill="url(#paint3_linear_2540_91)"/>
</g>
<mask id="mask5_2540_91" style="mask-type:alpha" maskUnits="userSpaceOnUse" x="20" y="0" width="25" height="46">
<path d="M41.2419 33.5573C37.3073 40.7675 29.5724 45.67 20.6741 45.67C20.5223 45.67 20.3709 45.6686 20.2199 45.6657C28.2778 45.498 35.1022 40.3961 37.6989 33.3066C38.0237 32.4199 38.2823 31.5022 38.4689 30.5592C38.488 30.4628 38.5063 30.3662 38.5239 30.2693C38.7185 29.1957 38.8201 28.0904 38.8201 26.9618C38.8201 18.0921 32.548 10.664 24.1304 8.73881V3.32377V1.52588e-05C34.5351 1.52063 42.6988 9.80153 43.8622 20.1588C43.9563 20.9964 44.0046 21.8476 44.0046 22.7099C44.0046 24.3633 43.827 25.976 43.4896 27.5303C43.0263 29.6642 42.2618 31.6883 41.2419 33.5573Z" fill="url(#paint4_linear_2540_91)"/>
</mask>
<g mask="url(#mask5_2540_91)">
<rect width="20.2198" height="46.6105" transform="matrix(-1 0 0 1 44.0046 -0.691818)" fill="url(#paint5_linear_2540_91)"/>
</g>
<path d="M39.3632 51.0429L41.6421 37.3161H47.0578C48.0944 37.3161 48.9456 37.5149 49.6114 37.9126C50.2817 38.3058 50.7509 38.8532 51.019 39.5547C51.2915 40.2518 51.3541 41.0561 51.2066 41.9677C51.0547 42.8837 50.724 43.6902 50.2147 44.3873C49.7097 45.0799 49.0529 45.6205 48.2441 46.0093C47.4353 46.398 46.5014 46.5924 45.4424 46.5924H41.9906L42.3727 44.2666H45.3553C45.9183 44.2666 46.3987 44.1706 46.7964 43.9784C47.1985 43.7818 47.518 43.5115 47.7548 43.1674C47.9916 42.8189 48.1458 42.419 48.2173 41.9677C48.2933 41.5074 48.2687 41.1075 48.1436 40.7679C48.0184 40.4283 47.7883 40.1647 47.4532 39.977C47.1225 39.7849 46.6779 39.6888 46.1194 39.6888H44.1623L42.2654 51.0429H39.3632ZM53.785 51.2373C53.1326 51.2373 52.5673 51.1233 52.0892 50.8955C51.6156 50.6631 51.267 50.319 51.0436 49.8633C50.8202 49.4075 50.7643 48.8422 50.8761 48.1675C50.9744 47.5956 51.1598 47.1175 51.4324 46.7332C51.7094 46.3444 52.0468 46.0316 52.4445 45.7948C52.8421 45.558 53.2823 45.377 53.7649 45.2519C54.2519 45.1268 54.7546 45.0419 55.2729 44.9972C55.8717 44.9347 56.3587 44.8743 56.7341 44.8162C57.1139 44.7582 57.3976 44.6755 57.5853 44.5682C57.773 44.4565 57.8869 44.2912 57.9271 44.0723V44.032C57.9942 43.612 57.916 43.2858 57.6925 43.0535C57.4736 42.8166 57.1228 42.6982 56.6402 42.6982C56.1309 42.6982 55.6974 42.8099 55.34 43.0334C54.987 43.2568 54.7345 43.5405 54.5826 43.8846L51.982 43.6701C52.2143 43.0445 52.5651 42.5039 53.0343 42.0481C53.5079 41.5878 54.0776 41.2348 54.7434 40.9891C55.4092 40.7389 56.1554 40.6137 56.9821 40.6137C57.554 40.6137 58.088 40.6808 58.584 40.8148C59.0844 40.9489 59.5156 41.1567 59.8776 41.4382C60.244 41.7197 60.5076 42.0816 60.6685 42.524C60.8338 42.9619 60.8673 43.4869 60.769 44.0991L59.6095 51.0429H56.9016L57.1429 49.6153H57.0625C56.8436 49.937 56.5755 50.2207 56.2582 50.4665C55.9409 50.7078 55.5768 50.8977 55.1657 51.0362C54.7546 51.1703 54.2944 51.2373 53.785 51.2373ZM54.9311 49.2667C55.3467 49.2667 55.7287 49.1841 56.0772 49.0187C56.4302 48.8489 56.7207 48.6211 56.9486 48.3351C57.1809 48.0491 57.3284 47.7251 57.3909 47.3632L57.5652 46.2707C57.4758 46.3288 57.3462 46.3802 57.1765 46.4249C57.0111 46.4695 56.8302 46.512 56.6335 46.5522C56.4414 46.5879 56.247 46.6215 56.0504 46.6527C55.8538 46.6796 55.6773 46.7064 55.5209 46.7332C55.1769 46.7823 54.8685 46.8605 54.596 46.9678C54.3234 47.075 54.1022 47.2202 53.9324 47.4034C53.7626 47.5822 53.6576 47.8056 53.6174 48.0737C53.5548 48.4624 53.6464 48.7596 53.8922 48.9651C54.1424 49.1662 54.4887 49.2667 54.9311 49.2667ZM62.2113 54.9036C61.8449 54.9036 61.5097 54.8745 61.2059 54.8164C60.902 54.7628 60.6518 54.6936 60.4552 54.6087L61.4606 52.4773C61.7778 52.58 62.066 52.6336 62.3252 52.6381C62.5888 52.6426 62.8301 52.5756 63.0491 52.437C63.268 52.2985 63.4691 52.0706 63.6523 51.7534L63.907 51.3177L61.9767 40.7478H64.8722L65.7435 48.3217H65.8508L69.2623 40.7478H72.3924L66.5009 52.1555C66.2105 52.7141 65.8664 53.1989 65.4687 53.61C65.0755 54.0211 64.6085 54.3383 64.0679 54.5617C63.5317 54.7896 62.9128 54.9036 62.2113 54.9036Z" fill="#252525"/>
<defs>
<linearGradient id="paint0_linear_2540_91" x1="25.2746" y1="21.8364" x2="24.8866" y2="62.2321" gradientUnits="userSpaceOnUse">
<stop stop-color="#53DE00"/>
<stop offset="1" stop-color="#8EFA00"/>
</linearGradient>
<linearGradient id="paint1_linear_2540_91" x1="25.1076" y1="21.6075" x2="24.726" y2="62.2371" gradientUnits="userSpaceOnUse">
<stop stop-color="#53DE00"/>
<stop offset="1" stop-color="#8EFA00"/>
</linearGradient>
<linearGradient id="paint2_linear_2540_91" x1="23.3303" y1="-0.691776" x2="23.3303" y2="61.4556" gradientUnits="userSpaceOnUse">
<stop stop-color="#054C00"/>
<stop offset="1" stop-color="#8AFB00"/>
</linearGradient>
<linearGradient id="paint3_linear_2540_91" x1="19.8335" y1="-1.49283" x2="19.8335" y2="61.9344" gradientUnits="userSpaceOnUse">
<stop stop-color="#054C00"/>
<stop offset="1" stop-color="#8AFB00"/>
</linearGradient>
<linearGradient id="paint4_linear_2540_91" x1="20.6741" y1="-5.35244" x2="20.6741" y2="56.7949" gradientUnits="userSpaceOnUse">
<stop stop-color="#054C00"/>
<stop offset="1" stop-color="#8AFB00"/>
</linearGradient>
<linearGradient id="paint5_linear_2540_91" x1="19.8337" y1="-5.46268" x2="19.8337" y2="57.9645" gradientUnits="userSpaceOnUse">
<stop stop-color="#054C00"/>
<stop offset="1" stop-color="#8AFB00"/>
</linearGradient>
</defs>
</svg>
