<svg width="24" height="24" viewBox="0 0 24 24" fill="none" xmlns="http://www.w3.org/2000/svg">
<g clip-path="url(#clip0_2535_91)">
<path d="M21.1497 7.58719C21.1405 7.542 21.1271 7.49757 21.1095 7.45519C21.0919 7.41286 21.07 7.37119 21.0446 7.33308C21.0185 7.29427 20.9888 7.25827 20.9564 7.22579C20.9239 7.1933 20.8879 7.16368 20.8491 7.13827C20.811 7.11286 20.77 7.09097 20.7276 7.07335C20.6846 7.05572 20.6401 7.04227 20.5957 7.03313C20.5039 7.01475 20.4108 7.01475 20.3197 7.03313C20.2743 7.04232 20.2299 7.05572 20.1876 7.07335C20.1445 7.09097 20.1036 7.11286 20.0655 7.13827C20.0266 7.16368 19.9906 7.1933 19.9582 7.22579C19.9257 7.25827 19.896 7.29427 19.8706 7.33308C19.8452 7.37119 19.8233 7.41286 19.8057 7.45519C19.7881 7.49757 19.7746 7.542 19.7655 7.58719C19.7563 7.63308 19.7514 7.67893 19.7514 7.72482C19.7514 7.91115 19.8269 8.09325 19.9582 8.22385C19.9907 8.25633 20.0267 8.28596 20.0655 8.31207C20.1037 8.33747 20.1446 8.35936 20.1877 8.37699C20.23 8.39461 20.2744 8.40807 20.3197 8.41721C20.3648 8.4264 20.4114 8.43061 20.4572 8.43061C20.5031 8.43061 20.5498 8.4264 20.5957 8.41721C20.6401 8.40802 20.6846 8.39461 20.7276 8.37699C20.77 8.35936 20.8109 8.33747 20.849 8.31207C20.8878 8.28596 20.9238 8.25629 20.9563 8.22385C21.0876 8.09255 21.1631 7.91119 21.1631 7.72482C21.1631 7.67893 21.1589 7.63308 21.1497 7.58719Z" fill="#94CA9C"/>
<path d="M20.3039 5.09789C20.2018 4.89694 20.091 4.69734 19.9747 4.50473C19.1608 3.15623 18.0097 2.02748 16.6458 1.24059C15.2392 0.429 13.6328 0 12 0C6.86723 0 2.69137 4.17586 2.69137 9.30863V10.9211C1.28212 11.5553 0.297935 12.9719 0.297935 14.6149C0.297935 16.8476 2.11439 18.6641 4.34719 18.6641H5.03362C5.36212 19.629 6.27656 20.3254 7.35122 20.3254C8.70112 20.3254 9.79931 19.2272 9.79931 17.8773V11.3524C9.79931 10.0025 8.70112 8.90433 7.35122 8.90433C6.27661 8.90433 5.36212 9.6007 5.03362 10.5656H4.34719C4.26515 10.5656 4.18387 10.5688 4.10306 10.5737V9.30872C4.10306 4.95422 7.64569 1.41169 12 1.41169C14.7922 1.41169 17.3215 2.84072 18.7663 5.2343C18.8648 5.39761 18.9587 5.56683 19.0453 5.73727C19.2218 6.0848 19.6468 6.22331 19.9942 6.04692C20.3418 5.87034 20.4804 5.44542 20.3039 5.09789ZM6.31472 17.8772V11.3525C6.31472 10.781 6.77962 10.316 7.35117 10.316C7.92267 10.316 8.38762 10.7809 8.38762 11.3525V17.8772C8.38762 18.4487 7.92272 18.9137 7.35117 18.9137C6.77972 18.9137 6.31481 18.4488 6.31472 17.8773C6.31472 17.8773 6.31472 17.8773 6.31472 17.8772ZM4.34719 11.9772H4.90308V17.2523H4.34719C2.89284 17.2524 1.70958 16.0692 1.70958 14.6148C1.70958 13.1604 2.89279 11.9772 4.34719 11.9772Z" fill="#94CA9C"/>
<path d="M21.3086 10.921V10.0144C21.3086 9.62461 20.9925 9.30858 20.6028 9.30858C20.213 9.30858 19.8969 9.62456 19.8969 10.0144V10.5736C19.8161 10.5688 19.7348 10.5655 19.6528 10.5655H18.9664C18.6379 9.60061 17.7235 8.90424 16.6488 8.90424C15.2989 8.90424 14.2007 10.0024 14.2007 11.3523V17.8772C14.2007 19.2271 15.2989 20.3253 16.6488 20.3253C17.7235 20.3253 18.6379 19.6289 18.9664 18.664H19.6528C19.8504 18.664 20.0445 18.6491 20.2346 18.6216V21.214H14.6068C14.3196 20.4023 13.5446 19.819 12.6357 19.819H11.4348C10.2821 19.819 9.3443 20.7568 9.3443 21.9095C9.3443 23.0622 10.2822 24 11.4348 24H12.6357C13.537 24 14.3068 23.4267 14.5998 22.6256H20.9405C21.3302 22.6256 21.6463 22.3096 21.6463 21.9198V18.1371C22.8725 17.4405 23.7021 16.123 23.7021 14.6148C23.7021 12.9718 22.7179 11.5553 21.3086 10.921ZM17.6852 17.8771V17.8772C17.6852 18.4488 17.2203 18.9136 16.6487 18.9136C16.0772 18.9136 15.6123 18.4487 15.6123 17.8772V11.3523C15.6123 10.7808 16.0772 10.3159 16.6487 10.3159C17.2202 10.3159 17.6852 10.7808 17.6852 11.3523V17.8771ZM13.3096 21.9881C13.2704 22.3256 12.9834 22.5884 12.6357 22.5884H11.4348C11.0605 22.5884 10.756 22.2839 10.756 21.9095C10.756 21.5351 11.0605 21.2307 11.4348 21.2307H12.6357C12.9865 21.2307 13.276 21.4981 13.311 21.8398C13.3081 21.8662 13.3062 21.8927 13.3062 21.9198C13.3062 21.9428 13.3075 21.9656 13.3096 21.9881ZM19.6528 17.2524H19.0968V11.9773H19.6528C21.1072 11.9773 22.2904 13.1605 22.2904 14.6149C22.2904 16.0693 21.1072 17.2524 19.6528 17.2524Z" fill="#94CA9C"/>
</g>
<defs>
<clipPath id="clip0_2535_91">
<rect width="24" height="24" fill="white"/>
</clipPath>
</defs>
</svg>
