<svg width="20" height="22" viewBox="0 0 20 22" fill="none" xmlns="http://www.w3.org/2000/svg">
<path d="M6.59 12.5102L13.42 16.4902M13.41 5.51024L6.59 9.49024M19 4.00024C19 5.65709 17.6569 7.00024 16 7.00024C14.3431 7.00024 13 5.65709 13 4.00024C13 2.34339 14.3431 1.00024 16 1.00024C17.6569 1.00024 19 2.34339 19 4.00024ZM7 11.0002C7 12.6571 5.65685 14.0002 4 14.0002C2.34315 14.0002 1 12.6571 1 11.0002C1 9.34334 2.34315 8.00024 4 8.00024C5.65685 8.00024 7 9.34334 7 11.0002ZM19 18.0002C19 19.6571 17.6569 21.0002 16 21.0002C14.3431 21.0002 13 19.6571 13 18.0002C13 16.3433 14.3431 15.0002 16 15.0002C17.6569 15.0002 19 16.3433 19 18.0002Z" stroke="#252525" stroke-width="2" stroke-linecap="round" stroke-linejoin="round"/>
</svg>
