<svg width="44" height="44" viewBox="0 0 44 44" fill="none" xmlns="http://www.w3.org/2000/svg">
<path d="M34.9518 42.1666H9.65993C7.36589 42.1666 5.5 40.3716 5.5 38.1649V36.3019C5.5 34.0953 7.36589 32.3001 9.65993 32.3001H14.8425H16.0073H28.6036H29.7686H34.9518C37.2452 32.3001 39.1111 34.0953 39.1111 36.3019V38.1649C39.1111 40.3716 37.2452 42.1666 34.9518 42.1666ZM9.65993 33.4176C9.26165 33.4176 8.88126 33.4929 8.53331 33.6295C8.07896 33.8079 7.6799 34.0907 7.3685 34.4468C6.92958 34.9488 6.6648 35.5963 6.6648 36.3019V38.1649C6.6648 39.3109 7.36311 40.3036 8.37158 40.7684C8.76204 40.9484 9.199 41.0493 9.65993 41.0493H34.9518C35.4124 41.0493 35.8492 40.9485 36.2395 40.7686C37.2478 40.3038 37.9462 39.311 37.9462 38.1649V36.3019C37.9462 35.5963 37.6814 34.9488 37.2426 34.4469C36.9312 34.0907 36.532 33.8078 36.0777 33.6294C35.7299 33.4929 35.3497 33.4176 34.9518 33.4176H29.7686H28.6036H16.0073H14.8425H9.65993Z" fill="#42794A"/>
<path fill-rule="evenodd" clip-rule="evenodd" d="M29.7686 6.53514V5.83507C29.7686 3.62845 27.9027 1.83331 25.6092 1.83331H19.0024C16.7084 1.83331 14.8425 3.62845 14.8425 5.83507V6.53514H16.0073V5.83507C16.0073 5.69335 16.018 5.55397 16.0386 5.41765C16.2494 4.02486 17.4983 2.9508 19.0024 2.9508H25.6092C27.1127 2.9508 28.3616 4.02486 28.5723 5.41765C28.593 5.55397 28.6036 5.69335 28.6036 5.83507V6.53514H29.7686ZM29.7686 32.3001H28.6036V33.4176H29.7686V32.3001ZM14.8425 32.3001V33.4176H16.0073V32.3001H14.8425Z" fill="#42794A"/>
<path fill-rule="evenodd" clip-rule="evenodd" d="M11.5284 42.1666H33.0832C34.3443 42.1666 35.4761 41.624 36.2395 40.7686C35.8492 40.9485 35.4124 41.0493 34.9518 41.0493H33.0832H11.5284H9.65993C9.199 41.0493 8.76204 40.9484 8.37158 40.7684C9.13506 41.6239 10.267 42.1666 11.5284 42.1666ZM37.2426 9.4194V34.4469C36.9312 34.0907 36.532 33.8078 36.0777 33.6294V9.4194C36.0777 7.82974 34.7339 6.53514 33.0832 6.53514H29.7686H28.6036V5.83507C28.6036 5.69335 28.593 5.55397 28.5723 5.41765H33.0832C35.3767 5.41765 37.2426 7.21278 37.2426 9.4194ZM11.5284 5.41765H16.0386C16.018 5.55397 16.0073 5.69335 16.0073 5.83507V6.53514H14.8425H11.5284C9.87706 6.53514 8.53331 7.82974 8.53331 9.4194V33.6295C8.07896 33.8079 7.6799 34.0907 7.3685 34.4468V9.4194C7.3685 7.21278 9.23439 5.41765 11.5284 5.41765Z" fill="#42794A"/>
<mask id="path-2-inside-1_2535_1019" fill="white">
<path d="M27.4565 12.3095C27.336 12.3095 27.2383 12.4072 27.2383 12.5278V14.7103C27.2383 14.8309 27.336 14.9286 27.4565 14.9286H29.6391C29.7596 14.9286 29.8573 14.8309 29.8573 14.7103V12.5278C29.8573 12.4072 29.7596 12.3095 29.6391 12.3095H27.4565ZM27.2383 28.0238V27.369C27.2383 27.0074 27.5314 26.7143 27.893 26.7143C28.2546 26.7143 28.5478 27.0074 28.5478 27.369V28.0238H29.8573V27.369C29.8573 27.0074 30.1505 26.7143 30.5121 26.7143C30.8737 26.7143 31.1668 27.0074 31.1668 27.369V28.6786C31.1668 29.0402 30.8737 29.3333 30.5121 29.3333H25.274C24.9124 29.3333 24.6192 29.0402 24.6192 28.6786V27.369C24.6192 27.0074 24.9124 26.7143 25.274 26.7143C25.6356 26.7143 25.9287 27.0074 25.9287 27.369V28.0238H27.2383ZM23.3097 18.8571H23.9645C24.3261 18.8571 24.6192 19.1503 24.6192 19.5119C24.6192 19.8735 24.3261 20.1667 23.9645 20.1667H21.3454C20.9838 20.1667 20.6906 19.8735 20.6906 19.5119C20.6906 19.1503 20.9838 18.8571 21.3454 18.8571H22.0002V17.5476H20.0359C19.6743 17.5476 19.3811 17.2545 19.3811 16.8929C19.3811 16.5312 19.6743 16.2381 20.0359 16.2381H23.9645C24.3261 16.2381 24.6192 16.5312 24.6192 16.8929C24.6192 17.2545 24.3261 17.5476 23.9645 17.5476H23.3097V18.8571ZM29.8573 20.1667H29.2025C28.8409 20.1667 28.5478 19.8735 28.5478 19.5119C28.5478 19.1503 28.8409 18.8571 29.2025 18.8571H29.8573V18.2024C29.8573 17.8408 30.1505 17.5476 30.5121 17.5476C30.8737 17.5476 31.1668 17.8408 31.1668 18.2024V20.8214C31.1668 21.183 30.8737 21.4762 30.5121 21.4762C30.1505 21.4762 29.8573 21.183 29.8573 20.8214V20.1667ZM23.3097 22.7857H22.6549C22.2933 22.7857 22.0002 22.4926 22.0002 22.131C22.0002 21.7693 22.2933 21.4762 22.6549 21.4762H23.9645C24.3261 21.4762 24.6192 21.7693 24.6192 22.131V24.75C24.6192 25.1116 24.3261 25.4048 23.9645 25.4048H20.0359C19.6743 25.4048 19.3811 25.1116 19.3811 24.75C19.3811 24.3884 19.6743 24.0952 20.0359 24.0952H23.3097V22.7857ZM27.4565 11H29.6391C30.4828 11 31.1668 11.684 31.1668 12.5278V14.7103C31.1668 15.5541 30.4828 16.2381 29.6391 16.2381H27.4565C26.6127 16.2381 25.9287 15.5541 25.9287 14.7103V12.5278C25.9287 11.684 26.6127 11 27.4565 11ZM14.3613 11H16.5438C17.3876 11 18.0716 11.684 18.0716 12.5278V14.7103C18.0716 15.5541 17.3876 16.2381 16.5438 16.2381H14.3613C13.5175 16.2381 12.8335 15.5541 12.8335 14.7103V12.5278C12.8335 11.684 13.5175 11 14.3613 11ZM14.3613 12.3095C14.2407 12.3095 14.143 12.4072 14.143 12.5278V14.7103C14.143 14.8309 14.2407 14.9286 14.3613 14.9286H16.5438C16.6644 14.9286 16.7621 14.8309 16.7621 14.7103V12.5278C16.7621 12.4072 16.6644 12.3095 16.5438 12.3095H14.3613ZM14.3613 24.0952H16.5438C17.3876 24.0952 18.0716 24.7792 18.0716 25.623V27.8056C18.0716 28.6493 17.3876 29.3333 16.5438 29.3333H14.3613C13.5175 29.3333 12.8335 28.6493 12.8335 27.8056V25.623C12.8335 24.7792 13.5175 24.0952 14.3613 24.0952ZM14.3613 25.4048C14.2407 25.4048 14.143 25.5025 14.143 25.623V27.8056C14.143 27.9261 14.2407 28.0238 14.3613 28.0238H16.5438C16.6644 28.0238 16.7621 27.9261 16.7621 27.8056V25.623C16.7621 25.5025 16.6644 25.4048 16.5438 25.4048H14.3613ZM23.3097 12.3095H20.0359C19.6743 12.3095 19.3811 12.0164 19.3811 11.6548C19.3811 11.2931 19.6743 11 20.0359 11H23.9645C24.3261 11 24.6192 11.2931 24.6192 11.6548V14.2738C24.6192 14.6354 24.3261 14.9286 23.9645 14.9286C23.6028 14.9286 23.3097 14.6354 23.3097 14.2738V12.3095ZM20.0359 14.9286C19.6743 14.9286 19.3811 14.6354 19.3811 14.2738C19.3811 13.9122 19.6743 13.619 20.0359 13.619H21.3454C21.707 13.619 22.0002 13.9122 22.0002 14.2738C22.0002 14.6354 21.707 14.9286 21.3454 14.9286H20.0359ZM13.4883 22.7857C13.1266 22.7857 12.8335 22.4926 12.8335 22.131C12.8335 21.7693 13.1266 21.4762 13.4883 21.4762H16.1073C16.4689 21.4762 16.7621 21.7693 16.7621 22.131C16.7621 22.4926 16.4689 22.7857 16.1073 22.7857H13.4883ZM18.7264 22.7857C18.3647 22.7857 18.0716 22.4926 18.0716 22.131C18.0716 21.7693 18.3647 21.4762 18.7264 21.4762H20.0359C20.3975 21.4762 20.6906 21.7693 20.6906 22.131C20.6906 22.4926 20.3975 22.7857 20.0359 22.7857H18.7264ZM20.6906 28.0238V28.6786C20.6906 29.0402 20.3975 29.3333 20.0359 29.3333C19.6743 29.3333 19.3811 29.0402 19.3811 28.6786V27.369C19.3811 27.0074 19.6743 26.7143 20.0359 26.7143H22.6549C23.0165 26.7143 23.3097 27.0074 23.3097 27.369C23.3097 27.7307 23.0165 28.0238 22.6549 28.0238H20.6906ZM18.0716 18.8571H18.7264C19.088 18.8571 19.3811 19.1503 19.3811 19.5119C19.3811 19.8735 19.088 20.1667 18.7264 20.1667H17.4168C17.0552 20.1667 16.7621 19.8735 16.7621 19.5119V18.8571H16.1073C15.7457 18.8571 15.4525 18.564 15.4525 18.2024C15.4525 17.8408 15.7457 17.5476 16.1073 17.5476H17.4168C17.7784 17.5476 18.0716 17.8408 18.0716 18.2024V18.8571ZM12.8335 18.2024C12.8335 17.8408 13.1266 17.5476 13.4883 17.5476C13.8499 17.5476 14.143 17.8408 14.143 18.2024V19.5119C14.143 19.8735 13.8499 20.1667 13.4883 20.1667C13.1266 20.1667 12.8335 19.8735 12.8335 19.5119V18.2024ZM25.9287 18.2024C25.9287 17.8408 26.2219 17.5476 26.5835 17.5476C26.9451 17.5476 27.2383 17.8408 27.2383 18.2024V20.8214C27.2383 21.183 26.9451 21.4762 26.5835 21.4762C26.2219 21.4762 25.9287 21.183 25.9287 20.8214V18.2024ZM28.5478 24.0952V23.4405C28.5478 23.0789 28.8409 22.7857 29.2025 22.7857H30.5121C30.8737 22.7857 31.1668 23.0789 31.1668 23.4405C31.1668 23.8021 30.8737 24.0952 30.5121 24.0952H29.8573V24.75C29.8573 25.1116 29.5642 25.4048 29.2025 25.4048H26.5835C26.2219 25.4048 25.9287 25.1116 25.9287 24.75V23.4405C25.9287 23.0789 26.2219 22.7857 26.5835 22.7857C26.9451 22.7857 27.2383 23.0789 27.2383 23.4405V24.0952H28.5478Z"/>
</mask>
<path d="M27.4565 12.3095C27.336 12.3095 27.2383 12.4072 27.2383 12.5278V14.7103C27.2383 14.8309 27.336 14.9286 27.4565 14.9286H29.6391C29.7596 14.9286 29.8573 14.8309 29.8573 14.7103V12.5278C29.8573 12.4072 29.7596 12.3095 29.6391 12.3095H27.4565ZM27.2383 28.0238V27.369C27.2383 27.0074 27.5314 26.7143 27.893 26.7143C28.2546 26.7143 28.5478 27.0074 28.5478 27.369V28.0238H29.8573V27.369C29.8573 27.0074 30.1505 26.7143 30.5121 26.7143C30.8737 26.7143 31.1668 27.0074 31.1668 27.369V28.6786C31.1668 29.0402 30.8737 29.3333 30.5121 29.3333H25.274C24.9124 29.3333 24.6192 29.0402 24.6192 28.6786V27.369C24.6192 27.0074 24.9124 26.7143 25.274 26.7143C25.6356 26.7143 25.9287 27.0074 25.9287 27.369V28.0238H27.2383ZM23.3097 18.8571H23.9645C24.3261 18.8571 24.6192 19.1503 24.6192 19.5119C24.6192 19.8735 24.3261 20.1667 23.9645 20.1667H21.3454C20.9838 20.1667 20.6906 19.8735 20.6906 19.5119C20.6906 19.1503 20.9838 18.8571 21.3454 18.8571H22.0002V17.5476H20.0359C19.6743 17.5476 19.3811 17.2545 19.3811 16.8929C19.3811 16.5312 19.6743 16.2381 20.0359 16.2381H23.9645C24.3261 16.2381 24.6192 16.5312 24.6192 16.8929C24.6192 17.2545 24.3261 17.5476 23.9645 17.5476H23.3097V18.8571ZM29.8573 20.1667H29.2025C28.8409 20.1667 28.5478 19.8735 28.5478 19.5119C28.5478 19.1503 28.8409 18.8571 29.2025 18.8571H29.8573V18.2024C29.8573 17.8408 30.1505 17.5476 30.5121 17.5476C30.8737 17.5476 31.1668 17.8408 31.1668 18.2024V20.8214C31.1668 21.183 30.8737 21.4762 30.5121 21.4762C30.1505 21.4762 29.8573 21.183 29.8573 20.8214V20.1667ZM23.3097 22.7857H22.6549C22.2933 22.7857 22.0002 22.4926 22.0002 22.131C22.0002 21.7693 22.2933 21.4762 22.6549 21.4762H23.9645C24.3261 21.4762 24.6192 21.7693 24.6192 22.131V24.75C24.6192 25.1116 24.3261 25.4048 23.9645 25.4048H20.0359C19.6743 25.4048 19.3811 25.1116 19.3811 24.75C19.3811 24.3884 19.6743 24.0952 20.0359 24.0952H23.3097V22.7857ZM27.4565 11H29.6391C30.4828 11 31.1668 11.684 31.1668 12.5278V14.7103C31.1668 15.5541 30.4828 16.2381 29.6391 16.2381H27.4565C26.6127 16.2381 25.9287 15.5541 25.9287 14.7103V12.5278C25.9287 11.684 26.6127 11 27.4565 11ZM14.3613 11H16.5438C17.3876 11 18.0716 11.684 18.0716 12.5278V14.7103C18.0716 15.5541 17.3876 16.2381 16.5438 16.2381H14.3613C13.5175 16.2381 12.8335 15.5541 12.8335 14.7103V12.5278C12.8335 11.684 13.5175 11 14.3613 11ZM14.3613 12.3095C14.2407 12.3095 14.143 12.4072 14.143 12.5278V14.7103C14.143 14.8309 14.2407 14.9286 14.3613 14.9286H16.5438C16.6644 14.9286 16.7621 14.8309 16.7621 14.7103V12.5278C16.7621 12.4072 16.6644 12.3095 16.5438 12.3095H14.3613ZM14.3613 24.0952H16.5438C17.3876 24.0952 18.0716 24.7792 18.0716 25.623V27.8056C18.0716 28.6493 17.3876 29.3333 16.5438 29.3333H14.3613C13.5175 29.3333 12.8335 28.6493 12.8335 27.8056V25.623C12.8335 24.7792 13.5175 24.0952 14.3613 24.0952ZM14.3613 25.4048C14.2407 25.4048 14.143 25.5025 14.143 25.623V27.8056C14.143 27.9261 14.2407 28.0238 14.3613 28.0238H16.5438C16.6644 28.0238 16.7621 27.9261 16.7621 27.8056V25.623C16.7621 25.5025 16.6644 25.4048 16.5438 25.4048H14.3613ZM23.3097 12.3095H20.0359C19.6743 12.3095 19.3811 12.0164 19.3811 11.6548C19.3811 11.2931 19.6743 11 20.0359 11H23.9645C24.3261 11 24.6192 11.2931 24.6192 11.6548V14.2738C24.6192 14.6354 24.3261 14.9286 23.9645 14.9286C23.6028 14.9286 23.3097 14.6354 23.3097 14.2738V12.3095ZM20.0359 14.9286C19.6743 14.9286 19.3811 14.6354 19.3811 14.2738C19.3811 13.9122 19.6743 13.619 20.0359 13.619H21.3454C21.707 13.619 22.0002 13.9122 22.0002 14.2738C22.0002 14.6354 21.707 14.9286 21.3454 14.9286H20.0359ZM13.4883 22.7857C13.1266 22.7857 12.8335 22.4926 12.8335 22.131C12.8335 21.7693 13.1266 21.4762 13.4883 21.4762H16.1073C16.4689 21.4762 16.7621 21.7693 16.7621 22.131C16.7621 22.4926 16.4689 22.7857 16.1073 22.7857H13.4883ZM18.7264 22.7857C18.3647 22.7857 18.0716 22.4926 18.0716 22.131C18.0716 21.7693 18.3647 21.4762 18.7264 21.4762H20.0359C20.3975 21.4762 20.6906 21.7693 20.6906 22.131C20.6906 22.4926 20.3975 22.7857 20.0359 22.7857H18.7264ZM20.6906 28.0238V28.6786C20.6906 29.0402 20.3975 29.3333 20.0359 29.3333C19.6743 29.3333 19.3811 29.0402 19.3811 28.6786V27.369C19.3811 27.0074 19.6743 26.7143 20.0359 26.7143H22.6549C23.0165 26.7143 23.3097 27.0074 23.3097 27.369C23.3097 27.7307 23.0165 28.0238 22.6549 28.0238H20.6906ZM18.0716 18.8571H18.7264C19.088 18.8571 19.3811 19.1503 19.3811 19.5119C19.3811 19.8735 19.088 20.1667 18.7264 20.1667H17.4168C17.0552 20.1667 16.7621 19.8735 16.7621 19.5119V18.8571H16.1073C15.7457 18.8571 15.4525 18.564 15.4525 18.2024C15.4525 17.8408 15.7457 17.5476 16.1073 17.5476H17.4168C17.7784 17.5476 18.0716 17.8408 18.0716 18.2024V18.8571ZM12.8335 18.2024C12.8335 17.8408 13.1266 17.5476 13.4883 17.5476C13.8499 17.5476 14.143 17.8408 14.143 18.2024V19.5119C14.143 19.8735 13.8499 20.1667 13.4883 20.1667C13.1266 20.1667 12.8335 19.8735 12.8335 19.5119V18.2024ZM25.9287 18.2024C25.9287 17.8408 26.2219 17.5476 26.5835 17.5476C26.9451 17.5476 27.2383 17.8408 27.2383 18.2024V20.8214C27.2383 21.183 26.9451 21.4762 26.5835 21.4762C26.2219 21.4762 25.9287 21.183 25.9287 20.8214V18.2024ZM28.5478 24.0952V23.4405C28.5478 23.0789 28.8409 22.7857 29.2025 22.7857H30.5121C30.8737 22.7857 31.1668 23.0789 31.1668 23.4405C31.1668 23.8021 30.8737 24.0952 30.5121 24.0952H29.8573V24.75C29.8573 25.1116 29.5642 25.4048 29.2025 25.4048H26.5835C26.2219 25.4048 25.9287 25.1116 25.9287 24.75V23.4405C25.9287 23.0789 26.2219 22.7857 26.5835 22.7857C26.9451 22.7857 27.2383 23.0789 27.2383 23.4405V24.0952H28.5478Z" fill="#42794A" stroke="#42794A" stroke-width="122.222" mask="url(#path-2-inside-1_2535_1019)"/>
</svg>
